<svg width="134" height="116" viewBox="0 0 134 116" fill="none" xmlns="http://www.w3.org/2000/svg">
<g clip-path="url(#clip0_73_257)">
<path opacity="0.1" d="M71.1059 116C95.568 116 115.399 112.795 115.399 108.841C115.399 104.888 95.568 101.683 71.1059 101.683C46.6437 101.683 26.8132 104.888 26.8132 108.841C26.8132 112.795 46.6437 116 71.1059 116Z" fill="black"/>
<path opacity="0.1" d="M66.3237 92.1452C75.5754 87.004 86.1437 85.3625 96.4715 87.568C111.107 90.6917 129.5 89.4668 133.058 65.3676C139.142 24.2077 113.644 13.3439 113.644 13.3439C113.644 13.3439 96.6875 11.918 86.6608 6.48903C72.4181 -1.22203 56.1385 -2.20689 41.8237 4.31975C32.6699 8.4891 25.1322 14.2984 23.8431 22.2684C20.242 44.5657 26.1564 56.8496 15.0926 64.1282C4.02878 71.4069 13.4836 91.3903 21.9691 90.699C30.4546 90.0077 49.6178 82.4181 57.0863 91.208C59.741 94.3217 63.0972 93.9384 66.3237 92.1452Z" fill="black"/>
<path opacity="0.1" d="M122.992 106.279C126.572 106.279 129.474 105.243 129.474 103.965C129.474 102.687 126.572 101.651 122.992 101.651C119.413 101.651 116.51 102.687 116.51 103.965C116.51 105.243 119.413 106.279 122.992 106.279Z" fill="black"/>
<path d="M122.73 104.293C122.73 104.293 124.459 98.3869 122.405 94.0397C121.53 92.2218 121.266 90.1682 121.653 88.187C121.844 87.2477 122.12 86.3279 122.478 85.4392" stroke="#535461" stroke-width="2" stroke-miterlimit="10"/>
<path d="M121.199 82.6929C121.199 83.416 122.504 85.5159 122.504 85.5159C122.504 85.5159 123.809 83.4175 123.809 82.6929C123.809 82.3452 123.672 82.0118 123.427 81.7659C123.182 81.5201 122.85 81.382 122.503 81.382C122.157 81.382 121.825 81.5201 121.58 81.7659C121.335 82.0118 121.198 82.3452 121.198 82.6929H121.199Z" fill="#FFB163"/>
<path d="M119.041 86.7032C119.433 87.3106 121.666 88.3605 121.666 88.3605C121.666 88.3605 121.625 85.8861 121.234 85.2787C121.046 84.987 120.75 84.7823 120.411 84.7096C120.073 84.6369 119.719 84.7022 119.429 84.8911C119.138 85.08 118.934 85.377 118.862 85.7169C118.79 86.0567 118.855 86.4115 119.043 86.7032H119.041Z" fill="#FFB163"/>
<path d="M119.135 93.5538C119.779 93.8792 122.233 93.655 122.233 93.655C122.233 93.655 120.954 91.5392 120.31 91.2138C120.157 91.1364 119.991 91.0899 119.82 91.0771C119.649 91.0643 119.477 91.0854 119.314 91.1393C119.151 91.1931 119.001 91.2787 118.871 91.391C118.741 91.5033 118.635 91.6401 118.557 91.7938C118.48 91.9474 118.434 92.1148 118.421 92.2864C118.408 92.458 118.43 92.6305 118.483 92.7939C118.537 92.9573 118.622 93.1085 118.734 93.2389C118.846 93.3693 118.982 93.4763 119.135 93.5538Z" fill="#FFB163"/>
<path d="M120.369 98.7224C120.946 99.1563 123.406 99.3472 123.406 99.3472C123.406 99.3472 122.501 97.0463 121.922 96.6124C121.784 96.5101 121.628 96.4359 121.461 96.3943C121.295 96.3527 121.122 96.3444 120.953 96.3698C120.783 96.3953 120.62 96.454 120.473 96.5426C120.326 96.6313 120.198 96.7481 120.096 96.8865C119.994 97.0248 119.921 97.182 119.879 97.349C119.838 97.516 119.829 97.6895 119.855 97.8597C119.88 98.03 119.939 98.1935 120.027 98.341C120.115 98.4885 120.232 98.6171 120.369 98.7195V98.7224Z" fill="#FFB163"/>
<path d="M124.405 88.5008C123.888 89.0055 121.479 89.5276 121.479 89.5276C121.479 89.5276 122.069 87.1255 122.586 86.6208C122.835 86.3786 123.168 86.2453 123.515 86.2503C123.861 86.2553 124.191 86.3982 124.432 86.6475C124.673 86.8968 124.806 87.2322 124.801 87.5797C124.796 87.9273 124.654 88.2586 124.405 88.5008Z" fill="#FFB163"/>
<path d="M125.769 94.5617C125.126 94.8871 122.671 94.663 122.671 94.663C122.671 94.663 123.95 92.5472 124.594 92.2218C124.903 92.0653 125.261 92.0385 125.59 92.1472C125.919 92.256 126.191 92.4914 126.347 92.8017C126.503 93.112 126.53 93.4718 126.421 93.8018C126.313 94.1319 126.079 94.4052 125.769 94.5617Z" fill="#FFB163"/>
<path d="M126.297 100.637C125.72 101.071 123.26 101.262 123.26 101.262C123.26 101.262 124.165 98.9596 124.744 98.5301C125.022 98.3234 125.371 98.2361 125.713 98.2875C126.056 98.3389 126.364 98.5247 126.57 98.8042C126.776 99.0836 126.862 99.4337 126.811 99.7774C126.76 100.121 126.575 100.43 126.297 100.637Z" fill="#FFB163"/>
<path opacity="0.1" d="M9.19987 103.386C12.7797 103.386 15.6817 102.35 15.6817 101.072C15.6817 99.7945 12.7797 98.7585 9.19987 98.7585C5.62004 98.7585 2.71802 99.7945 2.71802 101.072C2.71802 102.35 5.62004 103.386 9.19987 103.386Z" fill="black"/>
<path d="M9.20563 101.096C9.20563 101.096 12.9032 88.4892 8.51279 79.2119C6.66907 75.3173 6.0641 70.947 6.90962 66.7212C7.31456 64.7153 7.90182 62.7509 8.66404 60.8526" stroke="#535461" stroke-width="2" stroke-miterlimit="10"/>
<path d="M5.93738 54.9883C5.93738 56.5329 8.72313 61.0131 8.72313 61.0131C8.72313 61.0131 11.5089 56.53 11.5089 54.9883C11.5089 54.2465 11.2154 53.5351 10.693 53.0106C10.1705 52.4861 9.46196 52.1914 8.72313 52.1914C7.9843 52.1914 7.27574 52.4861 6.75331 53.0106C6.23088 53.5351 5.93738 54.2465 5.93738 54.9883Z" fill="#FFB163"/>
<path d="M1.33237 63.5454C2.16925 64.847 6.93269 67.0828 6.93269 67.0828C6.93269 67.0828 6.84626 61.8013 6.00939 60.5055C5.81515 60.1877 5.55957 59.9121 5.2577 59.6949C4.95582 59.4777 4.61373 59.3233 4.25155 59.2407C3.88937 59.1582 3.5144 59.1492 3.14872 59.2143C2.78303 59.2794 2.43399 59.4173 2.12214 59.6198C1.81029 59.8223 1.54191 60.0853 1.3328 60.3935C1.12369 60.7016 0.978054 61.0487 0.90447 61.4142C0.830886 61.7796 0.830834 62.1562 0.904318 62.5217C0.977803 62.8872 1.12334 63.2343 1.33237 63.5425V63.5454Z" fill="#FFB163"/>
<path d="M1.53256 78.1692C2.90239 78.8649 8.14549 78.3905 8.14549 78.3905C8.14549 78.3905 5.40871 73.8755 4.04176 73.1842C3.71508 73.0188 3.35916 72.9196 2.9943 72.8923C2.62944 72.865 2.2628 72.9101 1.9153 73.0251C1.21351 73.2572 0.632309 73.7598 0.299569 74.4222C-0.0331708 75.0846 -0.0901977 75.8525 0.141033 76.5572C0.372264 77.2618 0.872813 77.8453 1.53256 78.1794V78.1692Z" fill="#FFB163"/>
<path d="M4.16708 89.1993C5.40439 90.1176 10.6489 90.5326 10.6489 90.5326C10.6489 90.5326 8.71878 85.6156 7.48002 84.7016C6.88598 84.2605 6.14175 84.0744 5.41105 84.1843C4.68035 84.2941 4.02303 84.6909 3.58371 85.2873C3.14439 85.8838 2.95904 86.631 3.06844 87.3646C3.17784 88.0982 3.57303 88.7582 4.16708 89.1993Z" fill="#FFB163"/>
<path d="M12.7822 67.3821C11.6789 68.4581 6.53662 69.5731 6.53662 69.5731C6.53662 69.5731 7.79554 64.4449 8.8989 63.3689C9.16135 63.1126 9.47154 62.9106 9.81174 62.7745C10.1519 62.6385 10.5155 62.5711 10.8816 62.5761C11.2478 62.5812 11.6094 62.6586 11.9457 62.8039C12.2821 62.9492 12.5867 63.1597 12.842 63.4232C13.0974 63.6867 13.2986 63.9981 13.434 64.3397C13.5695 64.6812 13.6367 65.0462 13.6317 65.4139C13.6266 65.7815 13.5496 66.1445 13.4048 66.4822C13.2601 66.8199 13.0505 67.1257 12.788 67.3821H12.7822Z" fill="#FFB163"/>
<path d="M15.699 80.3211C14.3248 81.0168 9.08606 80.5366 9.08606 80.5366C9.08606 80.5366 11.8228 76.0216 13.1898 75.3304C13.8495 74.9963 14.6145 74.939 15.3162 75.1712C16.018 75.4034 16.5992 75.9059 16.932 76.5683C17.2647 77.2307 17.3217 77.9987 17.0905 78.7033C16.8593 79.4079 16.3587 79.9914 15.699 80.3255V80.3211Z" fill="#FFB163"/>
<path d="M16.8153 93.2862C15.578 94.2046 10.3335 94.6196 10.3335 94.6196C10.3335 94.6196 12.2636 89.7026 13.5024 88.7886C14.0964 88.3475 14.8407 88.1614 15.5714 88.2713C16.3021 88.3811 16.9594 88.7779 17.3987 89.3743C17.838 89.9707 18.0234 90.7179 17.914 91.4516C17.8046 92.1852 17.4094 92.8451 16.8153 93.2862Z" fill="#FFB163"/>
<path d="M116.428 53.5971C116.781 53.4261 117.076 53.1557 117.278 52.819C116.787 52.6659 116.309 52.4724 115.849 52.2406L116.263 50.4328C116.3 50.2641 116.303 50.0896 116.272 49.9196C116.242 49.7496 116.177 49.5874 116.084 49.4426C115.99 49.2977 115.868 49.1731 115.726 49.0759C115.583 48.9788 115.423 48.9111 115.255 48.8767L114.765 48.7683C114.425 48.6911 114.069 48.7509 113.772 48.9348C113.476 49.1187 113.263 49.412 113.18 49.7517L113.09 50.1479C112.415 49.4177 111.862 48.5825 111.453 47.675C111.309 47.4019 111.235 47.0974 111.236 46.7884C111.263 46.4197 111.481 46.0957 111.658 45.7761C112.263 44.667 112.461 43.3796 112.217 42.139C111.993 41.0283 111.427 40.0174 111.064 38.9443C110.347 36.8196 110.429 34.5047 111.295 32.4365C111.795 31.2535 112.562 30.0286 112.24 28.7878C111.881 27.4038 110.367 26.7009 109.071 26.04C107.774 25.3791 106.402 24.2207 106.671 22.8165C106.756 22.3739 107.005 21.9401 106.904 21.5019C106.769 20.9234 106.099 20.6342 105.516 20.4548C103.956 19.9574 102.373 19.4555 100.734 19.3789C99.3884 19.3167 97.9826 19.577 96.8619 20.2799C96.5296 20.4627 96.2202 20.6846 95.9401 20.9408C95.6847 21.2071 95.4118 21.4559 95.1233 21.6855C94.5328 21.9849 93.827 21.9459 93.1601 22.0095C92.3914 22.0806 91.6492 22.328 90.9908 22.7326C90.5865 22.9471 90.2216 23.2293 89.9119 23.567C89.1557 24.4058 88.823 25.6351 89.1917 26.6922C89.267 26.9015 89.3702 27.0995 89.4985 27.2808C88.9269 28.2222 88.6248 29.3035 88.6257 30.4061C88.6257 33.5414 91.0268 36.1257 94.1251 36.4945C94.3066 37.193 94.4824 37.9248 94.6192 38.603C94.5823 38.6364 94.5433 38.6673 94.5025 38.6956C94.2476 38.8185 93.9566 38.8966 93.6901 39.0022C93.4934 39.0799 93.3048 39.1768 93.1269 39.2914C91.809 40.0044 91.1334 41.5489 90.5889 42.9604C90.9634 42.8924 91.3351 42.8158 91.7038 42.7247C91.6851 42.7709 91.6707 42.8158 91.6577 42.8577C91.2789 44.1593 89.1903 51.4104 89.1903 51.4104L89.6339 50.4531C89.6518 50.5896 89.6293 50.7284 89.5691 50.8522C89.3847 51.2123 89.7376 50.9506 90.298 50.4314C90.298 50.4618 90.3052 50.4791 90.3268 50.4806C89.0102 52.6383 84.8647 59.376 82.8021 62.1093C80.2396 62.455 78.3728 62.7514 78.3728 62.7514C77.9672 62.755 77.5681 62.8541 77.2075 63.0407C76.7016 63.3016 76.275 63.6944 75.9724 64.1778C75.6698 64.6613 75.5024 65.2176 75.4877 65.7884L75.3436 70.3685C75.3436 70.3685 74.246 75.877 74.2676 79.0138C74.2508 79.5438 74.2933 80.074 74.3944 80.5945C74.5668 81.3804 74.6514 82.1832 74.6465 82.9879C74.639 83.9309 74.5547 84.8716 74.3944 85.8007C74.4016 85.808 74.4146 85.8152 74.4232 85.8224C74.4059 85.928 74.3944 85.9859 74.3944 85.9859C74.6033 86.1898 75.2428 86.3387 76.0595 86.4457C75.829 87.7328 74.9821 89.0489 72.4974 89.1458C68.8675 89.2832 68.1142 89.9224 67.9702 90.2507C67.9387 90.3111 67.9295 90.3808 67.9442 90.4473C68.1344 92.8639 73.5417 92.5848 75.1549 92.6788C75.3929 92.6848 75.6307 92.6629 75.8636 92.6137C76.0077 92.5877 76.1517 92.5544 76.3058 92.5154C76.6933 92.417 77.1283 92.2782 77.582 92.1133C78.1265 91.9152 78.6998 91.6795 79.2558 91.4235C79.5338 91.2962 79.806 91.1646 80.0696 91.0316C80.2453 90.9419 80.4153 90.8523 80.5795 90.7626C81.402 90.3143 82.0689 89.866 82.3642 89.5174C82.3915 89.4855 82.4165 89.4517 82.4391 89.4162C82.4463 89.4032 82.4535 89.3902 82.4607 89.3772C82.4679 89.3641 82.4866 89.3309 82.4981 89.3063C82.5097 89.2817 82.5125 89.273 82.5183 89.2557C82.5241 89.2383 82.5342 89.2123 82.5414 89.1906C82.5486 89.1689 82.5529 89.1516 82.5586 89.1313C82.5644 89.1111 82.5673 89.0908 82.5716 89.0706C82.5759 89.0503 82.5802 89.0257 82.5831 89.0026C82.586 88.9795 82.5831 88.9693 82.5831 88.952C82.658 88.1725 82.0747 87.1124 81.6008 86.398V83.3784C81.6008 83.3784 82.272 76.2675 82.259 73.1293C82.2787 72.6396 82.2488 72.1493 82.1697 71.6657C82.1308 71.5156 82.1067 71.3621 82.0977 71.2073C82.0984 70.9663 82.1812 70.7329 82.3324 70.5458C82.4836 70.3587 82.6941 70.2293 82.9288 70.179C84.617 69.2969 88.9785 69.657 92.2396 70.0966C89.4063 70.5305 83.0685 71.2796 83.0685 72.1328V74.1575C83.0741 74.6489 83.2623 75.1204 83.5962 75.4797C83.9301 75.839 84.3856 76.0601 84.8734 76.0997V110.617H87.1291V76.1099H107.175V110.617H109.431V75.7136C109.972 75.4348 110.426 75.0123 110.745 74.4921C111.063 73.9718 111.233 73.3739 111.236 72.7634V72.2616L115.435 54.0396C115.785 53.9411 116.12 53.792 116.428 53.5971ZM108.06 71.9911C107.927 71.4126 106.991 70.8993 105.499 70.5001C108.031 69.2535 108.565 66.7805 108.547 64.86C108.551 64.2086 108.498 63.5581 108.387 62.9163C108.547 62.7807 108.669 62.6055 108.742 62.4079C108.814 62.2104 108.834 61.9974 108.8 61.7897C108.832 61.4077 108.75 61.0248 108.562 60.6906C107.064 57.6536 106.834 55.9182 106.802 53.558C107.1 53.8372 107.444 54.0627 107.818 54.2247C108.702 54.608 109.69 54.6759 110.66 54.6673C111.128 54.6673 111.596 54.6398 112.064 54.6036L108.06 71.9911ZM92.6185 53.8169C92.7395 54.0454 92.8129 54.19 92.8129 54.19L93.2263 53.8227C95.204 53.8907 95.6275 54.8509 95.688 55.4887C95.6826 55.5519 95.6729 55.6147 95.6592 55.6767L93.9508 60.6964C90.985 60.238 89.6887 61.0363 89.3228 61.3342C88.4081 61.4209 87.4776 61.5222 86.5615 61.6234C88.4009 59.2199 90.9361 55.9746 92.6185 53.8169Z" fill="url(#paint0_linear_73_257)"/>
<path d="M87.8349 47.5087C87.8349 47.5087 81.1168 58.88 79.5424 60.3898C79.5424 60.3898 72.8244 67.3894 76.2396 66.8977C76.4902 66.8615 81.4063 62.6893 81.693 62.0067C81.9796 61.3241 91.276 49.1993 91.276 49.1993L89.9508 47.9743L87.8349 47.5087Z" fill="#F8BDC5"/>
<path d="M106.371 108.853H108.502V74.804H106.371V108.853Z" fill="#40414D"/>
<path d="M85.0707 108.853H87.201V74.804H85.0707V108.853Z" fill="#40414D"/>
<path d="M83.3652 71.5934C83.3652 72.895 92.2194 73.9464 97.6339 73.9464C103.048 73.9464 107.223 72.895 107.223 71.5934C107.223 70.2919 103.046 69.2405 97.6325 69.2405C92.2194 69.2405 83.3652 70.2919 83.3652 71.5934Z" fill="#F6C6CD"/>
<path d="M107.613 75.4446H84.8776C84.6784 75.4456 84.481 75.407 84.2966 75.3311C84.1123 75.2552 83.9447 75.1435 83.8035 75.0024C83.6623 74.8613 83.5503 74.6936 83.4738 74.5089C83.3973 74.3242 83.358 74.1262 83.358 73.9261V71.5934H110.206V72.8415C110.206 73.5319 109.933 74.194 109.446 74.6822C108.96 75.1704 108.301 75.4446 107.613 75.4446Z" fill="#40414D"/>
<path d="M107.592 75.0418L106.46 74.7851L112.103 49.6832C112.162 49.4213 112.322 49.1937 112.548 49.0503C112.775 48.9069 113.048 48.8595 113.309 48.9187L114.257 49.1336C114.518 49.1927 114.745 49.3535 114.888 49.5804C115.031 49.8074 115.078 50.0821 115.019 50.344L109.777 73.6599C109.67 74.1336 109.381 74.5454 108.972 74.8047C108.563 75.064 108.068 75.1496 107.597 75.0427L107.592 75.0418Z" fill="#40414D"/>
<path d="M81.6929 84.6424C81.6929 84.6424 83.8435 87.3424 82.9475 88.4227C82.0516 89.503 77.5777 91.5682 76.1358 91.4828C74.6119 91.3932 69.5099 91.6622 69.3241 89.3237C69.3241 89.3237 68.9655 88.2434 73.6266 88.0641C78.2878 87.8847 76.8474 83.0183 76.8474 83.0183L81.6929 84.6424Z" fill="#594C76"/>
<path opacity="0.1" d="M107.324 61.9633C107.324 61.9633 109.474 69.3388 103.021 70.6028L96.0293 70.2427C96.0293 70.2427 86.1697 68.2629 83.4805 69.7033C83.4805 69.7033 82.4045 69.8826 82.7603 71.323C83.116 72.7634 82.223 82.4818 82.223 82.4818V85.7212C82.223 85.7212 76.1272 85.7212 75.4113 84.9981C75.4113 84.9981 75.9486 82.1188 75.4113 79.7788C74.874 77.4389 76.3072 70.059 76.3072 70.059L76.4513 65.625C76.4619 65.0761 76.618 64.5399 76.9036 64.0717C77.1892 63.6035 77.5939 63.2201 78.0761 62.9612C78.4153 62.7807 78.7926 62.6845 79.1765 62.6806C79.1765 62.6806 91.3667 60.7008 95.6692 61.0609C99.9717 61.421 107.324 61.9633 107.324 61.9633Z" fill="black"/>
<path d="M107.324 61.7825C107.324 61.7825 109.474 69.158 103.021 70.422L96.0294 70.0619C96.0294 70.0619 86.1697 68.0821 83.4805 69.5225C83.4805 69.5225 82.4045 69.7018 82.7603 71.1422C83.1161 72.5826 82.2245 82.2952 82.2245 82.2952V85.5346C82.2245 85.5346 76.1286 85.5346 75.4128 84.8116C75.4128 84.8116 75.95 81.9322 75.4128 79.5923C74.8755 77.2523 76.3087 69.8724 76.3087 69.8724L76.4527 65.4384C76.4633 64.8895 76.6195 64.3533 76.905 63.8851C77.1906 63.4169 77.5953 63.0336 78.0775 62.7746C78.4167 62.5941 78.7941 62.4979 79.178 62.494C79.178 62.494 91.3682 60.5142 95.6707 60.8743C99.9732 61.2344 107.324 61.7825 107.324 61.7825Z" fill="#8B9CD1"/>
<path d="M95.312 38.2053C95.312 38.2053 92.0855 41.9857 91.7268 43.2453C91.3682 44.5049 87.4243 47.7444 87.4243 47.7444C87.4243 47.7444 90.2922 49.9006 89.7592 50.9838C89.2263 52.067 93.5187 47.3843 93.5187 47.3843L98.5385 40.0087L95.312 38.2053Z" fill="#FFB163"/>
<path opacity="0.1" d="M95.312 38.2053C95.312 38.2053 92.0855 41.9857 91.7268 43.2453C91.3682 44.5049 87.4243 47.7444 87.4243 47.7444C87.4243 47.7444 90.2922 49.9006 89.7592 50.9838C89.2263 52.067 93.5187 47.3843 93.5187 47.3843L98.5385 40.0087L95.312 38.2053Z" fill="black"/>
<path d="M93.16 33.8856C93.16 33.8856 94.7733 39.1048 94.7733 41.0847C94.7733 43.0645 101.585 40.5452 101.399 39.4649C101.213 38.3846 97.4553 34.425 97.2753 32.8125C97.0952 31.2 93.16 33.8856 93.16 33.8856Z" fill="#F8BDC5"/>
<path opacity="0.1" d="M98.5457 37.4852C98.5457 37.4852 104.82 35.8654 105.716 45.0444C106.612 54.2233 104.996 55.3036 107.688 60.883C110.38 66.4624 89.402 61.6061 89.402 61.6061C89.402 61.6061 90.478 60.3465 93.8831 60.883L95.4964 56.0238C95.4964 56.0238 96.0336 53.8647 92.9872 53.8647C89.9407 53.8647 91.3739 47.5651 91.3739 47.5651C91.3739 47.5651 92.9872 42.165 93.8831 41.6256C94.779 41.0862 96.3851 37.8453 98.5457 37.4852Z" fill="black"/>
<path d="M98.5457 37.1251C98.5457 37.1251 104.82 35.5053 105.716 44.6843C106.612 53.8632 104.996 54.9435 107.688 60.5229C110.38 66.1023 89.402 61.246 89.402 61.246C89.402 61.246 90.478 59.9864 93.8831 60.5229L95.4964 55.6637C95.4964 55.6637 96.0336 53.5046 92.9872 53.5046C89.9407 53.5046 91.3739 47.205 91.3739 47.205C91.3739 47.205 92.9872 41.8049 93.8831 41.2655C94.779 40.7261 96.3851 37.4852 98.5457 37.1251Z" fill="#FFB163"/>
<path d="M90.8597 49.9672C90.8597 49.9672 84.1416 61.3385 82.5672 62.8483C82.5672 62.8483 75.8491 69.8479 79.2644 69.3562C79.515 69.32 84.4311 65.1478 84.7177 64.4652C85.0044 63.7826 94.3008 51.6578 94.3008 51.6578L92.9756 50.4328L90.8597 49.9672Z" fill="#F8BDC5"/>
<path opacity="0.1" d="M102.304 45.5837L92.797 54.2233C92.797 54.2233 91.0095 50.6237 90.4722 50.6237C89.9349 50.6237 96.9252 40.0044 96.9252 40.0044C96.9252 40.0044 98.7186 37.8452 99.7931 38.9241C100.868 40.0029 104.096 39.2842 102.304 45.5837Z" fill="black"/>
<path d="M102.482 45.2237L92.9756 53.8632C92.9756 53.8632 91.1823 50.2637 90.645 50.2637C90.1078 50.2637 97.1053 39.6443 97.1053 39.6443C97.1053 39.6443 98.8986 37.4852 99.9731 38.564C101.048 39.6429 104.276 38.9241 102.482 45.2237Z" fill="#FFB163"/>
<path d="M94.7733 37.1251C98.0405 37.1251 100.689 34.4659 100.689 31.1856C100.689 27.9053 98.0405 25.2461 94.7733 25.2461C91.5061 25.2461 88.8575 27.9053 88.8575 31.1856C88.8575 34.4659 91.5061 37.1251 94.7733 37.1251Z" fill="#F8BDC5"/>
<path opacity="0.1" d="M91.8968 29.2332C90.8266 29.3778 89.7477 28.6142 89.3934 27.5903C89.0391 26.5664 89.3531 25.3762 90.0675 24.5649C90.782 23.7536 91.845 23.2995 92.9195 23.1939C93.572 23.1303 94.2678 23.1766 94.8367 22.8497C95.1954 22.6444 95.4619 22.3118 95.7629 22.0283C96.8907 20.961 98.5256 20.5734 100.074 20.6458C101.622 20.7181 103.118 21.2054 104.593 21.687C105.143 21.8663 105.777 22.1339 105.903 22.6993C106 23.1245 105.759 23.5454 105.683 23.972C105.429 25.3299 106.733 26.4464 107.95 27.0928C109.167 27.7393 110.602 28.419 110.941 29.7596C111.244 30.9614 110.52 32.1458 110.047 33.2912C109.23 35.2971 109.153 37.53 109.83 39.5879C110.176 40.6263 110.711 41.6125 110.922 42.6813C111.153 43.8811 110.967 45.1242 110.395 46.2027C110.226 46.518 110.02 46.8318 109.996 47.1876C109.994 47.4863 110.064 47.781 110.2 48.0466C110.719 49.2167 111.477 50.2644 112.425 51.1221C113.372 51.9798 114.488 52.6283 115.701 53.0258C115.316 53.7258 114.477 54.0179 113.702 54.2016C112.379 54.5134 111.027 54.6773 109.669 54.6904C108.755 54.6991 107.818 54.634 106.984 54.2566C106.15 53.8791 105.425 53.1575 105.268 52.2536C105.177 51.7301 105.278 51.1892 105.213 50.6628C105.069 49.4769 104.12 48.547 103.773 47.4045C103.44 46.3127 103.247 46.1463 103.375 45.0111C103.504 43.8758 103.479 42.6148 102.742 41.7456C101.97 40.8345 100.613 40.632 99.4489 40.8909C98.2851 41.1498 97.683 40.7839 96.6199 41.3248C94.76 42.2748 92.7742 42.9527 90.7229 43.3379C91.2789 41.8598 91.9775 40.23 93.4352 39.6327C93.8529 39.4621 94.3369 39.371 94.6207 39.0195C95.0729 38.4584 94.7647 37.5589 95.155 36.9544C95.5454 36.3499 96.4745 36.3224 97.0089 35.8191C97.4626 35.3853 97.5461 34.6752 97.3704 34.0765C97.1947 33.4778 96.8072 32.9673 96.4154 32.4857C96.0687 32.0528 95.7139 31.6266 95.3509 31.2072C95.0128 30.8551 94.7301 30.4533 94.5126 30.0156C94.3902 29.7264 94.4132 29.1797 94.213 28.9497C93.706 28.3669 92.5148 29.1508 91.8968 29.2332Z" fill="black"/>
<path d="M92.1142 29.1016C91.044 29.2462 89.9652 28.4826 89.6108 27.4587C89.2565 26.4348 89.5705 25.2446 90.2849 24.4333C90.9994 23.622 92.0624 23.1679 93.1369 23.0623C93.7894 22.9987 94.4852 23.045 95.0541 22.7181C95.4128 22.5128 95.6793 22.1802 95.9803 21.8967C97.1082 20.8294 98.743 20.4419 100.291 20.5142C101.84 20.5865 103.335 21.0738 104.81 21.5554C105.36 21.7347 105.994 22.0023 106.121 22.5677C106.217 22.9929 105.977 23.4138 105.9 23.8404C105.647 25.1984 106.95 26.3148 108.168 26.9613C109.385 27.6077 110.819 28.2874 111.158 29.628C111.462 30.8298 110.737 32.0142 110.265 33.1596C109.448 35.1655 109.37 37.3984 110.047 39.4563C110.393 40.4947 110.929 41.481 111.139 42.5497C111.37 43.7495 111.184 44.9926 110.612 46.0712C110.443 46.3864 110.237 46.7002 110.213 47.056C110.211 47.3547 110.281 47.6494 110.418 47.915C110.937 49.0851 111.694 50.1328 112.642 50.9905C113.589 51.8482 114.706 52.4967 115.918 52.8943C115.534 53.5942 114.694 53.8863 113.919 54.07C112.597 54.3818 111.244 54.5458 109.886 54.5588C108.973 54.5675 108.035 54.5024 107.201 54.125C106.367 53.7475 105.643 53.0259 105.486 52.122C105.395 51.5985 105.496 51.0576 105.431 50.5312C105.287 49.3453 104.338 48.4154 103.99 47.2729C103.658 46.1811 103.465 46.0148 103.593 44.8795C103.721 43.7442 103.697 42.4832 102.959 41.614C102.187 40.7029 100.83 40.5004 99.6663 40.7593C98.5025 41.0182 97.9004 40.6523 96.8374 41.1932C94.9774 42.1432 92.9916 42.8211 90.9403 43.2063C91.4963 41.7283 92.1949 40.0984 93.6526 39.5011C94.0703 39.3305 94.5543 39.2394 94.8381 38.888C95.2904 38.3268 94.9821 37.4273 95.3725 36.8228C95.7628 36.2183 96.6919 36.1908 97.2263 35.6875C97.68 35.2537 97.7635 34.5436 97.5878 33.9449C97.4121 33.3462 97.0246 32.8357 96.6328 32.3541C96.2862 31.9212 95.9313 31.495 95.5684 31.0757C95.2344 30.7232 94.9556 30.3219 94.7416 29.8854C94.6191 29.5962 94.6422 29.0495 94.442 28.8196C93.9234 28.2353 92.7322 29.0206 92.1142 29.1016Z" fill="#EB6475"/>
<g opacity="0.1">
<path d="M77.0518 84.4399C77.0382 83.9612 76.9696 83.4856 76.8473 83.0226L76.938 83.053C77.0271 83.5096 77.0653 83.9748 77.0518 84.4399Z" fill="white"/>
<path d="M76.13 91.117C77.5704 91.2023 82.0458 89.1371 82.9417 88.0568C83.0591 87.9107 83.1312 87.7332 83.1491 87.5463C83.1751 87.6975 83.1701 87.8524 83.1344 88.0016C83.0987 88.1508 83.0332 88.2911 82.9417 88.414C82.0458 89.4943 77.5719 91.5595 76.13 91.4742C74.6061 91.3845 69.5041 91.6535 69.3183 89.315C69.3049 89.2509 69.3135 89.1841 69.3428 89.1256C69.7533 91.2862 74.645 91.0331 76.13 91.117Z" fill="white"/>
</g>
<path d="M37.854 92.2652C38.7182 91.976 40.0146 91.6462 41.0358 91.7634C42.0067 91.4076 44.2912 90.4792 45.8511 89.1039C45.8057 87.7417 45.8398 86.378 45.9534 85.0198C46.7514 75.9089 44.9566 69.9086 44.9566 69.9086C44.9566 69.9086 43.5479 65.3286 43.702 61.528C43.6113 61.7001 43.558 61.8028 43.558 61.8028C43.4341 58.5243 42.3221 55.1315 41.4896 53.0186C41.4576 53.0093 41.4263 52.9977 41.3959 52.9839L40.4496 50.7684C40.3754 50.6392 40.3165 50.5019 40.2739 50.3591L40.1298 50.0077L40.1745 49.9889C40.1601 49.931 40.1442 49.8703 40.1298 49.8081C39.5349 47.2816 39.0812 41.2901 39.0812 41.2901C37.4867 34.9847 41.2735 31.0829 41.2735 31.0829L47.6992 25.5252C47.6673 25.5974 47.6459 25.6739 47.6358 25.7522L47.6891 25.706C47.7798 25.4457 47.8792 25.1275 47.9772 24.7746C47.7478 24.6118 47.5329 24.4293 47.3348 24.2294C46.604 23.5363 46.1015 22.6356 45.8943 21.648C45.7388 20.88 45.769 20.089 45.8007 19.3066L45.9073 16.6283C45.9121 16.1038 45.9651 15.581 46.0658 15.0664C46.5512 12.9347 48.7204 11.4509 50.8969 11.3569C51.5897 11.328 52.2811 11.4162 52.9711 11.4683C53.5316 11.5144 54.0944 11.5265 54.6564 11.5044C54.7204 11.508 54.7838 11.4913 54.8379 11.4567C54.8873 11.4077 54.9157 11.3413 54.9171 11.2716C54.9281 11.1473 54.9139 11.0221 54.8752 10.9035C54.8366 10.7849 54.7744 10.6755 54.6924 10.5818C54.6082 10.5074 54.5103 10.4504 54.4043 10.414L54.5599 10.4516C54.4834 10.3915 54.3971 10.345 54.3049 10.3142C54.8609 10.4458 55.4299 10.5832 55.9081 10.8927C56.045 10.983 56.1707 11.0893 56.2826 11.2094C56.5787 11.4703 56.771 11.8298 56.8242 12.2217C57.0734 11.9773 57.3125 11.7083 57.4003 11.3728C57.4335 11.2379 57.4335 11.097 57.4003 10.9621C57.4378 11.0093 57.4743 11.0575 57.5098 11.1067C57.5098 11.0923 57.5098 11.0778 57.4997 11.0633C57.9061 11.5707 58.1923 12.1641 58.3366 12.7988C58.391 12.7287 58.4312 12.6486 58.4546 12.563C58.4781 12.4774 58.4845 12.3879 58.4735 12.2998C58.5051 12.3982 58.5354 12.498 58.5628 12.5992C58.5757 12.5335 58.5791 12.4663 58.5728 12.3996C58.8223 13.1658 58.9349 13.9702 58.9056 14.7757C58.9056 15.5798 58.5512 16.8307 57.6928 17.1127C57.6495 17.1272 57.6035 17.1388 57.5574 17.1489C58.0394 17.9004 58.328 18.7603 58.3975 19.6515C58.467 20.5427 58.3152 21.4372 57.9555 22.2549C57.5959 23.0726 57.0398 23.788 56.3371 24.3368C55.6343 24.8856 54.8069 25.2507 53.929 25.3994C53.9155 25.4958 53.9021 25.5985 53.8886 25.7074H53.8541C53.831 25.9243 53.8123 26.1528 53.7979 26.3915C54.0139 26.6043 54.2503 26.7952 54.5037 26.9613C55.2233 27.3885 56.026 27.6553 56.8573 27.7436C57.8498 27.82 58.8147 28.108 59.6877 28.5882C60.7133 29.1667 61.8483 30.004 62.2012 31.0236C62.7947 32.7257 66.0558 35.3621 68.251 35.6904L69.0288 35.6456L69.085 35.6282V35.6427L69.2751 35.6311H69.2866H69.337V35.6427L69.5344 35.6311C69.5344 35.6311 69.5545 35.7222 69.5805 35.8842C70.6824 35.5053 73.0202 34.4496 76.0623 31.6787C79.453 28.5911 84.0292 29.1985 85.7937 29.5875C85.8538 29.6008 85.9083 29.6322 85.9502 29.6775C85.992 29.7227 86.0191 29.7797 86.0279 29.8408C86.0366 29.9019 86.0266 29.9642 85.9992 30.0195C85.9718 30.0748 85.9283 30.1203 85.8744 30.1501C85.1628 30.5435 84.0566 31.1147 83.5381 31.1783C83.5381 31.1783 84.6068 32.289 83.4718 32.8819C83.3358 32.9491 83.1839 32.977 83.0331 32.9624C82.8822 32.9479 82.7384 32.8915 82.6176 32.7995C82.0717 32.3989 80.5535 33.3071 78.3555 33.78C78.3555 33.78 72.1502 40.2271 69.072 41.225C69.0011 41.366 68.9227 41.5031 68.8372 41.6357L68.6471 41.6198L68.637 41.6357H68.6111L68.588 41.8382C68.588 41.8382 63.7987 41.5851 62.2502 39.8395C62.1395 39.7404 62.0378 39.6315 61.9463 39.5141L63.6114 60.5533H63.5956L63.6114 60.7528H62.3871C62.2804 63.3428 62.3903 65.9372 62.7155 68.5087V82.2186C62.7155 82.2186 62.7788 83.4261 60.2826 85.1832C57.6644 87.0128 55.1413 88.9759 52.7233 91.0649L52.4209 91.3281C52.8803 95.522 53.8411 103.343 54.642 103.635L54.1479 103.722C54.9992 104.799 57.3975 107.755 58.1306 107.838C59.028 107.938 59.6258 109.339 58.1306 109.64C56.7507 109.917 53.1641 110.279 49.2505 108.76C48.9676 108.65 48.7298 108.447 48.5752 108.185C48.4206 107.923 48.3581 107.616 48.3978 107.314L48.6859 105.104C48.6309 105.135 48.5867 105.182 48.5591 105.239C48.3603 105.839 48.5591 104.438 48.5591 104.438C47.7394 101.792 47.0956 99.0939 46.6318 96.3623L43.666 98.9263C43.666 98.9263 43.6055 98.8526 43.5033 98.7195C42.7831 100.374 41.4867 103.754 41.7748 106.232C42.1738 109.635 38.3855 106.633 38.7845 104.632C39.1071 103.012 37.6682 96.1511 37.1064 93.5914C37.0463 93.3167 37.0894 93.0294 37.2274 92.7846C37.3654 92.5399 37.5885 92.3549 37.854 92.2652Z" fill="url(#paint1_linear_73_257)"/>
<path d="M68.8041 36.7404C68.8041 36.7404 71.6273 36.2515 75.8117 32.4408C79.1246 29.4255 83.5899 30.0199 85.3184 30.3988C85.3796 30.408 85.4362 30.4368 85.4799 30.4808C85.5235 30.5249 85.5519 30.5818 85.5608 30.6433C85.5697 30.7048 85.5586 30.7676 85.5292 30.8222C85.4998 30.8769 85.4537 30.9206 85.3976 30.9469C84.7019 31.3302 83.6216 31.8884 83.116 31.952C83.116 31.952 84.1589 33.0367 83.0512 33.6166C82.9184 33.6821 82.77 33.7091 82.6228 33.6948C82.4755 33.6805 82.3351 33.6254 82.2172 33.5356C81.6842 33.1451 80.2006 34.0316 78.0558 34.493C78.0558 34.493 69.6856 43.1903 67.7396 41.7239L68.8041 36.7404Z" fill="#FEC3BE"/>
<path d="M54.3986 24.9221C54.3986 24.9221 53.6194 28.2483 54.3986 30.5897L50.8941 31.0785L47.7814 29.5094V27.4631C47.7814 27.4631 49.2419 24.3364 48.8516 20.7209L54.3986 24.9221Z" fill="#FEC3BE"/>
<path d="M44.4713 96.9422C44.4713 96.9422 41.9376 101.926 42.3308 105.248C42.7241 108.569 39.0179 105.638 39.4111 103.684C39.7266 102.104 38.3207 95.4034 37.7734 92.9044C37.7131 92.6342 37.7553 92.3512 37.8917 92.1106C38.028 91.8699 38.2488 91.6889 38.5108 91.6028C39.6819 91.2167 41.6394 90.7351 42.6247 91.4669C44.0824 92.5443 44.4713 96.9422 44.4713 96.9422Z" fill="#5A5773"/>
<path d="M54.1076 102.413C54.1076 102.413 57.4205 106.713 58.2934 106.811C59.1663 106.909 59.754 108.277 58.2934 108.569C56.9466 108.84 53.4435 109.194 49.6221 107.71C49.3455 107.603 49.1131 107.404 48.9621 107.148C48.8111 106.891 48.7504 106.591 48.7896 106.296L49.3384 102.12L54.1076 102.413Z" fill="#5A5773"/>
<path d="M59.5582 56.7787L62.7271 57.2039C62.7271 57.2039 61.9867 62.5432 62.7645 68.4075V81.7948C62.7645 81.7948 62.8264 82.9734 60.3893 84.6872C57.8329 86.4736 55.3695 88.3903 53.0086 90.43L44.176 98.1121C44.176 98.1121 40.6715 93.8126 41.1583 91.2717C41.1583 91.2717 46.9978 89.4148 47.777 86.385C48.2236 84.6496 50.4879 83.2034 52.3417 82.2851C54.7299 81.1006 56.032 78.4093 55.3781 75.8177C55.27 75.3781 55.1028 74.9553 54.8811 74.561C53.3241 71.8248 51.0857 65.6684 51.0857 65.6684L55.368 57.4598L59.5582 56.7787Z" fill="#605D82"/>
<path opacity="0.05" d="M59.5725 56.7787L62.7414 57.2039C62.7414 57.2039 62.0011 62.5432 62.7789 68.4075V81.7948C62.7789 81.7948 62.8408 82.9734 60.4037 84.6872C57.8492 86.4747 55.3877 88.3924 53.0287 90.4329L44.1961 98.115C44.1961 98.115 40.6916 93.8155 41.1785 91.2746C41.1785 91.2746 47.0179 89.4177 47.7972 86.3879C48.2437 84.6525 50.508 83.2063 52.3618 82.288C54.75 81.1035 56.0522 78.4122 55.3982 75.8206C55.2902 75.381 55.123 74.9582 54.9013 74.5639C53.3442 71.8277 51.1058 65.6713 51.1058 65.6713L55.3881 57.4627L59.5725 56.7787Z" fill="black"/>
<path d="M54.8854 102.707C54.8854 102.707 49.1396 103.684 48.948 104.277C48.7565 104.87 48.948 103.495 48.948 103.495C48.948 103.495 45.6351 93.4294 46.4172 84.5368C47.1994 75.6442 45.4435 69.7857 45.4435 69.7857C45.4435 69.7857 43.3996 63.1405 44.5677 59.3298C45.7359 55.5191 57.9996 57.1793 57.9996 57.1793C57.9996 57.1793 53.7172 67.2346 53.8152 72.0273C53.8152 72.0273 53.3283 86.4891 52.4526 88.1508C52.4526 88.1465 53.8152 102.316 54.8854 102.707Z" fill="#605D82"/>
<path d="M54.2041 27.4631C54.2041 27.4631 53.6208 31.0785 47.7799 29.5152L51.669 59.2213C51.669 59.2213 62.959 59.6118 62.8625 58.2437L60.5304 40.2647L54.2041 27.4631Z" fill="white"/>
<path opacity="0.1" d="M54.0586 27.2678C54.0586 27.2678 55.1648 28.4595 56.8702 28.6084C57.8391 28.6836 58.7809 28.9651 59.633 29.4342C60.6412 29.9968 61.7403 30.8153 62.0817 31.8132C62.763 33.767 67.0453 36.992 68.9956 36.3079L68.3143 42.1708C68.3143 42.1708 62.7673 41.8815 61.7936 39.7282L63.4486 60.64H61.9909C61.9909 60.64 61.2116 54.9724 60.6283 53.7995C60.0449 52.6267 58.8767 46.1781 58.7788 44.6134C58.6808 43.0486 57.2217 34.0562 55.9556 32.4958L54.0571 27.8535L54.0586 27.2678Z" fill="black"/>
<path opacity="0.1" d="M54.0586 27.5614C54.0586 27.5614 55.3549 28.6562 57.0647 28.8037C58.0336 28.8788 58.9754 29.1603 59.8274 29.6294C60.8357 30.192 61.9347 31.0106 62.2761 32.0084C62.9574 33.9622 67.2398 37.1872 69.1901 36.5032L68.5088 42.366C68.5088 42.366 62.9618 42.0768 61.988 39.9234L63.6445 60.8338H62.1854C62.1854 60.8338 61.4061 55.1662 60.8227 53.9933C60.2394 52.8205 59.0712 46.3719 58.9733 44.8072C58.8753 43.2424 57.4162 34.25 56.15 32.6896L54.0571 28.1457L54.0586 27.5614Z" fill="black"/>
<path d="M54.0586 27.3661C54.0586 27.3661 55.3549 28.4609 57.0647 28.6084C58.0336 28.6835 58.9754 28.965 59.8274 29.4342C60.8357 29.9968 61.9347 30.8153 62.2761 31.8132C62.9574 33.767 67.2398 36.992 69.1901 36.3079L68.5088 42.1708C68.5088 42.1708 62.9618 41.8815 61.988 39.7281L63.6431 60.64H62.1854C62.1854 60.64 61.4061 54.9724 60.8227 53.7995C60.2394 52.6267 59.0712 46.1781 58.9733 44.6134C58.8753 43.0486 57.4162 34.0562 56.15 32.4958L54.0571 27.9519L54.0586 27.3661Z" fill="#67647E"/>
<path opacity="0.1" d="M49.095 23.6032C49.2217 22.6776 48.9682 22.0991 48.8516 21.0131L54.3986 25.2157C54.3986 25.2157 54.2661 25.784 54.1652 26.6141C53.8885 26.659 53.6087 26.6817 53.3284 26.6821C51.3924 26.6821 50.0039 25.1708 49.095 23.6032Z" fill="black"/>
<path d="M53.3283 26.39C56.2312 26.39 58.5844 24.0274 58.5844 21.1129C58.5844 18.1984 56.2312 15.8358 53.3283 15.8358C50.4255 15.8358 48.0723 18.1984 48.0723 21.1129C48.0723 24.0274 50.4255 26.39 53.3283 26.39Z" fill="#FEC3BE"/>
<path opacity="0.1" d="M59.0641 15.9399C59.095 15.049 58.9481 14.161 58.6319 13.3281C58.7173 13.4586 58.753 13.6155 58.7326 13.7703C58.7123 13.9251 58.6372 14.0674 58.521 14.1712C58.3528 13.2641 57.8904 12.4383 57.2059 11.8226C57.5804 11.8833 57.772 12.3504 57.6813 12.7207C57.5905 13.0909 57.3053 13.3758 57.0316 13.639C57.0633 13.0793 56.696 12.5587 56.2293 12.2506C55.7626 11.9426 55.2066 11.8168 54.6636 11.6808C54.8524 11.7482 55.0137 11.8763 55.1223 12.0453C55.231 12.2143 55.2809 12.4146 55.2643 12.6151C55.2629 12.6832 55.235 12.7481 55.1865 12.7959C55.1339 12.8301 55.0719 12.8468 55.0093 12.8436C54.4608 12.8653 53.9115 12.8537 53.3644 12.8089C52.692 12.7329 52.0157 12.6966 51.3391 12.7004C49.2131 12.7901 47.0957 14.2406 46.6218 16.3159C46.5237 16.8181 46.4722 17.3284 46.4677 17.8402L46.364 20.4549C46.3337 21.2184 46.3035 21.9922 46.4561 22.7413C46.6016 23.4404 46.8993 24.0986 47.3279 24.6686C47.7565 25.2387 48.3053 25.7065 48.9351 26.0386C49.6985 24.9279 49.7662 23.5005 50.0312 22.1773C50.0724 21.8706 50.1854 21.5782 50.3611 21.324C50.5527 21.0839 50.8897 20.9321 51.1749 21.0463C51.4601 21.1606 51.584 21.5988 51.3463 21.794C51.5509 22.0442 51.9542 21.8577 52.189 21.6349C52.8571 20.9991 53.3172 20.1746 53.5084 19.2704C53.6035 18.8149 53.6985 18.2581 54.1364 18.1005C54.2897 18.0581 54.4499 18.0473 54.6074 18.0686C55.5336 18.1323 56.9827 18.517 57.8815 18.2219C58.7184 17.9399 59.0641 16.7237 59.0641 15.9399Z" fill="black"/>
<path d="M58.9675 15.8415C58.9985 14.9507 58.8515 14.0626 58.5354 13.2297C58.6207 13.3602 58.6564 13.5172 58.6361 13.672C58.6157 13.8267 58.5406 13.969 58.4245 14.0728C58.2568 13.1647 57.7944 12.3378 57.1094 11.7213C57.4839 11.7821 57.6755 12.2492 57.5847 12.6194C57.494 12.9896 57.2088 13.2745 56.9351 13.5377C56.9668 12.9781 56.5995 12.4574 56.1328 12.1494C55.6661 11.8413 55.1101 11.7155 54.567 11.5796C54.7558 11.6469 54.9171 11.775 55.0258 11.944C55.1344 12.113 55.1843 12.3134 55.1677 12.5138C55.1663 12.582 55.1384 12.6469 55.0899 12.6946C55.0373 12.7288 54.9753 12.7455 54.9127 12.7423C54.3642 12.764 53.8149 12.7525 53.2678 12.7076C52.5954 12.6316 51.9192 12.5954 51.2426 12.5992C49.1165 12.6888 46.9991 14.1393 46.5252 16.2146C46.4272 16.7169 46.3756 17.2271 46.3711 17.7389L46.2674 20.3536C46.2371 21.1172 46.2069 21.8909 46.3596 22.64C46.5062 23.3376 46.8045 23.994 47.233 24.5625C47.6615 25.131 48.2097 25.5975 48.8385 25.9286C49.6019 24.818 49.6696 23.3906 49.9347 22.0673C49.9758 21.7607 50.0888 21.4683 50.2645 21.2141C50.4561 20.974 50.7932 20.8222 51.0784 20.9364C51.3636 21.0507 51.4874 21.4889 51.2498 21.6841C51.4543 21.9343 51.8576 21.7477 52.0924 21.525C52.7605 20.8891 53.2206 20.0646 53.4118 19.1605C53.5069 18.7049 53.602 18.1482 54.0399 17.9905C54.1931 17.9482 54.3533 17.9374 54.5109 17.9587C55.4371 18.0223 56.8861 18.407 57.7849 18.112C58.6204 17.8488 58.9675 16.6268 58.9675 15.8415Z" fill="#916168"/>
<path opacity="0.1" d="M69.4365 36.3065C69.4365 36.3065 70.2157 39.922 68.7551 42.1694L67.9283 42.1014L68.3792 36.3673L69.4365 36.3065Z" fill="black"/>
<path d="M69.242 36.3065C69.242 36.3065 70.0213 39.922 68.5607 42.1694L67.7339 42.1014L68.1847 36.3673L69.242 36.3065Z" fill="#FD6F8D"/>
<path opacity="0.1" d="M48.3157 26.4377L42.0384 31.8609C42.0384 31.8609 38.3366 35.6716 39.8965 41.8281C39.8965 41.8281 40.5779 50.8175 41.3571 51.2095C41.3571 51.2095 44.0824 56.6818 44.2768 61.8606C44.2768 61.8606 47.9268 54.4851 49.5819 58.9784C51.2369 63.4717 55.0814 64.108 55.0814 64.108L52.9395 37.5285C52.9395 37.5285 47.5379 28.098 48.3157 26.4377Z" fill="black"/>
<path d="M48.1212 26.4377L41.8439 31.8609C41.8439 31.8609 38.1449 35.6716 39.702 41.8281C39.702 41.8281 40.3833 50.8175 41.1626 51.2095C41.1626 51.2095 43.8879 56.6818 44.0823 61.8606C44.0823 61.8606 47.9268 54.0917 49.5818 58.5865C51.2368 63.0812 54.8868 64.108 54.8868 64.108L52.7406 37.5285C52.7406 37.5285 47.342 28.098 48.1212 26.4377Z" fill="#67647E"/>
<path d="M45.2505 49.3525C45.2505 49.3525 43.6934 48.278 41.1626 51.2094L47.3909 62.5446L49.4839 59.363C49.4839 59.363 45.056 50.6237 45.2505 49.3525Z" fill="#FEC3BE"/>
<path opacity="0.1" d="M46.7586 49.9874C46.7586 49.9874 43.3146 53.8719 41.9707 53.2486L40.7262 50.3345L45.3946 48.3257L46.7586 49.9874Z" fill="black"/>
<path d="M46.7586 49.7922C46.7586 49.7922 43.3146 53.6766 41.9707 53.0533L40.7262 50.145L45.3946 48.1305L46.7586 49.7922Z" fill="#FD6F8D"/>
<path opacity="0.1" d="M49.2736 58.6327C49.2736 58.6327 47.6344 62.0066 46.7587 62.2033L48.0233 63.6698L49.8728 60.1512L49.2736 58.6327Z" fill="black"/>
<path d="M49.3715 58.7296C49.3715 58.7296 47.7323 62.1036 46.8566 62.3002L48.1212 63.7667L49.9707 60.2481L49.3715 58.7296Z" fill="#4D4981"/>
<path opacity="0.1" d="M46.2717 37.8698C46.2717 37.8698 46.0773 44.9055 46.8551 47.5434L46.2717 37.8698Z" fill="black"/>
<path opacity="0.1" d="M62.04 39.2379C62.04 39.2379 60.8718 38.8474 60.8718 37.8698L62.04 39.2379Z" fill="black"/>
<path d="M85.5697 32.0282L77.4062 30.7036L77.312 31.289L85.4755 32.6135L85.5697 32.0282Z" fill="#40414D"/>
<path d="M88.2482 32.7547C88.2482 32.7547 87.4027 33.3331 86.5903 33.4373C86.4417 33.4586 86.2909 33.4586 86.1423 33.4373C85.3976 33.3172 85.0116 32.9513 84.941 32.5218C84.9133 32.3239 84.9459 32.1223 85.0346 31.9434C85.2363 31.5572 85.7174 31.3331 86.4621 31.4545C86.6894 31.498 86.9064 31.5844 87.1016 31.7091C87.539 31.9912 87.9265 32.3446 88.2482 32.7547Z" fill="#40414D"/>
<path d="M88.2483 32.7547C88.2483 32.7547 87.4028 33.3331 86.5904 33.4373C86.5652 33.3473 86.5713 33.2514 86.6077 33.1654C86.6864 33.0429 86.7781 32.9295 86.8813 32.827C86.9663 32.7084 86.9894 32.5117 86.8641 32.4394C86.8343 32.4268 86.8058 32.4113 86.7791 32.3931C86.7042 32.3252 86.7791 32.2037 86.8424 32.1314C86.9634 32.0084 87.1017 31.8624 87.1003 31.6975C87.5391 31.983 87.9272 32.3403 88.2483 32.7547Z" fill="#F8BDC5"/>
</g>
<defs>
<linearGradient id="paint0_linear_73_257" x1="92.6141" y1="110.617" x2="92.6141" y2="19.363" gradientUnits="userSpaceOnUse">
<stop stop-color="#808080" stop-opacity="0.25"/>
<stop offset="0.54" stop-color="#808080" stop-opacity="0.12"/>
<stop offset="1" stop-color="#808080" stop-opacity="0.1"/>
</linearGradient>
<linearGradient id="paint1_linear_73_257" x1="61.5487" y1="109.887" x2="61.5487" y2="10.3142" gradientUnits="userSpaceOnUse">
<stop stop-color="#808080" stop-opacity="0.25"/>
<stop offset="0.54" stop-color="#808080" stop-opacity="0.12"/>
<stop offset="1" stop-color="#808080" stop-opacity="0.1"/>
</linearGradient>
<clipPath id="clip0_73_257">
<rect width="134" height="116" fill="white"/>
</clipPath>
</defs>
</svg>
