<svg width="134" height="116" viewBox="0 0 134 116" fill="none" xmlns="http://www.w3.org/2000/svg">
<g clip-path="url(#clip0_73_332)">
<path d="M63.1118 50.4427C62.4356 49.0696 62.6901 47.6321 63.68 47.2319C64.6699 46.8317 66.0202 47.6205 66.6964 48.9941C66.975 49.5394 67.1017 50.1387 67.0657 50.7419L69.8474 56.5934L66.7101 57.751L64.3008 51.8596C63.7812 51.4809 63.3735 50.995 63.1118 50.4427Z" fill="#FFAFAF"/>
<path d="M82.3363 52.9272C84.0323 54.3972 83.9261 56.9052 82.1109 58.2496L73.2222 64.8329C72.2522 65.5514 70.8124 65.2976 70.2004 64.3001C67.8645 60.8238 67.4242 60.6332 66.0665 57.0704L69.8951 55.8394L72.0538 58.3241L76.7669 53.2132C78.1913 51.6686 80.7337 51.538 82.3363 52.9272Z" fill="#FFB163"/>
<path d="M48.0176 44.038V41.4476H20.0928V44.038H48.0176Z" fill="#DFDFDF"/>
<path d="M118.726 44.038V41.4476H90.8014V44.038H118.726Z" fill="#DFDFDF"/>
<path d="M35.562 32.5004H30.7879C28.9363 32.5004 27.4353 33.8802 27.4353 35.5822V51.7891C27.4353 53.4911 28.9363 54.8709 30.7879 54.8709H35.562C37.4136 54.8709 38.9146 53.4911 38.9146 51.7891V35.5822C38.9146 33.8802 37.4136 32.5004 35.562 32.5004Z" fill="#3F3D56"/>
<path d="M110.866 32.5004H106.092C104.24 32.5004 102.74 33.8802 102.74 35.5822V51.7891C102.74 53.4911 104.24 54.8709 106.092 54.8709H110.866C112.718 54.8709 114.219 53.4911 114.219 51.7891V35.5822C114.219 33.8802 112.718 32.5004 110.866 32.5004Z" fill="#3F3D56"/>
<path d="M107.84 49.3838H34.9284C32.3936 49.3838 30.2246 47.7198 29.7711 45.4274L26.9828 31.3302C25.7702 25.1995 28.2827 18.9534 33.5412 15.0229L39.0393 4.14912C40.3137 1.62857 43.091 0 46.1147 0H87.1862C89.3696 0 91.4674 0.849114 92.9417 2.32971L103.045 12.4764C110.436 17.0548 114.629 24.9732 113.989 33.1455L113.069 44.9111C112.872 47.4191 110.576 49.3838 107.84 49.3838Z" fill="#DFDFDF"/>
<path d="M95.3968 14.0343H40.3111C39.3544 14.0343 38.4716 13.5942 37.9496 12.8574C37.4276 12.1204 37.3469 11.2002 37.7339 10.396L40.6374 4.36177C41.0793 3.44341 42.0705 2.8381 43.1624 2.81976L90.1214 2.87232C91.0155 2.86696 91.8693 3.2369 92.4115 3.88796L97.6347 9.86968C98.2911 10.6582 98.4017 11.7008 97.9234 12.5912C97.4451 13.4813 96.4769 14.0343 95.3968 14.0343Z" fill="white"/>
<path d="M103.658 29.9679C106.321 29.9679 108.479 27.9837 108.479 25.5361C108.479 23.0884 106.321 21.1042 103.658 21.1042C100.995 21.1042 98.8365 23.0884 98.8365 25.5361C98.8365 27.9837 100.995 29.9679 103.658 29.9679Z" fill="white"/>
<path d="M40.2921 29.9679C42.9549 29.9679 45.1134 27.9837 45.1134 25.5361C45.1134 23.0884 42.9549 21.1042 40.2921 21.1042C37.6294 21.1042 35.4708 23.0884 35.4708 25.5361C35.4708 27.9837 37.6294 29.9679 40.2921 29.9679Z" fill="white"/>
<path d="M98.9514 42.1029H46.3762V41.9974C46.3762 39.4954 48.5905 37.46 51.3123 37.46H94.0153C96.7371 37.46 98.9514 39.4954 98.9514 41.9974V42.1029Z" fill="#3F3D56"/>
<path d="M34.3139 15.9524C34.0294 15.9524 33.7443 15.8691 33.505 15.701L31.58 14.3482C31.3889 14.2138 31.1511 14.1398 30.9103 14.1398H26.7065C26.2256 14.1398 25.7945 13.9114 25.5536 13.5287C25.3126 13.1462 25.3117 12.6889 25.5511 12.3055L26.5774 10.6621C26.7824 10.3338 27.1484 10.1079 27.5567 10.0579L32.8162 9.41319C33.4718 9.33323 34.082 9.6974 34.2696 10.2794L35.5915 14.3803C35.7371 14.8319 35.5844 15.3265 35.2026 15.6408C34.951 15.8477 34.6329 15.9524 34.3139 15.9524Z" fill="#DFDFDF"/>
<path d="M102.519 15.1082C102.2 15.1082 101.882 15.0035 101.63 14.7966C101.248 14.4823 101.096 13.9877 101.241 13.5361L102.563 9.43522C102.751 8.8528 103.362 8.48739 104.017 8.56921L109.276 9.21367C109.684 9.26375 110.05 9.48963 110.255 9.81794L111.282 11.4613C111.521 11.8447 111.52 12.302 111.279 12.6845C111.038 13.0672 110.607 13.2956 110.126 13.2956H105.922C105.682 13.2956 105.444 13.3696 105.253 13.504L103.328 14.8568C103.089 15.025 102.803 15.1082 102.519 15.1082Z" fill="#DFDFDF"/>
<path d="M22.9109 8.0069H20.0928V114.216H22.9109V8.0069Z" fill="#DFDFDF"/>
<path d="M120.263 8.0069H117.445V114.216H120.263V8.0069Z" fill="#DFDFDF"/>
<path d="M0 114.32C0 114.4 0.0705318 114.465 0.158364 114.465H133.842C133.929 114.465 134 114.4 134 114.32C134 114.239 133.929 114.174 133.842 114.174H0.158364C0.0705318 114.174 0 114.239 0 114.32Z" fill="#3F3D56"/>
<path d="M88.2679 106.286V111.096L92.225 111.214L92.0601 106.286H88.2679Z" fill="#FFAFAF"/>
<path d="M87.4848 108.962C87.4314 108.962 87.379 108.969 87.3282 108.982C86.614 109.17 82.4802 112.562 81.2303 113.597C81.0759 113.725 80.9938 113.908 81.0052 114.098C81.0164 114.288 81.1191 114.461 81.2868 114.572C82.2348 115.199 84.1768 116.192 86.5331 115.791C87.617 115.606 88.7108 115.49 89.6759 115.388C91.7419 115.168 93.3738 114.995 93.3738 114.323C93.3738 113.182 93.0325 110.176 92.6041 110.05C92.5652 110.039 92.5203 110.066 92.4684 110.133C91.8131 110.976 89.5622 110.528 89.4667 110.508L89.4417 110.503L89.4275 110.484C89.4157 110.467 88.3137 108.962 87.4848 108.962Z" fill="#2F2E41"/>
<path d="M80.8645 106.286V111.096L84.8215 111.214L84.6567 106.286H80.8645Z" fill="#FFAFAF"/>
<path d="M79.2689 71.8475L77.1627 73.3142L76.7798 89.8585L80.3539 107.928L85.013 108.104L85.1406 90.8559L91.14 75.1329L89.9273 71.4368L79.2689 71.8475Z" fill="#2F2E41"/>
<path d="M89.0976 74.6636L91.1399 75.1329L92.6079 107.928L87.3106 107.518L83.8003 84.3438L89.0976 74.6636Z" fill="#2F2E41"/>
<path d="M78.0393 116C76.2235 116 74.7481 115.262 73.9602 114.765C73.7221 114.614 73.5747 114.376 73.5559 114.11C73.5368 113.842 73.6505 113.585 73.8678 113.406C75.8235 111.788 79.2066 109.049 79.8896 108.869C80.7748 108.636 81.9627 110.192 82.1155 110.398C82.3628 110.445 84.3892 110.801 84.961 110.065C85.0701 109.925 85.1724 109.918 85.2396 109.938C85.8507 110.118 86.098 113.734 86.098 114.323C86.098 115.1 84.4996 115.27 82.2872 115.504C81.3241 115.607 80.2325 115.722 79.1529 115.906C78.7702 115.971 78.3981 116 78.0393 116Z" fill="#2F2E41"/>
<path d="M83.6454 50.4186L85.0993 53.1111L79.6042 55.5506L79.6716 51.2343L83.6454 50.4186Z" fill="#FFAFAF"/>
<path d="M79.6239 52.4554C82.3546 52.4554 84.5684 50.4205 84.5684 47.9103C84.5684 45.4 82.3546 43.3651 79.6239 43.3651C76.8931 43.3651 74.6793 45.4 74.6793 47.9103C74.6793 50.4205 76.8931 52.4554 79.6239 52.4554Z" fill="#FFAFAF"/>
<path d="M79.5905 54.501L84.6604 51.7471C88.3789 54.1442 91.4754 54.705 91.5739 58.8789L90.8886 68.8353L90.9288 73.1232C90.9457 74.9233 89.3629 76.3908 87.4046 76.3908H80.165C78.2491 76.3908 76.8217 74.766 77.2251 73.0443L78.5919 67.2112L77.1323 55.8426L79.5905 54.501Z" fill="#FFB163"/>
<path d="M84.7085 50.1972L83.7943 50.7992C83.7943 50.7992 83.5253 48.1753 83.1541 48.0589C82.783 47.9424 82.2822 48.5472 82.2822 48.5472L81.9165 49.5322L80.7072 49.0689C80.7072 49.0689 79.307 48.3757 78.8121 48.2204C78.3172 48.0651 78.3922 46.747 78.3922 46.747C78.3922 46.747 72.4512 47.4947 73.3438 44.3464C73.3438 44.3464 73.6512 42.0303 74.3091 42.4906C74.9669 42.9509 74.9758 41.811 74.9758 41.811L76.4663 41.5167C76.4663 41.5167 78.5117 38.984 82.5464 41.1386C86.5811 43.2931 84.7085 50.1972 84.7085 50.1972Z" fill="#2F2E41"/>
<path d="M74.3895 60.2578L73.0538 60.0707C72.6808 60.0185 72.4221 59.6952 72.4789 59.3524L72.6422 58.3674C72.1574 58.6428 71.8016 59.1038 71.709 59.6622C71.5662 60.5239 72.0958 61.3353 72.9363 61.6513L71.7675 68.7033C71.7646 68.721 71.7652 68.7383 71.7647 68.7558C70.8574 68.8251 70.0859 69.4557 69.9428 70.3193C69.8589 70.8254 70.0068 71.3148 70.3133 71.6966L70.4604 70.8094C70.5172 70.4666 70.8689 70.2288 71.2418 70.281L72.5776 70.4681C72.9505 70.5203 73.2092 70.8436 73.1524 71.1864L72.9891 72.1714C73.474 71.896 73.8298 71.435 73.9223 70.8766C74.0654 70.013 73.5332 69.1998 72.6896 68.8853C72.6947 68.8685 72.7009 68.8521 72.7039 68.8344L73.8726 61.7825C74.7773 61.7109 75.5457 61.0812 75.6885 60.2195C75.7724 59.7134 75.6245 59.224 75.318 58.8422L75.171 59.7294C75.1141 60.0722 74.7625 60.31 74.3895 60.2578Z" fill="#3F3D56"/>
<path d="M71.9016 66.3936C70.2987 66.0764 69.193 65.0332 69.432 64.0637C69.671 63.0943 71.164 62.5658 72.7674 62.8833C73.41 63.0019 74.0094 63.2648 74.5154 63.6503L81.287 65.076L80.4328 68.0828L73.848 66.3581C73.2076 66.5167 72.5402 66.5289 71.9016 66.3936Z" fill="#FFAFAF"/>
<path d="M85.5108 53.6673C87.8051 53.2887 89.9351 54.8592 90.0308 57.0001L90.4995 67.4842C90.5506 68.6284 89.4722 69.5411 88.2359 69.3999C83.8065 69.0578 84.1176 69.4749 80.1946 68.3585L80.4573 64.5263L84.1129 64.4754L82.4476 57.9525C81.9443 55.9811 83.3426 54.025 85.5108 53.6673Z" fill="#FFB163"/>
</g>
<defs>
<clipPath id="clip0_73_332">
<rect width="134" height="116" fill="white"/>
</clipPath>
</defs>
</svg>
