<svg width="134" height="116" viewBox="0 0 134 116" fill="none" xmlns="http://www.w3.org/2000/svg">
<g clip-path="url(#clip0_73_216)">
<path opacity="0.1" d="M134 80.1891C134.009 75.5053 133.206 70.8871 131.656 66.7239C130.107 62.5608 127.858 58.9749 125.098 56.2687C125.174 55.2569 125.213 54.2404 125.215 53.2231C125.215 37.1366 115.933 24.0957 104.483 24.0957C100.956 24.0905 97.4896 25.3505 94.4196 27.753C86.3152 20.3669 75.7346 15.8967 64.1595 15.8967C45.3257 15.8967 29.1251 27.7336 21.9378 44.706C21.5384 44.6736 21.1366 44.6557 20.7313 44.6557C9.28277 44.6557 -0.00117916 57.6966 -0.00117916 73.7831C-0.00930971 79.4664 1.17622 85.0303 3.4109 89.7966C3.4109 104.27 13.2723 116.002 25.4319 116.002H113.647C123.198 116.002 130.94 106.79 130.94 95.4254C132.949 90.8313 134.008 85.5604 134 80.1891Z" fill="#FFB163"/>
<path d="M97.054 26.6318C96.1708 27.1478 95.2853 27.6654 94.463 28.3469C94.0894 28.6552 93.7309 28.996 93.3467 29.2767C92.9332 29.5817 92.494 29.8121 92.0583 30.0588C90.8558 30.7391 89.688 31.5317 88.563 32.431C88.6602 30.6867 88.4763 28.7915 87.7232 27.4318C87.6125 27.2303 87.4895 27.0424 87.3554 26.8703C86.8224 26.1856 86.0669 26.0087 85.5433 25.41C85.8619 24.6344 86.5694 23.9302 87.0508 23.3379C87.5709 22.7008 88.1105 22.0966 88.6696 21.5255C89.7871 20.3823 90.977 19.3814 92.2246 18.535C93.0164 17.9979 93.8434 17.5177 94.7172 17.3538C94.8273 17.3194 94.9423 17.3336 95.0463 17.3943C95.1822 17.4982 95.2314 17.7318 95.2642 17.9412C95.427 18.9877 95.5102 20.0619 95.646 21.1166C95.7126 21.6586 95.803 22.1945 95.9166 22.7213C96.0626 23.3444 96.2311 23.9569 96.4215 24.5565C96.6331 25.2477 96.8439 25.9395 97.054 26.6318Z" fill="#FBBEBE"/>
<path d="M71.9864 56.2086C71.9861 58.3626 71.4947 60.4613 70.5822 62.2054C69.6698 63.9495 68.383 65.2498 66.9054 65.9207C65.4279 66.5915 63.8351 66.5987 62.3544 65.9412C60.8737 65.2837 59.5808 63.9951 58.6602 62.2593C57.7286 60.506 57.2266 58.3856 57.2277 56.2086C57.2277 53.4975 58.0051 50.8974 59.389 48.9803C60.7729 47.0632 62.6499 45.9862 64.607 45.9862C66.5642 45.9862 68.4411 47.0632 69.825 48.9803C71.2089 50.8974 71.9864 53.4975 71.9864 56.2086Z" fill="#BE6F72"/>
<path d="M61.9632 65.2174C62.358 66.1601 62.7562 67.111 63.0092 68.1381C63.2622 69.1652 63.3606 70.3026 63.1521 71.3524C65.6658 69.5189 68.6574 69.6665 71.4241 68.7384C71.4981 68.7267 71.5662 68.6769 71.615 68.5989C71.6318 68.5457 71.6405 68.4882 71.6405 68.4301C71.6405 68.372 71.6318 68.3146 71.615 68.2614C71.0358 65.2923 70.813 62.2115 70.9555 59.1423L69.5113 60.3252C68.8791 60.8662 68.2239 61.3538 67.5493 61.7856C66.5947 62.3648 65.5815 62.7153 64.5847 63.121C63.7952 63.4455 62.228 63.8657 61.7313 64.8215C61.8209 64.9386 61.8989 65.0718 61.9632 65.2174Z" fill="#BE6F72"/>
<path d="M57.8976 51.4706C57.4174 51.7383 56.8528 52.0466 56.4112 51.6718C56.0867 51.3944 55.9532 50.8183 55.9731 50.291C55.993 49.7636 56.1383 49.2639 56.2531 48.7609C56.4873 47.7273 56.6138 46.6515 56.875 45.6227C57.1363 44.594 57.5626 43.6026 58.2396 43.059C59.4859 42.0595 61.0989 42.8854 62.4822 42.3321C63.0679 42.1001 63.5774 41.6328 64.1221 41.2661C64.6667 40.8993 65.2793 40.617 65.8673 40.8133C66.5561 41.0356 67.0644 41.8388 67.7063 42.2477C68.4091 42.6956 69.2501 42.6647 69.8897 43.2635C70.343 43.6886 70.6288 44.375 70.883 45.0483C71.6962 47.2125 72.3383 49.4919 72.7981 51.8471C72.982 52.6904 73.0871 53.5629 73.1108 54.4432C73.1167 55.5693 72.8965 56.6727 72.6786 57.7598L72.3272 59.4798C72.1972 60.1288 72.0637 60.7779 71.8177 61.3653C71.5717 61.9526 71.1922 62.4475 70.7225 62.6179C70.1368 62.8272 69.4551 62.4216 69.1998 61.6622C69.0428 61.1916 69.0498 60.6529 69.0416 60.1353C69.0287 59.1216 68.9503 58.1116 68.8074 57.1173C68.7347 56.6191 68.6375 56.1015 68.3927 55.7251C68.0765 55.2383 67.5728 55.076 67.1043 55.0647C66.5561 55.0549 65.9552 55.261 65.6354 55.876C65.3789 56.3725 65.3344 57.0702 64.9935 57.458C64.842 57.619 64.6619 57.7205 64.4723 57.7517C64.0856 57.8185 63.6939 57.7037 63.3599 57.4257C63.0259 57.1477 62.7688 56.7226 62.6298 56.2184C62.522 55.79 62.4693 55.2578 62.1765 55.0566C62.0242 54.9511 61.8427 54.9706 61.6798 54.9024C61.1809 54.6931 61.0497 53.8169 61.004 53.0981C60.9513 52.2559 61.1539 50.5928 60.3984 50.536C59.5843 50.4743 58.6461 51.125 57.8976 51.4706Z" fill="#3F3D56"/>
<path d="M59.6675 62.5514C59.4074 62.725 59.1228 62.9278 59.0209 63.301C58.9811 63.4471 58.974 63.6077 58.9377 63.757C58.7726 64.4174 58.1283 64.5472 57.7957 65.0729C57.6456 65.3387 57.5447 65.6511 57.5017 65.9832C57.2795 67.2927 57.3514 68.665 57.7078 69.9164C57.8111 70.3129 57.9704 70.677 58.1764 70.9873C58.7714 71.8278 59.7975 71.8116 60.5389 71.2388C61.2804 70.666 61.7923 69.6616 62.2268 68.6426C62.4572 68.1298 62.6499 67.5862 62.8019 67.02C62.9356 66.4443 63.0309 65.8528 63.0866 65.253C63.3466 62.9148 63.6863 60.3219 63.5692 57.9513C63.2178 57.9205 62.5466 57.8864 62.2362 58.1914C61.8473 58.5744 61.9551 59.3467 61.8145 59.9065C61.4818 61.2533 60.5167 61.964 59.6675 62.5514Z" fill="#3F3D56"/>
<path d="M59.972 62.8613C59.5327 62.8986 58.7456 62.2252 58.3052 62.2593C58.0055 61.5346 57.7406 60.7833 57.5122 60.0104C57.7465 59.5447 58.1236 59.4311 58.6941 60.0104C59.1521 60.4566 59.7846 61.9997 59.972 62.8613Z" fill="#3F3D56"/>
<path d="M66.5936 37.2242C66.1168 37.573 65.8217 37.5892 65.5862 37.5195C65.3508 37.4497 64.8834 37.7742 64.8834 37.7742C60.7545 39.7311 60.5917 40.6543 60.5917 40.6543L65.3719 38.3162C66.2914 37.758 66.3089 37.9543 66.3089 37.9543C67.0117 38.8695 67.9066 38.2496 67.9066 38.2496C67.9066 38.2496 69.1447 37.4383 68.7804 36.6579C68.4162 35.8774 67.0715 36.8818 66.5936 37.2242ZM68.5848 37.0781C68.5848 37.0781 68.2334 38.3762 66.9696 38.1653C66.9696 38.1653 66.3488 38.0387 66.6111 37.3978C66.6111 37.3978 67.8996 36.6481 68.2405 36.7017C68.5813 36.7552 68.5813 37.0846 68.5813 37.0846L68.5848 37.0781Z" fill="#E8E8F0"/>
<path opacity="0.1" d="M66.5936 37.2242C66.1168 37.573 65.8217 37.5892 65.5862 37.5195C65.3508 37.4497 64.8834 37.7742 64.8834 37.7742C60.7545 39.7311 60.5917 40.6543 60.5917 40.6543L65.3719 38.3162C66.2914 37.758 66.3089 37.9543 66.3089 37.9543C67.0117 38.8695 67.9066 38.2496 67.9066 38.2496C67.9066 38.2496 69.1447 37.4383 68.7804 36.6579C68.4162 35.8774 67.0715 36.8818 66.5936 37.2242ZM68.5848 37.0781C68.5848 37.0781 68.2334 38.3762 66.9696 38.1653C66.9696 38.1653 66.3488 38.0387 66.6111 37.3978C66.6111 37.3978 67.8996 36.6481 68.2405 36.7017C68.5813 36.7552 68.5813 37.0846 68.5813 37.0846L68.5848 37.0781Z" fill="black"/>
<path d="M66.856 33.6058C66.1415 33.6382 65.9927 34.3781 65.9927 34.3781C65.8497 34.6146 65.7659 34.9089 65.7538 35.217C65.7418 35.5251 65.8022 35.8302 65.9259 36.0867L64.6574 37.8343C64.417 37.9627 64.2104 38.189 64.0647 38.4833C64.0647 38.4833 61.2793 41.8908 61.3203 42.2007C61.3203 42.2007 61.7747 42.5252 64.6574 38.8857L65.4141 37.9576C65.4141 37.9576 65.5816 36.223 66.7634 35.8936C66.7634 35.8936 66.8806 35.965 66.9426 35.5788C67.0089 35.3936 67.0972 35.2252 67.2039 35.0807C67.3608 34.8795 67.5705 33.5717 66.856 33.6058ZM67.0563 34.7789C67.0563 34.7789 66.6732 36.1484 66.1274 35.7525C65.5816 35.3565 66.1122 34.443 66.1122 34.443C67.0586 33.1676 67.0563 34.7789 67.0563 34.7789Z" fill="#E8E8F0"/>
<path opacity="0.1" d="M64.682 38.5157C64.7654 38.5157 64.8331 38.422 64.8331 38.3064C64.8331 38.1908 64.7654 38.0971 64.682 38.0971C64.5985 38.0971 64.5309 38.1908 64.5309 38.3064C64.5309 38.422 64.5985 38.5157 64.682 38.5157Z" fill="black"/>
<path d="M77.9004 31.6879C77.4595 31.3661 77.0017 31.0906 76.5311 30.8636C75.9055 30.6178 75.2627 30.4655 74.6136 30.4092C72.563 30.1388 70.5062 29.982 68.4431 29.9387C68.0788 29.9387 67.7063 29.9273 67.3608 30.101C67.0521 30.265 66.7725 30.519 66.5408 30.8457C66.1395 31.3772 65.8206 32.0166 65.6038 32.7247C65.5341 32.9021 65.5133 33.1085 65.5452 33.3056C65.5921 33.4938 65.7795 33.6188 65.8861 33.4857C65.6134 33.7901 65.4131 34.2011 65.3112 34.6652C65.2092 35.1293 65.2104 35.6252 65.3145 36.0884C65.1519 36.2062 65.014 36.38 64.914 36.5932C64.8141 36.8064 64.7556 37.0516 64.744 37.3053C65.5956 37.5237 66.4722 37.4648 67.3045 37.1333C67.0562 37.0457 66.7997 37.3686 66.7845 37.7223C66.7861 37.9 66.8232 38.0736 66.8916 38.224C66.9601 38.3743 67.0571 38.4955 67.1722 38.5742C67.4045 38.7265 67.6605 38.7967 67.9172 38.7786C68.9093 38.7786 69.8744 38.313 70.8642 38.2529C71.6209 38.2059 72.401 38.3957 73.1237 38.0907C73.9624 37.7304 74.7109 36.7098 75.5753 36.9224C76.2652 37.0928 76.715 37.9803 77.1648 38.7235C77.884 39.9096 78.773 40.8702 79.655 41.8226C80.3344 42.5561 81.0442 43.309 81.8864 43.5572C82.1385 43.6524 82.4057 43.6348 82.6501 43.5069C82.8544 43.3555 83.0258 43.1315 83.1468 42.8579C84.0545 41.073 84.0557 38.8257 84.003 36.7342C83.9761 35.6649 83.8074 35.5204 83.0929 35.0775C82.2636 34.5615 81.4374 34.0331 80.6143 33.4922C79.7054 32.9037 78.8007 32.3023 77.9004 31.6879Z" fill="#FBBEBE"/>
<path d="M87.394 35.6924C87.2544 35.808 87.1068 35.9042 86.9536 35.9796C86.697 36.064 86.4358 35.9131 86.1863 35.7963C85.1321 35.3095 83.9608 35.4247 82.9418 34.8227C83.2759 37.4798 82.8385 40.2123 81.7248 42.4246C81.5139 42.84 81.2363 43.2651 80.8708 43.2976C81.0337 43.9904 81.535 44.409 82.0106 44.7206C82.77 45.2185 83.5645 45.6067 84.3813 45.8791C84.6156 45.9554 84.9014 45.9927 85.0373 45.7169C85.1193 45.5546 85.1544 45.2771 85.2985 45.2869C85.5187 45.6114 85.4461 46.2767 85.7506 46.4227C85.8455 46.4562 85.945 46.4562 86.0399 46.4227L86.7193 46.2604C86.9231 46.236 87.1194 46.1424 87.2909 45.9878C87.3983 45.8586 87.487 45.7022 87.5521 45.527C88.3135 43.7308 88.6063 41.6522 88.7234 39.5996C88.7808 38.5806 88.8523 37.5 88.8019 36.4777C88.7551 35.6015 87.9445 35.3371 87.394 35.6924Z" fill="#E8E8F0"/>
<path opacity="0.1" d="M87.394 35.6924C87.2544 35.808 87.1068 35.9042 86.9536 35.9796C86.697 36.064 86.4358 35.9131 86.1863 35.7963C85.1321 35.3095 83.9608 35.4247 82.9418 34.8227C83.2759 37.4798 82.8385 40.2123 81.7248 42.4246C81.5139 42.84 81.2363 43.2651 80.8708 43.2976C81.0337 43.9904 81.535 44.409 82.0106 44.7206C82.77 45.2185 83.5645 45.6067 84.3813 45.8791C84.6156 45.9554 84.9014 45.9927 85.0373 45.7169C85.1193 45.5546 85.1544 45.2771 85.2985 45.2869C85.5187 45.6114 85.4461 46.2767 85.7506 46.4227C85.8455 46.4562 85.945 46.4562 86.0399 46.4227L86.7193 46.2604C86.9231 46.236 87.1194 46.1424 87.2909 45.9878C87.3983 45.8586 87.487 45.7022 87.5521 45.527C88.3135 43.7308 88.6063 41.6522 88.7234 39.5996C88.7808 38.5806 88.8523 37.5 88.8019 36.4777C88.7551 35.6015 87.9445 35.3371 87.394 35.6924Z" fill="black"/>
<path d="M48.1275 88.3248C47.7937 87.731 47.4505 87.1014 46.9562 86.7882C46.6714 86.6291 46.3716 86.5275 46.066 86.4864C44.4179 86.1619 42.7664 85.8244 41.1031 85.7611C40.5596 85.74 39.9763 85.7611 39.5335 86.2008C39.0263 86.7022 38.8307 87.6255 38.8026 88.4871C38.7723 89.5131 38.9194 90.5342 39.2315 91.4656C39.5436 92.3969 40.0118 93.2116 40.5971 93.8417C41.5927 94.8931 42.8507 95.3329 44.0783 95.6801C44.7237 95.8634 45.3726 96.0273 46.0238 96.1669C46.6751 96.3064 47.3381 96.4168 47.9671 96.6958C49.3118 97.293 50.4983 98.643 51.9086 98.7549C51.9749 98.7691 52.0427 98.7532 52.1019 98.7095C52.1638 98.6403 52.2054 98.5422 52.219 98.4336C52.5294 96.9165 53.6058 93.2835 52.219 92.2223C51.4939 91.669 50.6892 91.6447 49.9794 90.9421C49.2696 90.2395 48.6663 89.2838 48.1275 88.3248Z" fill="#BE6F72"/>
<path d="M36.2865 98.3964C35.3741 97.2962 34.1149 96.7137 33.4519 95.3134C33.1603 94.6968 33.0127 93.9731 32.8663 93.2624L32.4352 91.1174C32.402 90.9856 32.3869 90.8463 32.3907 90.7068C32.4235 90.259 32.8042 90.0464 33.1251 89.9767C34.765 89.6229 36.4728 90.5381 37.7003 92.086C38.9279 93.634 39.7162 95.7694 40.1789 97.9826C40.2114 98.0952 40.2164 98.2195 40.1929 98.3363C40.1529 98.4402 40.0896 98.5233 40.0125 98.5732C39.4199 99.06 38.6233 99.7691 37.9311 99.9184C37.2388 100.068 36.7797 98.9837 36.2865 98.3964Z" fill="#BE6F72"/>
<path d="M76.3203 89.1475L81.1228 91.8102C81.5784 92.0626 81.9534 92.5335 82.1794 93.1369C82.4054 93.7404 82.4673 94.4362 82.3538 95.0976L78.7801 115.92H69.8452L71.4007 92.2305C71.4007 92.2305 74.7976 88.3362 76.3203 89.1475Z" fill="#3F3D56"/>
<path d="M80.9587 86.6487C80.8697 86.918 80.7385 87.1841 80.7584 87.4778C80.7701 87.6531 80.8357 87.8186 80.8264 87.9922C80.8076 88.3329 80.523 88.5228 80.277 88.526C80.031 88.5293 79.7839 88.4189 79.5414 88.4774C79.1432 88.5715 78.8738 89.0793 78.5294 89.373C78.0492 89.7819 77.4494 89.7576 76.8895 89.8274C75.7182 89.9734 74.6101 90.5819 73.5501 91.2747C72.8297 91.7453 72.0648 92.3489 71.7931 93.3841C71.403 94.8445 72.1597 96.3827 72.3272 97.9274C72.3721 98.4475 72.3831 98.9721 72.36 99.4948C72.237 104.95 72.025 110.469 71.8001 115.917L28.8639 115.987L30.9781 110.855C33.0397 105.849 35.1563 100.749 38.2661 96.9214C38.7274 96.3445 39.2457 95.8615 39.8053 95.487L42.299 98.57C42.4987 98.845 42.7303 99.0716 42.9843 99.2401C43.4528 99.5046 43.9775 99.3537 44.48 99.3764C45.4464 99.4202 46.3296 100.103 47.1682 100.77C47.7834 101.233 48.3751 101.753 48.9393 102.326C49.2696 102.677 49.7463 102.896 50.0907 103.219L50.0099 97.3936C50.0017 96.8678 49.9958 96.3291 50.1094 95.8277C50.3297 94.8542 50.9587 94.1662 51.2609 93.2397C51.3979 92.8227 51.4647 92.3684 51.5795 91.9416C51.7418 91.393 51.9435 90.8685 52.1815 90.3758L53.7359 86.9164C54.1201 86.0629 54.5031 85.2094 54.9201 84.3868C56.7439 80.783 59.199 77.8963 61.5873 75C61.5318 74.1746 61.6694 73.3463 61.9797 72.6375C62.1021 72.4015 62.2035 72.146 62.2819 71.8765C62.3325 71.557 62.3471 71.2286 62.3252 70.9029C62.3252 70.8202 62.3252 70.7407 62.3252 70.653C62.3512 70.1224 62.5113 69.6215 62.7774 69.2381C63.0515 68.8438 63.4181 68.6037 63.7789 68.3798C65.6459 67.2231 67.5871 66.3116 69.5769 65.657C69.8944 65.5532 70.2305 65.4558 70.5433 65.5873C70.6382 66.0108 70.9614 66.16 71.2847 66.2671L71.4921 66.3337C72.0411 66.4979 72.5532 66.8442 72.9843 67.3429C73.4376 67.8914 73.7492 68.6248 74.0526 69.3468C76.3332 74.7712 77.3838 81.888 80.9119 85.8293C81.0829 86.0159 81.0478 86.3891 80.9587 86.6487Z" fill="#FFB163"/>
<path opacity="0.1" d="M95.3462 20.0246C94.1116 23.7841 91.6787 27.4885 88.5021 27.4885C88.2427 27.4888 87.9835 27.4709 87.7255 27.435C87.6148 27.2335 87.4918 27.0456 87.3577 26.8736C86.8247 26.1888 86.0692 26.012 85.5457 25.4132C85.8643 24.6376 86.5717 23.9334 87.0532 23.3412C87.5732 22.704 88.1128 22.0999 88.6719 21.5287C89.7894 20.3855 90.9793 19.3846 92.2269 18.5383C93.0187 18.0012 93.8457 17.5209 94.7195 17.357C94.8296 17.3227 94.9447 17.3368 95.0486 17.3976C95.1845 17.5014 95.2337 17.7351 95.2665 17.9444C95.4293 18.9829 95.2103 18.9699 95.3462 20.0246Z" fill="black"/>
<path d="M88.5021 27.1624C92.8364 27.1624 96.35 22.2951 96.35 16.2909C96.35 10.2868 92.8364 5.41949 88.5021 5.41949C84.1678 5.41949 80.6542 10.2868 80.6542 16.2909C80.6542 22.2951 84.1678 27.1624 88.5021 27.1624Z" fill="#FBBEBE"/>
<path d="M104.846 52.4475C104.718 53.7619 104.495 55.0551 104.18 56.3076C104.063 56.7636 103.919 57.2082 103.77 57.6463C102.898 60.2084 102.419 62.9782 102.19 65.795C102.173 66.0168 102.143 66.2364 102.102 66.4522C101.93 67.3608 101.567 68.1721 101.289 69.0272C101.006 69.9509 100.771 70.9014 100.587 71.8717C100.52 72.1151 100.497 72.3776 100.521 72.6359C100.564 72.9101 100.707 73.1227 100.808 73.3709C101.328 74.6122 100.727 76.1294 100.525 77.5345C100.455 78.0213 100.425 78.5503 100.197 78.93C100.002 79.2545 99.7 79.4038 99.413 79.5401C95.3226 81.4664 91.136 82.9762 86.8868 84.0574C86.2531 84.2197 85.5983 84.3706 84.9693 84.2083C84.3403 84.0461 83.7137 83.5074 83.4981 82.6668C83.374 82.1801 83.3951 81.6511 83.4056 81.1351C83.429 80.0512 83.4056 78.9608 83.3634 77.8688C83.2276 74.2747 82.9195 70.6677 83.5977 67.2245C83.8003 66.2088 84.0862 65.2287 84.3157 64.2243C84.7644 62.2658 84.8803 60.2408 84.9928 58.2093C85.0853 56.5348 85.1755 54.8538 85.4461 53.202C85.6475 51.9704 85.514 50.6902 85.5023 49.4278C85.4791 46.5389 86.092 43.7089 87.2593 41.3148C87.4619 40.901 87.6845 40.4921 87.7911 40.0167C87.941 39.3352 87.8379 38.6034 87.77 37.8959C87.599 36.0922 87.6681 34.2603 87.9738 32.491C88.0699 31.829 88.2529 31.1971 88.5138 30.6267C88.8054 30.0377 89.2236 29.5931 89.6418 29.1744C92.0694 26.75 94.7482 24.8489 97.5869 23.5359C97.8481 24.451 98.0988 25.5203 98.2991 26.4566C98.326 26.5831 98.3447 26.7438 98.2698 26.8249C98.1948 26.906 98.1175 26.8622 98.0355 26.8655C97.9509 26.8782 97.871 26.9261 97.8064 27.0028C97.7418 27.0795 97.6955 27.1816 97.6736 27.2955C97.6326 27.5253 97.6483 27.7674 97.7181 27.9834C97.8774 28.5514 98.2206 28.9749 98.5509 29.3756L100.212 31.3828C100.411 31.6405 100.628 31.8699 100.86 32.0675C101.068 32.2298 101.295 32.345 101.51 32.4943C102.369 33.0963 102.963 34.2694 103.295 35.5221C103.626 36.7747 103.476 38.2805 103.909 39.4699C105.345 43.4128 105.333 48.0778 104.846 52.4475Z" fill="#E8E8F0"/>
<path d="M104.846 52.4475C104.718 53.7619 104.495 55.0551 104.18 56.3076C104.063 56.7636 103.919 57.2082 103.77 57.6463C102.898 60.2084 102.419 62.9782 102.19 65.795C102.173 66.0168 102.143 66.2364 102.102 66.4522C101.93 67.3608 101.567 68.1721 101.289 69.0272C101.006 69.9509 100.771 70.9014 100.587 71.8717C100.52 72.1151 100.497 72.3776 100.521 72.6359C100.564 72.9101 100.707 73.1227 100.808 73.3709C101.328 74.6122 100.727 76.1294 100.525 77.5345C100.455 78.0213 100.425 78.5503 100.197 78.93C100.002 79.2545 99.7 79.4038 99.413 79.5401C95.3226 81.4664 91.136 82.9762 86.8868 84.0574C86.2531 84.2197 85.5983 84.3706 84.9693 84.2083C84.3403 84.0461 83.7137 83.5074 83.4981 82.6668C83.374 82.1801 83.3951 81.6511 83.4056 81.1351C83.429 80.0512 83.4056 78.9608 83.3634 77.8688C83.2276 74.2747 82.9195 70.6677 83.5977 67.2245C83.8003 66.2088 84.0862 65.2287 84.3157 64.2243C84.7644 62.2658 84.8803 60.2408 84.9928 58.2093C85.0853 56.5348 85.1755 54.8538 85.4461 53.202C85.6475 51.9704 85.514 50.6902 85.5023 49.4278C85.4791 46.5389 86.092 43.7089 87.2593 41.3148C87.4619 40.901 87.6845 40.4921 87.7911 40.0167C87.941 39.3352 87.8379 38.6034 87.77 37.8959C87.599 36.0922 87.6681 34.2603 87.9738 32.491C88.0699 31.829 88.2529 31.1971 88.5138 30.6267C88.8054 30.0377 89.2236 29.5931 89.6418 29.1744C92.0694 26.75 94.7482 24.8489 97.5869 23.5359C97.8481 24.451 98.0988 25.5203 98.2991 26.4566C98.326 26.5831 98.3447 26.7438 98.2698 26.8249C98.1948 26.906 98.1175 26.8622 98.0355 26.8655C97.9509 26.8782 97.871 26.9261 97.8064 27.0028C97.7418 27.0795 97.6955 27.1816 97.6736 27.2955C97.6326 27.5253 97.6483 27.7674 97.7181 27.9834C97.8774 28.5514 98.2206 28.9749 98.5509 29.3756L100.212 31.3828C100.411 31.6405 100.628 31.8699 100.86 32.0675C101.068 32.2298 101.295 32.345 101.51 32.4943C102.369 33.0963 102.963 34.2694 103.295 35.5221C103.626 36.7747 103.476 38.2805 103.909 39.4699C105.345 43.4128 105.333 48.0778 104.846 52.4475Z" fill="black" fill-opacity="0.2"/>
<path d="M104.846 52.4475C104.718 53.7619 104.495 55.0551 104.18 56.3076C104.063 56.7636 103.919 57.2082 103.77 57.6463C102.898 60.2084 102.419 62.9782 102.19 65.795C102.173 66.0168 102.143 66.2364 102.102 66.4522C101.93 67.3608 101.567 68.1721 101.289 69.0272C101.006 69.9509 100.771 70.9014 100.587 71.8717C100.52 72.1151 100.497 72.3776 100.521 72.6359C100.564 72.9101 100.707 73.1227 100.808 73.3709C101.328 74.6122 100.727 76.1294 100.525 77.5345C100.455 78.0213 100.425 78.5503 100.197 78.93C100.002 79.2545 99.7 79.4038 99.413 79.5401C95.3226 81.4664 91.136 82.9762 86.8868 84.0574C86.2531 84.2197 85.5983 84.3706 84.9693 84.2083C84.3403 84.0461 83.7137 83.5074 83.4981 82.6668C83.374 82.1801 83.3951 81.6511 83.4056 81.1351C83.429 80.0512 83.4056 78.9608 83.3634 77.8688C83.2276 74.2747 82.9195 70.6677 83.5977 67.2245C83.8003 66.2088 84.0862 65.2287 84.3157 64.2243C84.7644 62.2658 84.8803 60.2408 84.9928 58.2093C85.0853 56.5348 85.1755 54.8538 85.4461 53.202C85.6475 51.9704 85.514 50.6902 85.5023 49.4278C85.4791 46.5389 86.092 43.7089 87.2593 41.3148C87.4619 40.901 87.6845 40.4921 87.7911 40.0167C87.941 39.3352 87.8379 38.6034 87.77 37.8959C87.599 36.0922 87.6681 34.2603 87.9738 32.491C88.0699 31.829 88.2529 31.1971 88.5138 30.6267C88.8054 30.0377 89.2236 29.5931 89.6418 29.1744C92.0694 26.75 94.7482 24.8489 97.5869 23.5359C97.8481 24.451 98.0988 25.5203 98.2991 26.4566C98.326 26.5831 98.3447 26.7438 98.2698 26.8249C98.1948 26.906 98.1175 26.8622 98.0355 26.8655C97.9509 26.8782 97.871 26.9261 97.8064 27.0028C97.7418 27.0795 97.6955 27.1816 97.6736 27.2955C97.6326 27.5253 97.6483 27.7674 97.7181 27.9834C97.8774 28.5514 98.2206 28.9749 98.5509 29.3756L100.212 31.3828C100.411 31.6405 100.628 31.8699 100.86 32.0675C101.068 32.2298 101.295 32.345 101.51 32.4943C102.369 33.0963 102.963 34.2694 103.295 35.5221C103.626 36.7747 103.476 38.2805 103.909 39.4699C105.345 43.4128 105.333 48.0778 104.846 52.4475Z" fill="black" fill-opacity="0.2"/>
<path d="M104.846 52.4475C104.718 53.7619 104.495 55.0551 104.18 56.3076C104.063 56.7636 103.919 57.2082 103.77 57.6463C102.898 60.2084 102.419 62.9782 102.19 65.795C102.173 66.0168 102.143 66.2364 102.102 66.4522C101.93 67.3608 101.567 68.1721 101.289 69.0272C101.006 69.9509 100.771 70.9014 100.587 71.8717C100.52 72.1151 100.497 72.3776 100.521 72.6359C100.564 72.9101 100.707 73.1227 100.808 73.3709C101.328 74.6122 100.727 76.1294 100.525 77.5345C100.455 78.0213 100.425 78.5503 100.197 78.93C100.002 79.2545 99.7 79.4038 99.413 79.5401C95.3226 81.4664 91.136 82.9762 86.8868 84.0574C86.2531 84.2197 85.5983 84.3706 84.9693 84.2083C84.3403 84.0461 83.7137 83.5074 83.4981 82.6668C83.374 82.1801 83.3951 81.6511 83.4056 81.1351C83.429 80.0512 83.4056 78.9608 83.3634 77.8688C83.2276 74.2747 82.9195 70.6677 83.5977 67.2245C83.8003 66.2088 84.0862 65.2287 84.3157 64.2243C84.7644 62.2658 84.8803 60.2408 84.9928 58.2093C85.0853 56.5348 85.1755 54.8538 85.4461 53.202C85.6475 51.9704 85.514 50.6902 85.5023 49.4278C85.4791 46.5389 86.092 43.7089 87.2593 41.3148C87.4619 40.901 87.6845 40.4921 87.7911 40.0167C87.941 39.3352 87.8379 38.6034 87.77 37.8959C87.599 36.0922 87.6681 34.2603 87.9738 32.491C88.0699 31.829 88.2529 31.1971 88.5138 30.6267C88.8054 30.0377 89.2236 29.5931 89.6418 29.1744C92.0694 26.75 94.7482 24.8489 97.5869 23.5359C97.8481 24.451 98.0988 25.5203 98.2991 26.4566C98.326 26.5831 98.3447 26.7438 98.2698 26.8249C98.1948 26.906 98.1175 26.8622 98.0355 26.8655C97.9509 26.8782 97.871 26.9261 97.8064 27.0028C97.7418 27.0795 97.6955 27.1816 97.6736 27.2955C97.6326 27.5253 97.6483 27.7674 97.7181 27.9834C97.8774 28.5514 98.2206 28.9749 98.5509 29.3756L100.212 31.3828C100.411 31.6405 100.628 31.8699 100.86 32.0675C101.068 32.2298 101.295 32.345 101.51 32.4943C102.369 33.0963 102.963 34.2694 103.295 35.5221C103.626 36.7747 103.476 38.2805 103.909 39.4699C105.345 43.4128 105.333 48.0778 104.846 52.4475Z" fill="black" fill-opacity="0.2"/>
<path d="M103.754 93.7038C104.259 96.5217 104.246 99.4697 103.718 102.279C103.623 102.781 103.511 103.3 103.586 103.808C103.63 104.097 103.732 104.368 103.755 104.661C103.765 104.929 103.744 105.198 103.693 105.456C103.173 108.864 103.359 112.404 103.569 115.882C103.48 115.882 103.452 115.938 103.358 115.938H101.101C101.061 115.025 100.241 114.34 99.8405 113.612C99.453 112.897 99.185 112.073 99.056 111.198C98.9269 110.322 98.94 109.418 99.0944 108.551C99.4458 106.604 100.481 105.047 101.012 103.186C101.598 101.139 101.547 98.8199 102.169 96.7949C102.526 95.625 103.194 94.7114 103.754 93.7038Z" fill="#3F3D56"/>
<path opacity="0.1" d="M103.754 93.7038C104.259 96.5217 104.246 99.4697 103.718 102.279C103.623 102.781 103.511 103.3 103.586 103.808C103.63 104.097 103.732 104.368 103.755 104.661C103.765 104.929 103.744 105.198 103.693 105.456C103.173 108.864 103.359 112.404 103.569 115.882C103.48 115.882 103.452 115.938 103.358 115.938H101.101C101.061 115.025 100.241 114.34 99.8405 113.612C99.453 112.897 99.185 112.073 99.056 111.198C98.9269 110.322 98.94 109.418 99.0944 108.551C99.4458 106.604 100.481 105.047 101.012 103.186C101.598 101.139 101.547 98.8199 102.169 96.7949C102.526 95.625 103.194 94.7114 103.754 93.7038Z" fill="black"/>
<path d="M99.0171 78.0862C97.0985 77.6611 95.2396 78.9998 93.3865 79.8127C90.5554 81.054 87.4385 81.1302 84.8229 83.079C84.5893 83.2347 84.3775 83.4468 84.1975 83.7053C83.9852 84.0695 83.8516 84.5094 83.8121 84.9742C83.6952 86.0019 83.8388 87.054 84.2185 87.9517C84.3813 88.3346 84.5863 88.6867 84.7128 89.0972C85.0127 90.0708 84.8124 91.1936 84.7609 92.2581C84.6437 94.6352 85.309 96.949 85.4426 99.3245C85.5222 100.725 85.418 102.156 85.6558 103.522C85.8045 104.379 86.0845 105.187 86.2004 106.053C86.3164 106.92 86.266 107.767 86.3047 108.624C86.4136 111.079 87.2207 113.464 87.0239 115.909L102.251 115.979C101.687 113.258 101.217 110.444 101.729 107.704C101.906 106.837 102.127 105.989 102.389 105.164C103.241 102.313 104.116 99.4543 104.586 96.4395C105.055 93.4247 105.097 90.2055 104.302 87.3237C103.417 84.111 101.534 81.4385 101.124 78.0473C100.422 77.9175 99.7211 78.242 99.0171 78.0862Z" fill="#3F3D56"/>
<path d="M83.0366 10.9883C82.8891 10.5599 82.4709 10.2776 82.1898 10.5486C81.9087 10.8195 81.945 11.4248 81.8759 11.9115C81.7423 12.8689 81.0559 13.5212 80.3531 13.6737C80.024 13.7467 79.6574 13.7175 79.402 13.4222C79.2376 13.204 79.1165 12.9307 79.0506 12.6287C78.3478 10.0326 78.7753 7.00155 79.9256 4.73639C80.1697 4.22881 80.4724 3.78038 80.8217 3.4091C81.7904 2.43554 83.0858 2.43554 84.2841 2.48746C84.5274 2.52401 84.7736 2.48465 85.0045 2.37226C85.1804 2.24396 85.3415 2.07988 85.4824 1.88548C86.6174 0.503017 88.1858 -0.0778752 89.6992 0.0146133C91.2125 0.107102 92.6685 0.825915 94.0132 1.78163C94.6562 2.23758 95.2864 2.75519 95.7901 3.47563C97 5.20046 97.2952 7.75606 97.533 10.138C97.7884 12.7082 98.0425 15.3498 97.6127 17.8762C97.369 19.3074 96.9099 20.7061 96.9637 22.1745C95.9908 22.5594 95.002 22.8623 94.0026 23.0816C93.5341 23.1838 92.9929 23.2438 92.6497 22.7846C92.5046 22.5691 92.3986 22.3088 92.3405 22.0252C91.9692 20.5049 92.0934 18.7687 91.5323 17.3635C91.2977 16.7906 90.9624 16.309 90.5576 15.9635C90.1528 15.618 89.6915 15.4198 89.2166 15.3872C88.8488 15.3693 88.4306 15.4943 88.242 15.9307C88.1697 16.1448 88.114 16.3689 88.0757 16.5993C87.8157 17.6848 86.7509 18.2219 86.0493 17.6166C85.6979 17.3116 85.4578 16.8053 85.1403 16.4256C84.7374 15.947 84.2209 15.7003 83.7687 15.3142C82.2624 14.0209 83.62 12.6839 83.0366 10.9883Z" fill="#3F3D56"/>
<path d="M71.2894 66.2688C70.6487 66.5527 70.0654 67.0671 69.4422 67.4289C68.3447 68.0634 67.1382 68.211 65.9868 68.6167C64.8806 69.0277 63.8144 69.6226 62.8113 70.3886C62.7375 70.4437 62.5056 70.7131 62.3206 70.8981C62.3206 70.8153 62.3206 70.7358 62.3206 70.6482C62.3465 70.1176 62.5066 69.6166 62.7727 69.2333C63.0468 68.839 63.4134 68.5988 63.7742 68.3749C65.6428 67.2195 67.5856 66.3096 69.5769 65.657C69.8944 65.5532 70.2305 65.4558 70.5433 65.5873C70.6428 66.0108 70.9661 66.16 71.2894 66.2688Z" fill="#3F3D56"/>
<path opacity="0.1" d="M54.6834 107.881C55.9438 109.828 57.0741 111.953 58.5406 113.595C56.8481 110.482 54.4199 108.403 52.2248 106.055C51.7797 105.578 50.8895 104.901 50.6201 104.212C50.1949 103.131 51.1343 103.899 51.5244 104.192C52.7425 105.109 53.7639 106.462 54.6834 107.881Z" fill="black"/>
<path opacity="0.1" d="M100.032 51.0439C99.9718 51.7449 99.7832 52.4101 99.5923 53.0624C99.1237 54.685 98.6212 56.2914 97.9138 57.7306C97.4265 58.7221 96.8467 59.6177 96.3383 60.5864C95.8165 61.6146 95.3378 62.6835 94.9046 63.7878C94.1058 65.7479 93.3272 67.7243 92.569 69.7168C92.2071 70.6709 91.8475 71.6331 91.3801 72.4947C91.0521 73.0763 90.7001 73.631 90.3259 74.1563C89.506 75.3538 88.6638 76.4604 87.9305 77.7585C87.5674 78.4075 86.9618 78.6574 86.3961 78.8781C86.2069 78.9652 86.0097 79.0144 85.8104 79.0241C85.6098 79.0047 85.4124 78.944 85.2248 78.844C84.5929 78.5769 83.9746 78.2516 83.3741 77.8704C83.2382 74.2763 82.9301 70.6693 83.6083 67.2261C83.811 66.2104 84.0968 65.2303 84.3264 64.2259C84.775 62.2675 84.8909 60.2424 85.0034 58.2109C85.1428 57.8037 85.2915 57.3996 85.4356 57.007C86.4125 54.3329 87.2359 51.3879 86.9818 48.4072C86.917 47.8698 86.8721 47.3282 86.8471 46.7846C86.8495 46.118 86.9306 45.4564 87.0872 44.8261C87.4377 43.3373 88.0172 41.9716 88.7857 40.8231C89.5541 39.6745 90.4932 38.7705 91.5382 38.1734C91.8683 37.9598 92.2281 37.849 92.5924 37.8489C93.061 37.883 93.5096 38.2205 93.9664 38.0971C95.5137 39.0399 96.7659 40.6495 97.7018 42.5999C98.6376 44.5502 98.6892 47.1561 99.7071 49.0254C100.008 49.5933 100.09 50.3446 100.032 51.0439Z" fill="black"/>
<path d="M66.1637 42.238L66.1145 42.0903L64.2005 43.3138L63.8807 43.5182L63.5621 43.7211L66.2609 51.826L66.5795 51.6215L66.8992 51.4171L68.8132 50.1936L68.764 50.0476L66.85 51.271L66.8009 51.1234L68.7148 49.8999L68.6656 49.7523L66.7517 50.9757L66.7025 50.8281L68.6164 49.6046L68.5684 49.457L66.6533 50.6804L66.6041 50.5344L68.5192 49.3109L68.47 49.1633L66.5549 50.3867L66.5057 50.2391L68.4208 49.0156L68.3716 48.868L66.4577 50.0914L66.4085 49.9437L68.3224 48.7203L68.2732 48.5743L66.3593 49.7977L66.3101 49.65L68.224 48.4266L68.1748 48.2789L66.2609 49.5024L66.2117 49.3547L68.1268 48.1313L68.0776 47.9836L66.1625 49.2071L66.1133 49.061L68.0284 47.836L67.9792 47.6899L66.0641 48.9134L66.0161 48.7657L67.93 47.5423L67.8808 47.3946L65.9669 48.6181L65.9177 48.4704L67.8316 47.247L67.7824 47.0993L65.8685 48.3228L65.8193 48.1767L67.7332 46.9533L67.6852 46.8056L65.7701 48.0291L65.7209 47.8814L67.636 46.658L67.5868 46.5103L65.6717 47.7338L65.6237 47.5861L67.5376 46.3643L67.4884 46.2166L65.5745 47.4401L65.5253 47.2924L67.4392 46.069L67.39 45.9213L65.4761 47.1447L65.4269 46.9971L67.3408 45.7736L67.2928 45.626L65.3777 46.8511L65.3285 46.7034L67.2436 45.48L67.1944 45.3323L65.2793 46.5557L65.2301 46.4081L67.1452 45.1846L67.096 45.037L65.1821 46.2604L65.1329 46.1128L67.0468 44.8893L66.9976 44.7433L65.0837 45.9667L65.0345 45.8191L66.9484 44.5956L66.8992 44.448L64.9853 45.6714L64.9361 45.5238L66.8512 44.3003L66.802 44.1543L64.8869 45.3761L64.8377 45.2301L66.7528 44.0066L66.7036 43.859L64.7885 45.0824L64.7405 44.9348L66.6544 43.7113L66.6052 43.5637L64.6913 44.7871L64.6421 44.6394L66.556 43.416L66.5068 43.27L64.5929 44.4934L64.5437 44.3458L66.4577 43.1223L66.4096 42.9747L64.4945 44.1981L64.4453 44.0504L66.3604 42.827L66.3112 42.6793L64.3961 43.9028L64.3469 43.7568L66.262 42.5333L66.2129 42.3856L64.2977 43.6091L64.2497 43.4614L66.1637 42.238Z" fill="black"/>
<path opacity="0.1" d="M72.1726 60.064C71.9254 60.6432 71.5471 61.1462 71.0774 61.3166C70.4917 61.5259 69.81 61.1203 69.5547 60.3609C69.3977 59.8903 69.4047 59.3516 69.3965 58.834C69.3836 57.8203 69.3052 56.8103 69.1623 55.816C69.0897 55.3178 68.9924 54.8002 68.7476 54.4238C68.4314 53.937 67.9277 53.7747 67.4592 53.7634C66.911 53.7537 66.3101 53.9597 65.9903 54.5747C65.7338 55.0712 65.6893 55.7689 65.3484 56.1567C65.1969 56.3177 65.0168 56.4192 64.8272 56.4504C64.4405 56.5172 64.0488 56.4024 63.7148 56.1244C63.3808 55.8464 63.1237 55.4213 62.9847 54.9171C62.8769 54.4887 62.8242 53.9565 62.5314 53.7553C62.3791 53.6498 62.1975 53.6693 62.0347 53.6011C61.5357 53.3918 61.4046 52.5156 61.3589 51.7968C61.3062 50.9547 61.5088 49.2915 60.7533 49.2347C59.9451 49.173 59.0068 49.8237 58.2584 50.1693C57.7781 50.4371 57.2135 50.7453 56.772 50.3705C56.4475 50.0931 56.314 49.517 56.3339 48.9897C56.3538 48.4623 56.499 47.9626 56.6138 47.4596C56.8106 46.6093 56.9289 45.7266 57.1093 44.8634C57.0245 45.1076 56.949 45.3578 56.8832 45.6131C56.6232 46.6369 56.5014 47.7224 56.2624 48.7512C56.1453 49.2542 56.0024 49.7539 55.9825 50.2813C55.9626 50.8086 56.0996 51.3847 56.4206 51.6621C56.8621 52.0369 57.4267 51.7286 57.907 51.4609C58.6554 51.1153 59.5937 50.4646 60.4019 50.5263C61.1574 50.5831 60.9548 52.2463 61.0075 53.0884C61.0532 53.8072 61.1843 54.6834 61.6833 54.8927C61.8461 54.9609 62.0277 54.9414 62.18 55.0469C62.4728 55.2481 62.5314 55.7803 62.6333 56.2087C62.7723 56.7129 63.0294 57.138 63.3634 57.416C63.6975 57.694 64.0891 57.8088 64.4758 57.742C64.6654 57.7108 64.8455 57.6093 64.997 57.4483C65.3379 57.0605 65.3824 56.3628 65.6389 55.8663C65.9587 55.2481 66.5596 55.042 67.1078 55.055C67.5763 55.0647 68.0858 55.227 68.3962 55.7154C68.641 56.0918 68.7383 56.6094 68.8109 57.1076C68.9538 58.1019 69.0322 59.1119 69.0451 60.1256C69.0533 60.6432 69.0451 61.1819 69.2033 61.6525C69.4574 62.4119 70.1403 62.8175 70.726 62.6082C71.1945 62.4378 71.574 61.9348 71.8212 61.3556C72.0093 60.8826 72.1541 60.3789 72.2522 59.8563C72.2265 59.9309 72.2007 59.9974 72.1726 60.064Z" fill="black"/>
<path d="M78.1978 58.9866C77.2608 57.7404 76.4139 56.3612 75.5729 54.9852C74.767 53.6693 73.9588 52.3469 73.3099 50.8752C72.9081 49.9649 72.5497 48.9718 71.9324 48.3342C71.4639 47.8474 70.8911 47.6202 70.3734 47.2486C70.0009 46.9809 69.6577 46.6418 69.2899 46.3643C68.4876 45.7636 67.5847 45.4685 66.6731 45.5092C66.2948 45.527 65.8649 45.6487 65.6705 46.0998C65.6037 46.254 65.5721 46.4341 65.5042 46.5866C65.2945 47.0734 64.7896 47.2113 64.6175 47.7224C64.327 48.5824 65.2031 49.3726 65.2582 50.3186C65.284 50.7924 65.0954 51.2337 65.0403 51.7027C64.9466 52.514 65.25 53.288 65.5428 53.9954C66.1695 55.5109 66.932 57.1709 68.1631 57.5522C68.5988 57.6868 69.0591 57.643 69.4843 57.8345C69.827 58.0144 70.1442 58.2764 70.4214 58.6085C71.578 59.8714 72.5974 61.3583 73.4481 63.0236C73.844 63.7976 74.2024 64.6056 74.6019 65.3747C75.8731 67.8114 77.5414 69.7982 79.4711 71.1739L80.9083 64.8458C81.1297 63.8722 81.3042 62.5368 80.674 61.7774C79.8846 60.7925 78.9744 60.0153 78.1978 58.9866Z" fill="#FBBEBE"/>
<path d="M93.8434 37.2923C93.3866 37.414 92.9333 37.0781 92.4694 37.0441C92.1051 37.0439 91.7452 37.1546 91.4152 37.3686C90.3704 37.9661 89.4314 38.8702 88.663 40.0187C87.8946 41.1672 87.315 42.5327 86.9642 44.0213C86.8091 44.6542 86.7291 45.3178 86.7276 45.9862C86.7346 46.5298 86.8166 47.0653 86.8623 47.6088C87.1164 50.5847 86.293 53.5313 85.3173 56.2086C84.7773 57.6868 84.1682 59.2462 84.2959 60.8931C84.3123 61.1138 84.3381 61.362 84.2408 61.5421C84.1237 61.7563 83.8707 61.7677 83.7618 61.9932C83.6528 62.2188 83.7524 62.5595 83.6657 62.8143C83.5486 63.1745 83.1667 63.1307 82.8938 63.0025C82.1457 62.6518 81.4528 62.1066 80.8522 61.3961C79.8788 62.1831 78.8375 63.1209 78.5177 64.617C78.4426 64.9987 78.3905 65.3884 78.3619 65.782L77.8594 71.5909C77.7927 72.3601 77.7599 73.2622 78.1792 73.775C78.9019 74.6609 80.1892 73.5137 80.9623 74.3153C81.1602 74.5197 81.2891 74.8248 81.4308 75.1023C82.2753 76.707 83.729 77.4128 85.0924 78.0229C85.2803 78.1217 85.4776 78.1819 85.6781 78.2014C85.8775 78.1937 86.0749 78.1444 86.2637 78.0554C86.8306 77.8347 87.435 77.5783 87.7982 76.9374C88.5326 75.6393 89.3748 74.5327 90.1947 73.3352C90.5683 72.8092 90.9203 72.2545 91.2489 71.6737C91.7174 70.8105 92.0758 69.8483 92.4378 68.8942C93.1945 66.9016 93.9722 64.9253 94.7711 62.9652C95.2088 61.8653 95.6917 60.8013 96.2177 59.7784C96.7272 58.8048 97.3058 57.9124 97.7931 56.9226C98.4959 55.4817 99.0007 53.8689 99.4716 52.2544C99.6625 51.6053 99.8511 50.9352 99.912 50.2358C99.9729 49.5365 99.891 48.7852 99.5841 48.2222C98.5662 46.3513 98.5158 43.747 97.5799 41.7967C96.644 39.8463 95.3919 38.2334 93.8434 37.2923Z" fill="#E8E8F0"/>
<path d="M66.1953 42.9033C66.1679 42.9273 66.1447 42.9594 66.1273 42.9973C66.1099 43.0351 66.0987 43.0778 66.0945 43.1223C66.0945 43.2034 66.1426 43.2667 66.1683 43.3397C66.2398 43.5474 66.125 43.7876 65.9938 43.9304C65.8626 44.0732 65.7033 44.1835 65.6319 44.3928C65.6209 44.4205 65.616 44.4521 65.6178 44.4837C65.6257 44.5264 65.6439 44.5642 65.6693 44.5908C65.7465 44.7136 65.8466 44.8046 65.9587 44.8536C66.1379 44.9055 66.3101 44.7417 66.4623 44.607C66.6275 44.4623 66.8034 44.3426 66.9871 44.25C67.0439 44.2267 67.0974 44.19 67.1452 44.1413C67.2037 44.0604 67.2398 43.9536 67.2471 43.8395C67.2869 43.4322 67.13 43.0412 66.9508 42.7037C66.7352 42.3061 66.3792 42.6842 66.1953 42.9033Z" fill="#3F3D56"/>
<path d="M48.2247 90.9895L36.0662 82.3928C35.9775 82.3301 35.8688 82.3789 35.8235 82.5018L32.7249 90.9116C32.6796 91.0346 32.7148 91.1851 32.8036 91.2478L44.9621 99.8444C45.0508 99.9072 45.1594 99.8584 45.2047 99.7355L48.3033 91.3256C48.3486 91.2027 48.3134 91.0522 48.2247 90.9895Z" fill="#3F3D56"/>
<path d="M47.1053 91.2056L36.6161 83.7892L33.9547 91.0125L44.4439 98.4289L47.1053 91.2056Z" fill="#E8E8F0"/>
<path d="M35.0547 87.2403C35.0867 87.1533 35.0356 87.0282 34.9406 86.961C34.8455 86.8938 34.7424 86.9098 34.7104 86.9968C34.6783 87.0838 34.7294 87.2089 34.8245 87.2761C34.9196 87.3433 35.0226 87.3273 35.0547 87.2403Z" fill="#E6E8EC"/>
<path d="M46.5253 95.3717C46.5779 95.2288 46.4936 95.0231 46.3368 94.9123C46.1801 94.8015 46.0104 94.8275 45.9577 94.9704C45.9051 95.1132 45.9895 95.3189 46.1462 95.4297C46.3029 95.5405 46.4727 95.5145 46.5253 95.3717Z" fill="#E6E8EC"/>
<g opacity="0.1">
<path d="M97.6104 16.7339C97.3668 18.165 96.9076 19.5637 96.9615 21.0322C95.9886 21.4171 94.9997 21.72 94.0004 21.9392C93.5318 22.0414 92.9907 22.1015 92.6475 21.6423C92.5023 21.4267 92.3963 21.1664 92.3382 20.8829C91.9669 19.3625 92.0911 17.6263 91.53 16.2212C91.2954 15.6482 90.9602 15.1667 90.5553 14.8212C90.1505 14.4757 89.6892 14.2774 89.2143 14.2448C88.8465 14.227 88.4284 14.3519 88.2398 14.7884C88.1675 15.0025 88.1117 15.2266 88.0734 15.4569C87.8134 16.5424 86.7487 17.0795 86.047 16.4743C85.6956 16.1692 85.4555 15.663 85.1381 15.2833C84.7351 14.8046 84.2186 14.558 83.7665 14.1718C83.3588 13.8246 83.1632 13.4741 83.0801 13.1122C82.977 13.8927 82.9477 14.6099 83.7665 15.3076C84.2186 15.6938 84.7351 15.9404 85.1381 16.4191C85.4555 16.7956 85.691 17.3051 86.047 17.6101C86.7498 18.2121 87.8134 17.6783 88.0734 16.5927C88.1117 16.3624 88.1675 16.1383 88.2398 15.9242C88.4284 15.4877 88.8465 15.3628 89.2143 15.3806C89.6892 15.4132 90.1505 15.6115 90.5553 15.957C90.9602 16.3025 91.2954 16.784 91.53 17.357C92.0911 18.7622 91.9669 20.4983 92.3382 22.0187C92.3972 22.3046 92.5048 22.5667 92.6522 22.783C92.9954 23.2373 93.5377 23.1821 94.005 23.0799C95.0044 22.8607 95.9933 22.5578 96.9662 22.1729C96.9088 20.7044 97.3714 19.3057 97.6151 17.8746C97.8027 16.7035 97.878 15.5032 97.8388 14.3049C97.8202 15.1229 97.7437 15.9365 97.6104 16.7339Z" fill="black"/>
<path d="M83.1503 11.4426C83.236 10.9089 83.1949 10.3511 83.0332 9.85244C82.8856 9.42407 82.4674 9.14174 82.1863 9.41272C81.9052 9.68369 81.945 10.2889 81.8759 10.7757C81.7424 11.733 81.056 12.3853 80.3532 12.5379C80.024 12.6109 79.6574 12.5817 79.4021 12.2863C79.2376 12.0681 79.1166 11.7949 79.0507 11.4929C78.8707 10.818 78.7615 10.111 78.7262 9.39324C78.6667 10.4914 78.7774 11.5946 79.0507 12.6287C79.1166 12.9307 79.2376 13.204 79.4021 13.4222C79.6574 13.7175 80.024 13.7467 80.3532 13.6737C81.0478 13.5212 81.7377 12.8624 81.8759 11.9115C81.9427 11.4247 81.897 10.8357 82.1875 10.5567C82.478 10.2776 82.8903 10.568 83.0343 10.9964C83.0845 11.1389 83.1234 11.2885 83.1503 11.4426Z" fill="black"/>
</g>
</g>
<defs>
<clipPath id="clip0_73_216">
<rect width="134" height="116" fill="white"/>
</clipPath>
</defs>
</svg>
