<svg width="134" height="116" viewBox="0 0 134 116" fill="none" xmlns="http://www.w3.org/2000/svg">
<g clip-path="url(#clip0_73_9)">
<path opacity="0.1" d="M44.5495 115.935C51.0752 115.935 56.3653 114.896 56.3653 113.615C56.3653 112.335 51.0752 111.296 44.5495 111.296C38.0238 111.296 32.7336 112.335 32.7336 113.615C32.7336 114.896 38.0238 115.935 44.5495 115.935Z" fill="#FFB163"/>
<path opacity="0.1" d="M108.779 116C116.922 116 123.523 114.962 123.523 113.681C123.523 112.4 116.922 111.361 108.779 111.361C100.636 111.361 94.0343 112.4 94.0343 113.681C94.0343 114.962 100.636 116 108.779 116Z" fill="#FFB163"/>
<path opacity="0.1" d="M1.67825 50.1204H13.9852V70.6205H2.57923C2.54892 70.8309 2.51981 71.0429 2.48829 71.2548H13.9852V87.7877C13.9646 87.7803 13.9464 87.7714 13.927 87.7625C13.602 87.6054 13.2794 87.4394 12.9569 87.2616L12.7507 87.1475C12.4274 86.9607 12.104 86.7631 11.7806 86.5547C11.6679 86.4821 11.5551 86.4065 11.4435 86.3294C9.64834 85.1004 8.0175 83.5432 6.60758 81.7116C6.56635 81.6627 6.52754 81.6108 6.48631 81.5634C6.28987 81.3026 6.09706 81.0388 5.91032 80.7691L5.70417 80.4727C5.48347 80.1422 5.27005 79.8028 5.06269 79.459C5.03237 79.4086 5.00327 79.3582 4.97174 79.3108C4.12842 77.8818 3.42819 76.3344 2.88603 74.7019C2.86905 74.653 2.8545 74.5996 2.83873 74.5537C2.6722 74.03 2.52466 73.5015 2.39613 72.9679C2.34035 72.7442 2.28699 72.5234 2.24091 72.2907C2.22393 72.2225 2.20938 72.1558 2.19604 72.0891C1.50727 68.8036 1.42603 65.3906 1.42603 62.0013C1.42603 61.6057 1.42603 61.2085 1.42603 60.8158C1.42603 59.4449 1.43936 58.0652 1.45877 56.687C1.45877 56.3298 1.47089 55.9742 1.47696 55.6155C1.49393 54.7056 1.51819 53.7957 1.54971 52.8857C1.55699 52.6323 1.56669 52.3804 1.5776 52.1284C1.5776 51.9832 1.58367 51.838 1.59579 51.6927C1.6249 51.1652 1.64915 50.642 1.67825 50.1204Z" fill="#FFB163"/>
<path opacity="0.1" d="M13.9852 27.295H7.2345C8.33186 25.1959 9.53085 23.1788 10.8251 21.2544C11.8279 19.7488 12.8865 18.2816 13.9852 16.8678V27.295Z" fill="#FFB163"/>
<path opacity="0.1" d="M13.9852 27.9293V49.486H1.71704C1.71704 49.4238 1.72553 49.3601 1.72917 49.2978C1.74008 49.1274 1.75099 48.957 1.76312 48.788C1.77646 48.5895 1.79101 48.3894 1.80678 48.1952C1.82254 48.0011 1.83952 47.764 1.85771 47.5491C1.87589 47.3342 1.89287 47.1164 1.91349 46.9015C1.9341 46.6866 1.95229 46.4717 1.97412 46.2583C1.99594 46.0449 2.01535 45.8285 2.03839 45.6151C2.05658 45.4373 2.07598 45.2609 2.09538 45.0831C2.12327 44.8327 2.15237 44.5807 2.1839 44.3317C2.1839 44.2947 2.19239 44.2562 2.19724 44.2206C2.41857 42.398 2.72014 40.5913 3.10065 38.8084C3.49894 36.9382 4.00756 35.1056 4.62249 33.3251C5.27606 31.4625 6.04128 29.6615 6.91193 27.9367L13.9852 27.9293Z" fill="#FFB163"/>
<path opacity="0.1" d="M16.9235 50.1188V70.6205H43.2095V50.1188H16.9235ZM16.9235 71.2533V88.8591C17.0738 88.8976 17.223 88.9347 17.3709 88.9658C17.5722 89.0132 17.7723 89.0562 17.9772 89.0933C18.016 89.1007 18.0561 89.1081 18.0985 89.1125C18.1785 89.1288 18.261 89.1422 18.341 89.1555C18.5435 89.1896 18.7448 89.2177 18.9473 89.24C19.0431 89.2518 19.1401 89.2622 19.2372 89.2711L19.4712 89.2933C19.5985 89.3052 19.7246 89.3141 19.8495 89.3185C19.9271 89.3185 20.0047 89.3274 20.0848 89.3304C20.1454 89.3304 20.206 89.3304 20.2691 89.3304C20.3322 89.3304 20.4219 89.3304 20.4983 89.3304C20.6026 89.3304 20.7069 89.3304 20.8099 89.3304H20.9494C21.0537 89.3304 21.158 89.3304 21.261 89.3185H21.2683C21.3398 89.3185 21.4126 89.3185 21.4854 89.3067C21.5056 89.3081 21.5258 89.3081 21.546 89.3067C21.6066 89.3067 21.6673 89.3067 21.7255 89.2963H21.7679L22.1741 89.2578C22.3075 89.2429 22.4421 89.2237 22.5779 89.2059L22.8544 89.1659C23.9792 88.9733 25.0915 88.6841 26.1831 88.3004C28.635 87.4646 31.0336 86.2953 33.4843 85.4387C36.6529 84.3346 40.1537 83.7922 43.2156 85.1423V71.2533H16.9235ZM43.2095 27.295V0.00144703C40.3317 -0.036658 37.4616 0.374709 34.669 1.22556C28.0129 3.2692 22.0407 7.70178 16.9235 13.3629V27.2935H18.2428V27.9263H16.9235V49.486H43.2095V27.9278H23.6596V27.295H43.2095ZM76.9727 18.0756C75.3259 18.0045 73.6889 17.3672 72.2083 16.3832C69.3768 14.5011 67.1152 11.5949 64.5881 9.14226C59.3375 4.0339 52.8257 0.951392 46.1453 0.186694V27.295H83.67L83.7634 27.1749L76.9727 18.0756ZM80.3911 17.3346L84.0156 22.1955V16.0601C82.8018 16.2439 81.7383 16.6811 80.3959 17.3287L80.3911 17.3346ZM84.0156 93.2309V71.2533H76.2924C76.2718 71.1599 76.2512 71.065 76.2269 70.9702C76.25 71.065 76.2694 71.1599 76.2912 71.2533H46.1502V87.1474C46.4363 87.4068 46.7189 87.6795 46.999 87.9566C47.3009 88.253 47.5993 88.5657 47.8988 88.8724L48.2007 89.1777C48.345 89.3259 48.4905 89.4741 48.6373 89.6134C48.9283 89.9019 49.2221 90.1865 49.5188 90.467C49.6656 90.6152 49.8159 90.7486 49.9651 90.8879C52.333 93.1005 54.8309 95.0971 57.4385 96.8618C58.023 97.257 58.6127 97.6428 59.2077 98.0192C59.6042 98.2667 60.0032 98.5127 60.4034 98.7513C61.0048 99.1099 61.6111 99.4557 62.2223 99.7887C67.8569 102.88 73.8151 105.001 79.9266 106.091C81.284 106.337 82.6466 106.529 84.0144 106.669V93.2294H84.1357L84.0156 93.2309ZM46.1502 27.9278V49.486H84.0205V27.9278H46.1502ZM46.1502 50.1188V70.6205H84.0205V50.1188H46.1502ZM86.9599 16.0334V22.8772L91.586 16.6737C90.0533 16.3713 88.5112 16.1555 86.9599 16.026V16.0334ZM86.9599 50.1262V70.6205H123.793V50.1188L86.9599 50.1262ZM123.659 94.8581L123.789 71.2533H86.9599V106.905C89.3324 107.027 91.7085 106.992 94.078 106.801H94.1192C95.251 106.714 96.3775 106.588 97.4988 106.422H97.5243C103.506 105.571 109.355 103.664 114.889 100.759M130.896 53.4948C130.757 53.0961 130.613 52.7004 130.466 52.3092C130.192 51.5682 129.903 50.848 129.604 50.1277H126.73V70.6205H133.996C133.993 64.817 132.791 58.8891 130.899 53.4874L130.896 53.4948ZM126.73 71.2607V91.5637C128.777 89.1659 130.506 86.4227 131.752 83.2869C133.249 79.5108 133.935 75.4221 133.99 71.2577L126.73 71.2607ZM126.73 44.1524V49.4875H129.335C128.547 47.6509 127.679 45.8675 126.734 44.145L126.73 44.1524ZM101.75 20.0555C101.559 19.9666 101.367 19.8762 101.174 19.7888C99.1408 18.871 97.0628 18.1078 94.9523 17.5036L87.873 26.9986L87.7372 27.1749L87.8281 27.2964H113.024C109.515 24.3444 105.732 21.9113 101.754 20.0481L101.75 20.0555ZM113.763 27.9352H87.4764L86.9599 28.5131V49.486H91.4878H91.4951H123.798V39.3271C120.876 35.008 117.503 31.1756 113.766 27.9278L113.763 27.9352Z" fill="#FFB163"/>
<path opacity="0.1" d="M13.9852 38.8025V49.486H1.71704C1.71704 49.4238 1.72553 49.3601 1.72917 49.2978C1.74008 49.1274 1.75099 48.957 1.76312 48.788C1.77646 48.5894 1.79101 48.3894 1.80678 48.1952C1.82254 48.0011 1.83952 47.764 1.85771 47.5491C1.87589 47.3342 1.89287 47.1164 1.91349 46.9015C1.9341 46.6866 1.95229 46.4717 1.97412 46.2583C1.99594 46.0449 2.01535 45.8285 2.03839 45.6151C2.05658 45.4373 2.07598 45.2609 2.09538 45.0831C2.12327 44.8326 2.15237 44.5807 2.1839 44.3317C2.1839 44.2947 2.19239 44.2562 2.19724 44.2206C2.41857 42.398 2.72014 40.5913 3.10065 38.8084L13.9852 38.8025Z" fill="#FFB163"/>
<path opacity="0.1" d="M1.67825 50.1204H13.9852V70.6205H2.57923C2.54892 70.8309 2.51981 71.0429 2.48829 71.2548H13.9852V87.7877C13.9646 87.7803 13.9464 87.7714 13.927 87.7625C13.602 87.6054 13.2794 87.4394 12.9569 87.2616L12.7507 87.1475C12.4274 86.9607 12.104 86.7631 11.7806 86.5547C11.6679 86.4821 11.5551 86.4065 11.4435 86.3294C9.64834 85.1004 8.0175 83.5432 6.60758 81.7116C6.56635 81.6627 6.52754 81.6108 6.48631 81.5634C6.28987 81.3026 6.09706 81.0388 5.91032 80.7691L5.70417 80.4727C5.48347 80.1422 5.27005 79.8028 5.06269 79.459C5.03237 79.4086 5.00327 79.3582 4.97174 79.3108C4.12842 77.8818 3.42819 76.3344 2.88603 74.7019C2.86905 74.653 2.8545 74.5996 2.83873 74.5537C2.6722 74.03 2.52466 73.5015 2.39613 72.9679C2.34035 72.7442 2.28699 72.5234 2.24091 72.2907C2.22393 72.2225 2.20938 72.1558 2.19604 72.0891C1.50727 68.8036 1.42603 65.3906 1.42603 62.0013C1.42603 61.6057 1.42603 61.2085 1.42603 60.8158C1.42603 59.4449 1.43936 58.0652 1.45877 56.687C1.45877 56.3298 1.47089 55.9742 1.47696 55.6155C1.49393 54.7056 1.51819 53.7957 1.54971 52.8857C1.55699 52.6323 1.56669 52.3804 1.5776 52.1284C1.5776 51.9832 1.58367 51.838 1.59579 51.6927C1.6249 51.1652 1.64915 50.642 1.67825 50.1204Z" fill="#FFB163"/>
<path opacity="0.1" d="M26.177 31.0147V49.4861H16.9235V31.0147H18.2428V24.7608H23.6584V31.0147H26.177Z" fill="#FFB163"/>
<path opacity="0.1" d="M26.1769 50.1189H16.9246V70.619H26.1769V50.1189Z" fill="#FFB163"/>
<path opacity="0.1" d="M16.9235 71.2548H26.177V88.2975C25.0855 88.6808 23.9731 88.9695 22.8484 89.1614L22.5719 89.2029C22.4361 89.2222 22.3015 89.2385 22.1681 89.2548C22.0347 89.2711 21.8964 89.283 21.7618 89.2933H21.7194C21.6612 89.2933 21.5981 89.3022 21.5411 89.3037H21.4793C21.4065 89.3037 21.3338 89.3126 21.261 89.3156C21.158 89.323 21.0549 89.3245 20.9494 89.3259C20.9045 89.3259 20.8621 89.3259 20.8172 89.3259C20.7129 89.3259 20.6098 89.3259 20.5056 89.3259H20.2764C20.2145 89.3259 20.1551 89.3259 20.0908 89.3259L19.8568 89.3156C19.7355 89.3156 19.6046 89.2993 19.4785 89.2889L19.2456 89.2681L18.9558 89.2355C18.7521 89.2133 18.5496 89.1852 18.3495 89.1511L18.107 89.1096L17.9857 89.0888C17.7832 89.0503 17.5831 89.0088 17.3794 88.9614C17.2303 88.9303 17.0823 88.8917 16.9319 88.8547L16.9235 71.2548Z" fill="#FFB163"/>
<path opacity="0.1" d="M84.0205 28.8333H76.3906V49.4846H84.0205V28.8333Z" fill="#FFB163"/>
<path opacity="0.1" d="M84.0217 50.1189V70.6205H46.1501V61.7776H66.3222V66.9941H76.3906V50.1189H84.0217Z" fill="#FFB163"/>
<path opacity="0.1" d="M84.1417 93.2354H84.0204V106.684C82.6542 106.543 81.292 106.351 79.9339 106.108C73.8194 105.014 67.8587 102.888 62.2223 99.7917C60.5949 98.8966 59.0007 97.9194 57.4397 96.8603C54.8321 95.0948 52.3339 93.0982 49.9651 90.8865C49.3701 90.3293 48.7828 89.7592 48.2031 89.1763C47.8017 88.7717 47.4028 88.3568 46.999 87.9537C46.7189 87.6765 46.4363 87.4039 46.1501 87.143V71.2548H76.29C76.2693 71.1599 76.2487 71.0651 76.2269 70.9717C76.2499 71.0651 76.2718 71.1599 76.2924 71.2548H84.0204V93.2265C84.0617 93.228 84.1017 93.2325 84.1417 93.2354Z" fill="#FFB163"/>
<path opacity="0.1" d="M103.92 27.295H98.9479V25.4069H101.177V19.7828C101.37 19.8688 101.562 19.9572 101.754 20.0481V25.4069H103.92V27.295Z" fill="#FFB163"/>
<path opacity="0.1" d="M115.898 49.486H91.4902C91.4902 49.486 91.4902 49.4861 91.4987 49.4935L91.4878 49.486H86.9598V28.8347H88.2428V44.0991H94.1058V35.059H98.9491V27.9293H103.921V35.065H108.764V44.105H115.898V49.486Z" fill="#FFB163"/>
<path opacity="0.1" d="M86.9598 50.1189V70.6205H115.898V50.1189H86.9598ZM123.753 94.753L123.793 78.5254H115.898V71.2637H86.9598V106.905C89.3323 107.027 91.7085 106.992 94.078 106.801H94.1192C95.251 106.714 96.3775 106.588 97.4988 106.422H97.5242C103.506 105.571 109.355 103.664 114.889 100.759" fill="#FFB163"/>
<path opacity="0.1" d="M127.244 71.2548H133.995C133.936 75.4176 133.252 79.5064 131.755 83.2825C130.51 86.4198 128.78 89.1629 126.735 91.5593V78.5179H127.244V71.2548Z" fill="#FFB163"/>
<path opacity="0.1" d="M133.999 70.6205H127.245V53.4874H130.899C132.791 58.8892 133.993 64.8171 133.999 70.6205Z" fill="#FFB163"/>
<path opacity="0.1" d="M84.0216 34.5745H79.9338V41.0492H84.0216V34.5745Z" fill="#FFB163"/>
<path opacity="0.1" d="M84.0216 47.9952H79.9338V49.486H84.0216V47.9952Z" fill="#FFB163"/>
<path opacity="0.1" d="M84.0216 50.1189H79.9338V54.4685H84.0216V50.1189Z" fill="#FFB163"/>
<path opacity="0.1" d="M84.0216 61.416H79.9338V67.8907H84.0216V61.416Z" fill="#FFB163"/>
<path opacity="0.1" d="M84.0216 74.8367H79.9338V81.3115H84.0216V74.8367Z" fill="#FFB163"/>
<path opacity="0.1" d="M84.0204 93.2265C84.0616 93.2265 84.1016 93.2265 84.1417 93.2354H84.0204V94.7396H79.9338V88.2574H84.0204V93.2265Z" fill="#FFB163"/>
<path opacity="0.1" d="M84.0204 101.675V106.677C82.6542 106.536 81.292 106.343 79.9338 106.1V101.675H84.0204Z" fill="#FFB163"/>
<path opacity="0.1" d="M63.669 70.1448H46.1501V70.6205H63.669V70.1448Z" fill="#FFB163"/>
<path opacity="0.1" d="M63.669 71.2533H46.1501V73.0761H63.669V71.2533Z" fill="#FFB163"/>
<path opacity="0.1" d="M63.669 79.0515H46.1501V81.9828H63.669V79.0515Z" fill="#FFB163"/>
<path opacity="0.1" d="M63.6677 87.9581V90.8895H49.965C49.37 90.3342 48.7823 89.7642 48.2018 89.1793C47.8004 88.7747 47.4027 88.3597 46.9977 87.9581H63.6677Z" fill="#FFB163"/>
<path opacity="0.1" d="M63.6677 96.8633V99.7916H62.2211C60.5954 98.8955 59.0016 97.9179 57.4397 96.8588L63.6677 96.8633Z" fill="#FFB163"/>
<path opacity="0.1" d="M97.5278 52.1062H94.0791V56.3209H97.5278V52.1062Z" fill="#FFB163"/>
<path opacity="0.1" d="M22.8568 32.4686H19.4081V36.6833H22.8568V32.4686Z" fill="#FFB163"/>
<path opacity="0.1" d="M22.8568 42.2585H19.4081V46.4732H22.8568V42.2585Z" fill="#FFB163"/>
<path opacity="0.1" d="M22.8568 52.0484H19.4081V56.2631H22.8568V52.0484Z" fill="#FFB163"/>
<path opacity="0.1" d="M22.8568 61.8369H19.4081V66.0516H22.8568V61.8369Z" fill="#FFB163"/>
<path opacity="0.1" d="M22.8568 71.6268H19.4081V75.8415H22.8568V71.6268Z" fill="#FFB163"/>
<path opacity="0.1" d="M22.8568 81.4167H19.4081V85.6314H22.8568V81.4167Z" fill="#FFB163"/>
<path opacity="0.1" d="M110.693 52.1062H107.245V56.3209H110.693V52.1062Z" fill="#FFB163"/>
<path opacity="0.1" d="M97.5278 62.5023H94.0791V66.717H97.5278V62.5023Z" fill="#FFB163"/>
<path opacity="0.1" d="M110.693 62.5023H107.245V66.717H110.693V62.5023Z" fill="#FFB163"/>
<path opacity="0.1" d="M97.5278 72.8968H94.0791V77.1115H97.5278V72.8968Z" fill="#FFB163"/>
<path opacity="0.1" d="M110.693 72.8968H107.245V77.1115H110.693V72.8968Z" fill="#FFB163"/>
<path opacity="0.1" d="M97.5278 83.2928H94.0791V87.5076H97.5278V83.2928Z" fill="#FFB163"/>
<path opacity="0.1" d="M110.693 83.2928H107.245V87.5076H110.693V83.2928Z" fill="#FFB163"/>
<path opacity="0.1" d="M97.5278 93.6889H94.0791V97.9036H97.5278V93.6889Z" fill="#FFB163"/>
<path opacity="0.1" d="M110.693 93.6889H107.245V97.9036H110.693V93.6889Z" fill="#FFB163"/>
<path opacity="0.1" d="M94.0791 106.801V104.083H97.5266V106.415L94.0791 106.801Z" fill="#FFB163"/>
<path opacity="0.1" d="M2.18274 44.2177V46.6288H13.9852V44.2177H2.18274ZM3.35899 46.4777H2.39616V44.3658H3.36626L3.35899 46.4777ZM4.53402 46.4777H3.56392V44.3658H4.53402V46.4777ZM5.70663 46.4777H4.73653V44.3658H5.70663V46.4777ZM6.88166 46.4777H5.91278V44.3658H6.88288L6.88166 46.4777ZM8.05549 46.4777H7.08539V44.3658H8.05549V46.4777ZM9.23052 46.4777H8.26042V44.3658H9.23052V46.4777ZM10.4056 46.4777H9.43545V44.3658H10.4056V46.4777ZM11.5794 46.4777H10.6093V44.3658H11.5794V46.4777ZM12.7532 46.4777H11.7831V44.3658H12.7532V46.4777ZM13.927 46.4777H12.9569V44.3658H13.927V46.4777Z" fill="#FFB163"/>
<path opacity="0.1" d="M2.18274 51.2333V53.6444H13.9852V51.2333H2.18274ZM3.35899 53.4918H2.39616V51.3859H3.36626L3.35899 53.4918ZM4.53402 53.4918H3.56392V51.3859H4.53402V53.4918ZM5.70663 53.4918H4.73653V51.3859H5.70663V53.4918ZM6.88166 53.4918H5.91278V51.3859H6.88288L6.88166 53.4918ZM8.05549 53.4918H7.08539V51.3859H8.05549V53.4918ZM9.23052 53.4918H8.26042V51.3859H9.23052V53.4918ZM10.4056 53.4918H9.43545V51.3859H10.4056V53.4918ZM11.5794 53.4918H10.6093V51.3859H11.5794V53.4918ZM12.7532 53.4918H11.7831V51.3859H12.7532V53.4918ZM13.927 53.4918H12.9569V51.3859H13.927V53.4918Z" fill="#FFB163"/>
<path opacity="0.1" d="M2.18274 58.252V60.6676H13.9852V58.252H2.18274ZM3.35899 60.5105H2.39616V58.4031H3.36626L3.35899 60.5105ZM4.53402 60.5105H3.56392V58.4031H4.53402V60.5105ZM5.70663 60.5105H4.73653V58.4031H5.70663V60.5105ZM6.88166 60.5105H5.91278V58.4031H6.88288L6.88166 60.5105ZM8.05549 60.5105H7.08539V58.4031H8.05549V60.5105ZM9.23052 60.5105H8.26042V58.4031H9.23052V60.5105ZM10.4056 60.5105H9.43545V58.4031H10.4056V60.5105ZM11.5794 60.5105H10.6093V58.4031H11.5794V60.5105ZM12.7532 60.5105H11.7831V58.4031H12.7532V60.5105ZM13.927 60.5105H12.9569V58.4031H13.927V60.5105Z" fill="#FFB163"/>
<path opacity="0.1" d="M2.18274 65.2706V67.6788H13.9852V65.2706H2.18274ZM3.35899 67.5291H2.39616V65.4202H3.36626L3.35899 67.5291ZM4.53402 67.5291H3.56392V65.4202H4.53402V67.5291ZM5.70663 67.5291H4.73653V65.4202H5.70663V67.5291ZM6.88166 67.5291H5.91278V65.4202H6.88288L6.88166 67.5291ZM8.05549 67.5291H7.08539V65.4202H8.05549V67.5291ZM9.23052 67.5291H8.26042V65.4202H9.23052V67.5291ZM10.4056 67.5291H9.43545V65.4202H10.4056V67.5291ZM11.5794 67.5291H10.6093V65.4202H11.5794V67.5291ZM12.7532 67.5291H11.7831V65.4202H12.7532V67.5291ZM13.927 67.5291H12.9569V65.4202H13.927V67.5291Z" fill="#FFB163"/>
<path opacity="0.1" d="M2.23364 72.2877C2.28093 72.5145 2.33429 72.7412 2.39007 72.965V72.4389H3.36017V74.5463H2.84117C2.85693 74.5952 2.8727 74.6485 2.88846 74.6945H13.9852V72.2877H2.23364ZM4.53763 74.5463H3.56753V72.4389H4.53763V74.5463ZM5.71024 74.5463H4.74014V72.4389H5.71024V74.5463ZM6.88527 74.5463H5.91275V72.4389H6.88285L6.88527 74.5463ZM8.0591 74.5463H7.08899V72.4389H8.0591V74.5463ZM9.23413 74.5463H8.26403V72.4389H9.23413V74.5463ZM10.4092 74.5463H9.43906V72.4389H10.4092V74.5463ZM11.583 74.5463H10.6129V72.4389H11.583V74.5463ZM12.7568 74.5463H11.7867V72.4389H12.7568V74.5463ZM13.9306 74.5463H12.9605V72.4389H13.9306V74.5463Z" fill="#FFB163"/>
<path opacity="0.1" d="M4.97424 79.3063C5.00456 79.3538 5.03366 79.4071 5.06519 79.4545H5.70667V80.4667C5.77579 80.5675 5.8437 80.6683 5.91403 80.7631V79.4486H6.88413V81.5634H6.49124C6.53004 81.6123 6.56763 81.6642 6.6125 81.7116H13.9889V79.3063H4.97424ZM8.05552 81.5634H7.08542V79.4575H8.05552V81.5634ZM9.23056 81.5634H8.26046V79.4575H9.23056V81.5634ZM10.4056 81.5634H9.43549V79.4575H10.4056V81.5634ZM11.5794 81.5634H10.6093V79.4575H11.5794V81.5634ZM12.7532 81.5634H11.7831V79.4575H12.7532V81.5634ZM13.9271 81.5634H12.957V79.4575H13.9271V81.5634Z" fill="#FFB163"/>
<path opacity="0.1" d="M11.4484 86.3235C11.5587 86.4005 11.6715 86.4717 11.7855 86.5487V86.4747H12.7556V87.1415L12.9617 87.2586V86.4747H13.9318V87.7566C13.9504 87.7679 13.9699 87.7768 13.99 87.7832V86.3235H11.4484Z" fill="#FFB163"/>
<path opacity="0.1" d="M76.2268 70.9702C76.2499 71.0651 76.2693 71.1599 76.2911 71.2533C76.2717 71.1599 76.2511 71.0651 76.2268 70.9702ZM18.2476 27.2905V27.9233H23.6644V27.2905H18.2476ZM76.2268 70.9702C76.2499 71.0651 76.2693 71.1599 76.2911 71.2533C76.2717 71.1599 76.2511 71.0651 76.2268 70.9702ZM76.2268 70.9702C76.2499 71.0651 76.2693 71.1599 76.2911 71.2533C76.2717 71.1599 76.2511 71.0651 76.2268 70.9702Z" fill="#FFB163"/>
<path d="M55.9747 56.2661C55.9747 56.2661 55.497 56.1846 55.497 55.334C55.497 54.4833 55.155 52.8946 55.155 52.8946C55.155 52.8872 54.8591 50.1278 54.4505 49.6891C54.0418 49.2505 53.5168 46.6748 53.5168 46.6748C53.5168 46.6748 53.427 45.2773 53.2439 44.9764C53.0608 44.6756 52.8134 43.9391 52.4484 42.8883C52.0834 41.8376 50.5616 41.11 50.5616 41.11C50.5616 41.11 47.8101 39.1597 47.0304 38.5239C46.9595 38.4717 46.8933 38.4106 46.8328 38.3416C46.6969 38.1238 46.1052 38.1193 46.1052 38.1193C46.0433 37.6422 45.9839 37.0938 45.9645 36.5974C45.9645 36.544 45.9645 36.4907 45.9585 36.4373C46.8279 35.8092 47.4828 34.8189 47.8029 33.6482C47.8174 33.5919 47.8295 33.5326 47.8429 33.4763C47.895 33.4554 47.9429 33.4213 47.9836 33.3764C48.0243 33.3315 48.0569 33.2767 48.0793 33.2155C48.1497 33.0243 48.1509 32.8005 48.2382 32.6227C48.3401 32.4123 48.5341 32.2996 48.6869 32.1411C49.0725 31.7409 49.1719 31.0666 49.1537 30.4531C49.1416 29.9566 49.0761 29.4557 49.1016 28.9622L49.1089 28.8377C49.1161 28.7636 49.1246 28.6896 49.1355 28.6184C49.195 28.2509 49.3247 27.9041 49.3975 27.5395C49.4702 27.175 49.4775 26.7645 49.3077 26.4503C49.0591 25.9894 48.5414 25.8975 48.0866 25.8501C47.5713 25.7967 47.1105 25.8664 46.7806 25.3433C46.6263 25.0698 46.4526 24.8135 46.2616 24.5771C46.1937 24.5 45.534 24.008 45.534 23.9754C44.8902 23.611 44.1604 23.5426 43.4786 23.7827C43.1367 23.9043 42.8141 24.1028 42.4673 24.2021C41.7191 24.4185 40.8582 24.1844 40.2227 24.7075C39.8687 25.0039 39.6564 25.4752 39.4576 25.9346C39.2959 26.313 39.1318 26.6909 38.9652 27.0683C38.6973 27.6892 38.4244 28.3205 38.3116 29.0082C38.2879 29.1578 38.2733 29.3094 38.268 29.4617V29.4691C38.268 29.5239 38.268 29.5787 38.268 29.6336V29.7032C38.268 29.7551 38.268 29.8055 38.2753 29.8514C38.2825 29.8974 38.2813 29.9122 38.285 29.9433C38.2886 29.9744 38.2947 30.0441 38.3019 30.0915C38.3092 30.1389 38.3238 30.2219 38.3383 30.2871C38.3444 30.3153 38.3529 30.3419 38.3601 30.3686C38.3723 30.419 38.3868 30.4679 38.4026 30.5168C38.4111 30.542 38.4196 30.5687 38.4293 30.5939C38.4475 30.6458 38.4693 30.6961 38.4911 30.7421C38.5008 30.7628 38.5081 30.7821 38.5178 30.8014C38.5516 30.8703 38.5889 30.9366 38.6293 30.9999C38.8888 31.3956 39.2708 31.6476 39.5534 32.0181C39.5534 32.0329 39.5534 32.0477 39.5534 32.061C39.5534 32.1025 39.5534 32.1425 39.5534 32.184C39.5684 33.0103 39.7483 33.8196 40.0776 34.5415C40.4068 35.2634 40.8755 35.8761 41.4426 36.3262C41.4426 36.3825 41.4487 36.4403 41.4511 36.4966C41.4748 36.9365 41.4703 37.378 41.4378 37.817C41.3884 37.7459 41.3266 37.6893 41.2569 37.6514C41.1872 37.6134 41.1115 37.5951 41.0352 37.5977C40.9831 37.5946 40.9309 37.6001 40.88 37.614L40.8691 37.6036V37.617C40.6023 37.697 40.2737 38.0364 39.9596 39.0011C39.9596 39.0011 39.0041 40.3171 38.2765 40.2623C37.5489 40.2074 35.7069 41.6316 35.7069 41.6316C35.7069 41.6316 33.9098 43.0573 33.5242 44.5096C33.3087 45.3332 33.0502 46.139 32.7505 46.9223L30.529 52.5167L30.1191 56.9552C30.1191 56.9552 30.3459 58.9292 30.301 59.2301C30.2562 59.5309 31.2335 62.2444 31.2335 62.2444C31.2335 62.2444 34.4628 69.1786 35.7821 69.5342L35.8767 69.4527C35.9331 69.4888 35.993 69.5161 36.0549 69.5342L36.3266 69.3001C36.3429 69.561 36.336 69.8234 36.306 70.0826C36.1241 70.7672 36.3739 75.2354 36.6916 76.1112C37.0093 76.9871 36.8965 88.4709 36.8965 88.4709L36.8516 89.4846C36.8516 89.4846 36.8516 89.5172 36.8626 89.5735L36.8516 89.8135L36.8844 89.8343C36.9184 90.1558 36.9073 90.4821 36.8516 90.7991C36.7377 91.2437 36.6916 92.5004 36.6916 92.5004C36.6916 92.5004 35.7833 99.5961 36.2138 101.022C36.6443 102.447 37.0105 104.009 37.0105 104.009C37.0105 104.009 37.4652 105.788 37.0323 106.092C36.5994 106.395 35.3686 106.905 35.622 107.646C35.8524 108.331 36.7267 110.165 36.8565 110.434L36.8456 110.575L36.6673 112.935C36.6962 113.247 36.7654 113.551 36.8723 113.836C37.0675 114.351 37.447 114.884 38.1686 114.826C38.2898 114.816 38.4305 114.798 38.5663 114.776C39.8868 114.56 41.513 113.839 41.513 113.839C41.4285 113.774 41.3512 113.696 41.2826 113.607C41.2177 113.53 41.1662 113.438 41.1314 113.336C41.0966 113.234 41.0791 113.124 41.0801 113.014C41.0995 112.584 40.441 110.536 40.2773 110.032C40.2518 109.959 40.2385 109.918 40.2385 109.918C40.2385 109.918 41.7397 108 41.4899 106.301C41.4899 106.301 39.8286 105.115 40.3755 104.464C40.9224 103.814 41.8998 101.945 41.8998 101.945C41.8998 101.945 41.9447 94.9575 41.8998 93.9142C41.853 93.19 41.8811 92.4616 41.9835 91.746C42.0017 91.6379 42.0235 91.5326 42.0465 91.4289C42.8029 91.5669 43.5664 91.6377 44.3311 91.6408C44.61 91.6408 44.8938 91.6408 45.18 91.6201C45.18 91.7189 45.1836 91.8256 45.1909 91.9402C45.2539 93.6711 45.3715 96.7062 45.4673 97.834C45.6032 99.4508 46.3538 103.808 46.3538 103.808C46.3538 103.808 44.9217 104.931 46.6036 107.699C46.6036 107.699 46.6036 108.703 46.492 108.848C46.3729 109.323 46.2769 109.806 46.2046 110.294C46.1343 110.816 46.1052 111.344 46.2192 111.618C46.492 112.273 48.1291 112.22 48.1291 112.22L48.1691 112.211C48.4781 112.172 48.7905 112.208 49.0879 112.318C49.3854 112.427 49.6621 112.608 49.9019 112.849C50.524 113.46 52.885 113.192 54.1631 112.998C54.6639 112.92 54.9986 112.849 54.9986 112.849C55.0148 112.78 55.0206 112.708 55.0156 112.636C55.0022 112.252 54.7561 111.41 53.0875 110.659C53.0875 110.659 51.5183 109.37 51.5402 108.246H51.5074H51.3255C51.4577 108.237 51.5426 108.246 51.5426 108.246C51.5426 108.246 50.9278 105.505 51.1788 105.282C51.4298 105.06 50.678 102.022 50.678 102.022C50.678 102.022 50.2475 96.9241 50.2245 96.5669C50.2254 96.2604 50.2634 95.9558 50.3372 95.6629L50.2245 92.8679C50.2245 92.8679 50.2027 91.9387 50.2245 91.6364C50.2208 91.374 50.2034 91.1121 50.1723 90.8524C50.1614 90.7487 50.1505 90.6405 50.1384 90.5338C50.7265 90.3515 51.1085 90.1826 51.1085 90.1826L51.0406 80.4534C51.5402 79.2678 51.6323 76.667 51.6299 74.8219C51.6299 73.6363 51.5863 72.759 51.5863 72.759L52.269 71.3971C52.269 71.3971 52.4266 69.7669 52.1768 69.4097C52.0665 69.2482 52.1162 69.0807 52.2071 68.9429C52.2544 68.8971 52.3042 68.8555 52.3563 68.8184C52.3563 68.8184 52.349 68.8051 52.3405 68.7858C52.3882 68.7372 52.4389 68.6931 52.4921 68.6539C52.4921 68.6539 52.2496 68.1945 52.4666 68.0004C52.6703 68.1693 52.8522 68.2968 52.9905 68.4005C52.9808 68.5087 52.9711 68.5709 52.9711 68.5709L53.0293 68.4227C53.1627 68.5146 53.2439 68.5709 53.2439 68.5709C53.2439 68.5709 54.3135 65.9671 54.2904 65.5833C54.2674 65.1995 55.018 63.5826 55.018 63.5826C55.018 63.5826 55.1089 62.7334 55.5188 62.3778C55.9287 62.0221 55.8365 59.4449 55.8365 59.4449C55.8365 59.4449 55.9505 58.1023 56.2233 57.5539C56.4962 57.0056 55.9747 56.2661 55.9747 56.2661ZM35.5105 55.1235L35.5311 55.7445C35.4098 55.5059 35.3225 55.334 35.3225 55.334L35.5105 55.1235Z" fill="url(#paint0_linear_73_9)"/>
<path d="M53.3022 67.4461L53.0403 68.8095C53.0403 68.8095 50.9424 67.5009 50.5641 65.8382C50.1858 64.1754 51.1971 63.5441 51.1971 63.5441L53.1518 64.5563L53.3022 67.4461Z" fill="white"/>
<path opacity="0.1" d="M53.3022 67.4461L53.0403 68.8095C53.0403 68.8095 50.9424 67.5009 50.5641 65.8382C50.1858 64.1754 51.1971 63.5441 51.1971 63.5441L53.1518 64.5563L53.3022 67.4461Z" fill="black"/>
<path d="M41.5288 113.848C41.5288 113.848 39.5886 114.72 38.2547 114.829C37.5465 114.887 37.1743 114.356 36.9827 113.845C36.878 113.561 36.8105 113.258 36.7826 112.949L36.956 110.6L37.0482 109.349L39.8821 108.449L40.2834 109.949L40.321 110.063C40.4823 110.564 41.1286 112.602 41.1092 113.027C41.1084 113.136 41.1257 113.244 41.1598 113.345C41.194 113.445 41.2444 113.536 41.3081 113.613C41.3732 113.702 41.4473 113.781 41.5288 113.848Z" fill="white"/>
<path d="M54.7816 112.654C54.7864 112.725 54.7807 112.797 54.7646 112.866C54.7646 112.866 50.615 113.712 49.7661 112.866C49.5268 112.618 49.2478 112.435 48.9471 112.327C48.6464 112.22 48.3306 112.19 48.02 112.24C48.02 112.24 46.4144 112.294 46.1465 111.647C46.0349 111.376 46.064 110.85 46.1331 110.331C46.2036 109.845 46.2976 109.365 46.4144 108.892L46.4787 108.83L46.8607 108.455L51.3329 108.294H51.3668C51.345 109.411 52.885 110.693 52.885 110.693C54.5208 111.434 54.7622 112.271 54.7816 112.654Z" fill="white"/>
<path opacity="0.1" d="M54.7815 112.654C54.7858 112.725 54.7796 112.797 54.7633 112.866C54.7633 112.866 50.6149 113.712 49.7661 112.866C49.5269 112.619 49.2482 112.435 48.9477 112.328C48.6472 112.22 48.3316 112.19 48.0211 112.24C48.0211 112.24 46.4144 112.294 46.1476 111.647C46.0361 111.375 46.064 110.85 46.1331 110.331C46.7515 110.407 47.7277 110.595 48.1109 111.044C48.6905 111.727 49.6727 112.409 50.2754 112.462C50.7471 112.5 53.5689 112.609 54.7815 112.654Z" fill="black"/>
<path opacity="0.1" d="M41.5288 113.848C41.5288 113.848 39.5886 114.72 38.2547 114.829C37.5465 114.887 37.1743 114.356 36.9839 113.844C37.4774 114.047 38.1626 114.26 38.5227 114.065C38.9496 113.833 40.4629 113.684 41.3117 113.62C41.3764 113.706 41.4492 113.783 41.5288 113.848Z" fill="black"/>
<path d="M44.4076 43.6249C42.8069 42.8646 40.7479 40.3527 41.262 39.179C41.3762 38.8828 41.4441 38.5631 41.4621 38.2364C41.4952 37.793 41.5 37.347 41.4767 36.9026C41.4406 36.1749 41.3689 35.4504 41.262 34.733C41.262 34.733 46.2592 34.8709 45.9682 35.7704C45.8833 36.0342 45.87 36.4921 45.893 37.0049C45.9161 37.5177 45.9767 38.0971 46.0398 38.5876C46.1271 39.2605 46.2144 39.7732 46.2144 39.7732C46.2144 39.7732 45.9088 40.2964 45.7293 40.3245C45.5499 40.3527 46.7043 44.7082 44.4076 43.6249Z" fill="#CF6F80"/>
<path opacity="0.1" d="M40.3174 110.063L40.2798 110.114C38.7859 107.905 36.9791 110.657 36.9791 110.657L36.9524 110.6L37.0446 109.349L39.8785 108.449L40.2798 109.949L40.3174 110.063Z" fill="black"/>
<path opacity="0.1" d="M51.3681 108.449C51.3681 108.449 50.2767 108.421 49.6946 109.05C49.1126 109.678 46.2993 109.186 46.4206 109.05C46.4565 108.982 46.4781 108.905 46.4836 108.824L46.8656 108.449L51.3378 108.288C51.3547 108.387 51.3681 108.449 51.3681 108.449Z" fill="black"/>
<path d="M42.1764 91.1088C42.0951 91.3544 42.0334 91.609 41.9921 91.869C41.891 92.5812 41.8628 93.3061 41.9084 94.0268C41.9533 95.0642 41.9084 102.016 41.9084 102.016C41.9084 102.016 40.9492 103.87 40.4144 104.524C39.8797 105.177 41.5058 106.351 41.5058 106.351C41.7483 108.04 40.2786 109.949 40.2786 109.949C38.7847 107.741 36.9779 110.494 36.9779 110.494C36.9779 110.494 35.9956 108.42 35.7507 107.679C35.5057 106.938 36.7099 106.425 37.1331 106.124C37.5563 105.823 37.1125 104.049 37.1125 104.049C37.1125 104.049 36.7547 102.495 36.3303 101.077C35.9059 99.6583 36.7984 92.5982 36.7984 92.5982C36.7984 92.5982 36.8445 91.3444 36.9548 90.9072C37.0105 90.5918 37.0216 90.267 36.9876 89.9469C36.9803 89.8387 36.9718 89.7483 36.9657 89.6876C36.9597 89.6268 36.9548 89.5987 36.9548 89.5987L36.9718 89.5631L37.5781 88.1819C37.5781 88.1819 42.4674 90.2389 42.1764 91.1088Z" fill="#FFB163"/>
<path d="M51.3681 108.286C51.3681 108.286 50.2767 108.258 49.6947 108.879C49.1126 109.5 46.2993 109.015 46.4206 108.879C46.5418 108.743 46.5321 107.734 46.5321 107.734C44.8817 104.98 46.2896 103.863 46.2896 103.863C46.2896 103.863 45.5523 99.5278 45.4189 97.9199C45.3256 96.7966 45.2104 93.7778 45.1485 92.0542C45.1218 91.3133 45.1061 90.8035 45.1061 90.8035L46.4545 90.4715L46.6279 90.4285L49.8802 89.6312C49.8802 89.6312 49.9699 90.3722 50.0306 90.9783C50.0608 91.2371 50.0778 91.498 50.0815 91.7593C50.0597 92.0557 50.0815 92.9834 50.0815 92.9834L50.1918 95.7651C50.1197 96.0569 50.0826 96.3599 50.0815 96.6647C50.1033 97.0189 50.5265 102.09 50.5265 102.09C50.5265 102.09 51.2626 105.116 51.0116 105.334C50.7606 105.552 51.3681 108.286 51.3681 108.286Z" fill="#FFB163"/>
<path opacity="0.1" d="M45.9682 35.7704C45.8833 36.0342 45.8699 36.4921 45.893 37.0049C45.2236 37.4975 44.4541 37.7494 43.6729 37.7315C42.8917 37.7137 42.1304 37.4269 41.4766 36.9041C41.4406 36.1758 41.3689 35.4508 41.262 34.733C41.262 34.733 46.2592 34.8679 45.9682 35.7704Z" fill="black"/>
<path d="M47.8999 32.4952C47.9009 33.0293 47.8321 33.5601 47.6962 34.0676C47.3924 35.2048 46.7694 36.1742 45.9374 36.8043C45.1053 37.4345 44.1178 37.6849 43.1493 37.5112C42.1808 37.3376 41.2937 36.7511 40.6448 35.8555C39.9959 34.9598 39.6269 33.8127 39.6031 32.6167C39.6031 32.5752 39.6031 32.5367 39.6031 32.4952C39.5937 31.822 39.6941 31.1533 39.8984 30.5281C40.1026 29.9028 40.4068 29.3335 40.793 28.8534C41.1792 28.3732 41.6397 27.9919 42.1478 27.7316C42.6559 27.4713 43.2012 27.3372 43.7521 27.3372C44.3031 27.3372 44.8484 27.4713 45.3565 27.7316C45.8646 27.9919 46.3251 28.3732 46.7113 28.8534C47.0975 29.3335 47.4016 29.9028 47.6059 30.5281C47.8102 31.1533 47.9106 31.822 47.9011 32.4952H47.8999Z" fill="#CF6F80"/>
<path opacity="0.1" d="M44.4076 43.6248C42.8069 42.8646 40.7479 40.3526 41.262 39.1789C41.3762 38.8827 41.4441 38.5631 41.4621 38.2364L43.6533 40.4371L45.009 41.7961L46.0398 38.5891C46.1271 39.2619 46.2144 39.7747 46.2144 39.7747C46.2144 39.7747 45.9088 40.2978 45.7293 40.326C45.5499 40.3541 46.7043 44.7082 44.4076 43.6248Z" fill="black"/>
<path d="M50.0742 53.3511L48.2443 90.9191L45.8579 91.1103L39.6783 69.3267L40.6921 43.4648L40.9055 38.0008L43.6533 40.7587L45.0103 42.1177L46.0713 38.8174L48.0443 40.9188L50.0742 53.3511Z" fill="#FFB163"/>
<path opacity="0.1" d="M42.1763 91.1088C42.095 91.3544 42.0333 91.609 41.992 91.869C40.2555 91.5414 38.569 90.8975 36.9887 89.9588L36.9559 89.938L36.9668 89.6994L36.9729 89.5749L37.5792 88.1937C37.5792 88.1937 42.4673 90.2388 42.1763 91.1088Z" fill="black"/>
<path opacity="0.1" d="M46.4824 91.875C46.0384 91.9672 45.5907 92.0296 45.1412 92.0617C45.1145 91.3207 45.0988 90.8109 45.0988 90.8109L46.4472 90.4789L46.4824 91.875Z" fill="black"/>
<path opacity="0.1" d="M50.0232 90.9858C49.1611 91.26 47.8296 91.5682 46.6376 91.3755L46.6206 90.436L49.8729 89.6387C49.8729 89.6387 49.9626 90.3723 50.0232 90.9858Z" fill="black"/>
<path opacity="0.1" d="M46.6157 91.5474C41.644 92.5848 37.0906 89.6105 37.0906 89.6105L37.1342 88.6027C37.1342 88.6027 37.247 77.1782 36.9341 76.3024C36.6213 75.4265 36.3775 70.985 36.5546 70.3033C36.7316 69.6216 35.9082 59.399 35.9082 59.399L35.7749 55.2494L30.8928 52.8323L33.0755 47.272C33.3704 46.4924 33.6239 45.6905 33.8347 44.8712C34.2142 43.4277 35.9762 42.0095 35.9762 42.0095C35.9762 42.0095 37.783 40.5927 38.4972 40.6461C39.2114 40.6994 40.1476 39.3923 40.1476 39.3923C40.8388 37.239 41.4645 38.2142 41.4645 38.2142C41.4645 38.3164 41.4645 38.2142 41.4305 38.5328C41.188 40.8965 45.3522 48.3657 45.4116 48.4976L45.8081 60.303L46.2095 75.2427L46.6157 91.5474Z" fill="black"/>
<path d="M46.4824 91.5475C41.5106 92.5848 36.956 89.6105 36.956 89.6105L37.0009 88.6028C37.0009 88.6028 37.1137 77.1782 36.7996 76.3024C36.4855 75.4266 36.243 70.9851 36.4212 70.3034C36.5995 69.6217 35.7749 59.399 35.7749 59.399L35.6403 55.2495L30.7559 52.8235L32.9386 47.2631C33.2328 46.4832 33.4863 45.6813 33.6977 44.8623C34.076 43.4189 35.8392 42.0006 35.8392 42.0006C35.8392 42.0006 37.646 40.5839 38.359 40.6372C39.072 40.6906 40.0094 39.3835 40.0094 39.3835C40.7018 37.2302 41.4646 38.2053 41.4646 38.2053C41.4646 38.3076 41.3918 38.3535 41.4306 38.5239C41.9642 40.8165 45.2188 48.3568 45.2783 48.4887L45.6796 60.2941L46.081 75.2339L46.4824 91.5475Z" fill="white"/>
<path opacity="0.1" d="M45.1425 48.8251C44.6077 48.5524 41.775 44.6 41.775 44.6V43.7005C41.6719 43.4041 41.0596 43.5849 40.5624 43.7923L40.7758 38.3283L41.0183 38.5743C41.5495 40.8654 45.0806 48.6932 45.1425 48.8251Z" fill="black"/>
<path d="M45.277 48.4976C44.741 48.2249 41.9083 44.2724 41.9083 44.2724V43.3729C41.8052 43.0765 41.1929 43.2573 40.6957 43.4648L40.9103 38.0007L41.1528 38.2467C41.6852 40.5379 45.2176 48.3671 45.277 48.4976Z" fill="white"/>
<path opacity="0.1" d="M37.0906 68.2093C37.1573 68.2093 40.5478 67.7736 40.5478 67.7736C40.5478 67.7736 42.6008 72.7071 42.4662 73.9075C42.3316 75.1079 42.0878 76.1705 41.262 75.9823C40.4362 75.7941 36.8177 76.1305 36.8177 76.1305L37.0906 68.2093Z" fill="black"/>
<path d="M36.9559 67.8818C37.0226 67.8818 40.4131 67.4461 40.4131 67.4461C40.4131 67.4461 42.4649 72.3811 42.3315 73.58C42.1981 74.7789 41.952 75.843 41.1274 75.6548C40.3028 75.4665 36.6831 75.803 36.6831 75.803L36.9559 67.8818Z" fill="white"/>
<path d="M39.511 65.5655C39.511 65.5655 42.6226 67.6091 42.6893 68.233C42.756 68.857 41.1056 67.9604 40.7491 67.8522C40.5144 67.7831 40.2755 67.7375 40.0348 67.7158L37.6569 67.7944L39.511 65.5655Z" fill="#CF6F80"/>
<path opacity="0.1" d="M44.2742 49.08C44.455 49.08 44.6016 48.9008 44.6016 48.6799C44.6016 48.4589 44.455 48.2797 44.2742 48.2797C44.0934 48.2797 43.9468 48.4589 43.9468 48.6799C43.9468 48.9008 44.0934 49.08 44.2742 49.08Z" fill="black"/>
<path d="M44.2742 48.917C44.455 48.917 44.6016 48.7378 44.6016 48.5168C44.6016 48.2958 44.455 48.1167 44.2742 48.1167C44.0934 48.1167 43.9468 48.2958 43.9468 48.5168C43.9468 48.7378 44.0934 48.917 44.2742 48.917Z" fill="#3F3D56"/>
<path opacity="0.1" d="M44.8768 66.4013C45.0577 66.4013 45.2043 66.2221 45.2043 66.0011C45.2043 65.7802 45.0577 65.601 44.8768 65.601C44.696 65.601 44.5494 65.7802 44.5494 66.0011C44.5494 66.2221 44.696 66.4013 44.8768 66.4013Z" fill="black"/>
<path d="M44.8768 66.2368C45.0577 66.2368 45.2043 66.0576 45.2043 65.8367C45.2043 65.6157 45.0577 65.4365 44.8768 65.4365C44.696 65.4365 44.5494 65.6157 44.5494 65.8367C44.5494 66.0576 44.696 66.2368 44.8768 66.2368Z" fill="#3F3D56"/>
<path opacity="0.1" d="M44.6004 57.7406C44.7812 57.7406 44.9278 57.5615 44.9278 57.3405C44.9278 57.1195 44.7812 56.9404 44.6004 56.9404C44.4195 56.9404 44.2729 57.1195 44.2729 57.3405C44.2729 57.5615 44.4195 57.7406 44.6004 57.7406Z" fill="black"/>
<path d="M44.6004 57.5776C44.7812 57.5776 44.9278 57.3985 44.9278 57.1775C44.9278 56.9565 44.7812 56.7773 44.6004 56.7773C44.4195 56.7773 44.2729 56.9565 44.2729 57.1775C44.2729 57.3985 44.4195 57.5776 44.6004 57.5776Z" fill="#3F3D56"/>
<path d="M52.1478 67.6328C52.1478 67.6328 52.3709 68.0419 52.1478 68.233C51.9247 68.4242 52.1696 68.8866 52.1696 68.8866C52.1696 68.8866 51.613 69.2852 51.858 69.6439C52.1029 70.0025 51.9477 71.6223 51.9477 71.6223L51.2783 72.9768C51.2783 72.9768 51.3183 73.8497 51.3208 75.0294C51.3208 76.87 51.2323 79.4575 50.7424 80.6372L50.8103 90.3159C50.8103 90.3159 48.4663 91.3622 46.5042 91.0436L46.2132 75.5125C46.2132 75.5125 46.6376 66.7051 46.794 65.0157C46.8856 64.1386 46.9229 63.2543 46.9056 62.3703C46.9056 62.3703 46.8389 59.7265 46.6146 58.4994C46.6146 58.4994 46.372 53.1836 46.3478 51.712C46.3369 51.0081 46.3672 48.954 46.4012 47.0008C46.4387 44.8653 46.4812 42.8513 46.4812 42.8513L46.0386 38.5713C46.0386 38.5713 46.4812 38.5165 46.6146 38.7344C46.6743 38.8026 46.7393 38.8636 46.8086 38.9166C47.5725 39.548 50.2719 41.4893 50.2719 41.4893C50.2719 41.4893 51.7658 42.2155 52.1235 43.2559C52.4813 44.2962 52.7298 45.0342 52.9033 45.3306C53.0767 45.627 53.1712 47.0201 53.1712 47.0201C53.1712 47.0201 53.6854 49.5839 54.0868 50.0181C54.4881 50.4523 54.7816 53.2147 54.7816 53.2147L51.2347 56.6233C51.2347 56.6233 50.923 62.2933 50.8563 62.5126C50.7896 62.732 52.1478 67.6328 52.1478 67.6328Z" fill="white"/>
<path d="M52.2823 67.6329C52.2823 67.6329 52.5042 68.0419 52.2823 68.2331C52.0604 68.4242 52.3029 68.8866 52.3029 68.8866C52.3029 68.8866 51.75 69.2897 51.9925 69.6483C52.235 70.007 52.0822 71.6268 52.0822 71.6268L51.4129 72.9813C51.4129 72.9813 51.4529 73.8542 51.4565 75.0338C51.4565 76.8744 51.368 79.462 50.8781 80.6416L50.9448 90.3204C50.9448 90.3204 48.5972 91.3667 46.6376 91.048L46.3477 75.517C46.3477 75.517 46.7722 66.7096 46.9286 65.0201C47.0202 64.1431 47.0571 63.2587 47.0389 62.3748C47.0389 62.3748 46.9722 59.731 46.7491 58.5039C46.7491 58.5039 46.5066 53.1881 46.4811 51.7165C46.4702 51.0125 46.5017 48.9585 46.5345 47.0053C46.5721 44.8697 46.6145 42.8557 46.6145 42.8557L46.03 38.518C46.03 38.518 46.6145 38.518 46.7491 38.7388C46.8083 38.8078 46.8733 38.8689 46.9431 38.9211C47.7071 39.5524 50.4076 41.4938 50.4076 41.4938C50.4076 41.4938 51.9004 42.22 52.2581 43.2603C52.6158 44.3007 52.8644 45.0387 53.039 45.3351C53.2136 45.6315 53.3058 47.0245 53.3058 47.0245C53.3058 47.0245 53.8199 49.5883 54.2213 50.0226C54.6227 50.4568 54.9125 53.2133 54.9125 53.2133L51.3656 56.6218C51.3656 56.6218 51.0539 62.2918 50.986 62.5112C50.9181 62.7305 52.2823 67.6329 52.2823 67.6329Z" fill="white"/>
<path opacity="0.1" d="M48.0345 44.1139L48.3547 45.255L46.6691 47.3298C46.7067 45.1957 46.7492 43.1803 46.7492 43.1803L46.1647 38.8425C46.1647 38.8425 46.7492 38.8425 46.8838 39.0633C46.9428 39.1322 47.0078 39.1928 47.0778 39.2441L48.5111 44.2977L48.0345 44.1139Z" fill="black"/>
<path d="M47.8999 43.7864L48.2212 44.9275L46.5357 47.0023C46.5733 44.8668 46.6157 42.8528 46.6157 42.8528L46.03 38.515C46.03 38.515 46.6157 38.515 46.7491 38.7358C46.8086 38.8044 46.8736 38.8655 46.9431 38.9181L48.3777 43.9702L47.8999 43.7864Z" fill="white"/>
<path opacity="0.1" d="M47.8999 32.4952C47.9009 33.0293 47.8321 33.5601 47.6962 34.0676C47.6733 34.072 47.6499 34.0707 47.6274 34.0638C47.6049 34.0569 47.5838 34.0446 47.5652 34.0276C47.5337 32.6938 46.9965 31.4415 46.3356 30.376C46.1501 30.0543 45.9252 29.7694 45.6687 29.5313C45.4094 29.2933 45.0869 29.1818 44.7641 29.2186C44.4003 29.2793 44.0789 29.5817 43.7115 29.6202C43.2265 29.6691 42.7924 29.2586 42.3109 29.2378C42.1152 29.2401 41.9222 29.2934 41.7446 29.3941C41.5671 29.4947 41.4092 29.6405 41.2814 29.8217C41.0285 30.1874 40.8406 30.6133 40.7297 31.0725C40.539 31.7688 40.4352 32.4962 40.4217 33.2303C40.4156 33.6452 40.3829 34.1654 40.0676 34.3166C40.0913 34.0114 40.0629 33.7035 39.9842 33.4125C39.9056 33.1214 39.7783 32.8535 39.6104 32.6256L39.6031 32.6167C39.6031 32.5752 39.6031 32.5367 39.6031 32.4952C39.5937 31.822 39.6941 31.1533 39.8984 30.5281C40.1026 29.9028 40.4068 29.3335 40.793 28.8534C41.1792 28.3732 41.6397 27.9919 42.1478 27.7316C42.6559 27.4713 43.2012 27.3372 43.7521 27.3372C44.3031 27.3372 44.8484 27.4713 45.3565 27.7316C45.8646 27.9919 46.3251 28.3732 46.7113 28.8534C47.0975 29.3335 47.4016 29.9028 47.6059 30.5281C47.8102 31.1533 47.9106 31.822 47.9011 32.4952H47.8999Z" fill="black"/>
<path d="M45.4699 24.4437C44.8397 24.0814 44.123 24.0129 43.4545 24.251C43.1186 24.3725 42.8021 24.5696 42.4613 24.6689C41.7338 24.8838 40.8849 24.6511 40.2604 25.1713C39.9136 25.4677 39.705 25.936 39.511 26.391L39.026 27.5202C38.7616 28.1382 38.4948 28.7666 38.3845 29.4468C38.2741 30.127 38.3408 30.8888 38.6937 31.4356C38.9508 31.8343 39.3303 32.0847 39.6093 32.4597C39.7763 32.6877 39.9031 32.9555 39.9815 33.2462C40.06 33.5369 40.0885 33.8443 40.0652 34.1491C40.3817 34.0009 40.412 33.4793 40.4193 33.0643C40.4328 32.3302 40.5366 31.6028 40.7273 30.9066C40.838 30.4472 41.0259 30.0212 41.279 29.6558C41.4069 29.4747 41.5648 29.329 41.7424 29.2283C41.9199 29.1277 42.1129 29.0743 42.3086 29.0719C42.7936 29.0926 43.2289 29.5016 43.7091 29.4527C44.0729 29.4157 44.3955 29.1119 44.7617 29.0526C45.0846 29.0153 45.4073 29.1268 45.6663 29.3653C45.9227 29.603 46.1473 29.888 46.332 30.21C46.9941 31.2756 47.5313 32.5249 47.5629 33.8616C47.6999 33.9846 47.8975 33.8246 47.9655 33.6349C48.0334 33.4452 48.0358 33.2229 48.1219 33.0421C48.2213 32.8331 48.4117 32.722 48.5609 32.5649C48.9392 32.1662 49.0338 31.4949 49.0192 30.8858C49.0047 30.2767 48.9077 29.6587 49.0022 29.06C49.0592 28.6925 49.1878 28.3487 49.2581 27.9856C49.3284 27.6225 49.3369 27.215 49.1708 26.9023C48.9283 26.4429 48.4178 26.3524 47.9727 26.3095C47.4671 26.2561 47.0148 26.3243 46.6922 25.8041C46.5408 25.5327 46.3704 25.2778 46.1829 25.0424C46.1186 24.9653 45.4699 24.4763 45.4699 24.4437Z" fill="#512E4E"/>
<path opacity="0.1" d="M32.2898 55.6955L31.0226 52.8323L30.6212 57.2501C30.6212 57.2501 30.8443 59.2122 30.7995 59.5131C30.7546 59.8139 31.7138 62.5111 31.7138 62.5111C31.7138 62.5111 34.8824 69.4082 36.1763 69.7639L40.5478 65.9463L39.3885 64.1472C39.3885 64.1472 38.9871 63.956 38.8865 64.1472C38.8865 64.1472 36.7341 59.6213 36.5109 59.2937C36.2878 58.9662 36.3315 58.3127 36.3315 58.3127C36.3315 58.3127 35.9968 57.877 36.1083 57.4679C36.2199 57.0589 35.462 55.6407 35.462 55.6407L36.1532 54.8508L32.2898 55.6955Z" fill="black"/>
<path d="M31.0893 52.5063L30.7547 52.8324L30.3533 57.2501C30.3533 57.2501 30.5764 59.2123 30.5315 59.5131C30.4867 59.814 31.4471 62.5112 31.4471 62.5112C31.4471 62.5112 34.6144 69.4083 35.9083 69.7639L40.281 65.9464L39.1206 64.1473C39.1206 64.1473 38.7192 63.9561 38.6185 64.1473C38.6185 64.1473 36.4661 59.6213 36.243 59.2938C36.0199 58.9663 36.0647 58.3127 36.0647 58.3127C36.0647 58.3127 35.7301 57.877 35.8416 57.468C35.9532 57.059 35.1941 55.6407 35.1941 55.6407L35.8853 54.8508L31.0893 52.5063Z" fill="white"/>
<path opacity="0.1" d="M51.858 69.8128C52.1005 70.1729 51.9477 71.7897 51.9477 71.7897L51.2783 73.1443C51.2783 73.1443 51.3184 74.0186 51.3208 75.1968L50.1955 75.6266C50.0938 75.6654 49.986 75.6739 49.881 75.6515C49.7761 75.629 49.677 75.5762 49.5922 75.4974C49.5073 75.4187 49.4391 75.3163 49.3932 75.1988C49.3474 75.0812 49.3251 74.952 49.3284 74.8219L49.5225 67.1734L52.1478 68.4005C51.9247 68.5902 52.1696 69.0555 52.1696 69.0555C52.1696 69.0555 51.613 69.4527 51.858 69.8128Z" fill="black"/>
<path d="M51.9926 69.6483C52.2351 70.0084 52.0823 71.6267 52.0823 71.6267L51.413 72.9813C51.413 72.9813 51.453 73.8541 51.4566 75.0338L50.3107 75.471C50.2111 75.5088 50.1055 75.517 50.0028 75.4949C49.9001 75.4728 49.8032 75.421 49.7201 75.3439C49.6371 75.2668 49.5703 75.1665 49.5254 75.0515C49.4805 74.9364 49.4587 74.81 49.4618 74.6826L49.6571 67.0104L52.2836 68.2375C52.0593 68.4271 52.3042 68.891 52.3042 68.891C52.3042 68.891 51.7501 69.2896 51.9926 69.6483Z" fill="white"/>
<path d="M52.862 66.0026C52.862 66.0026 52.6837 67.3942 52.2375 67.4757C51.7912 67.5572 51.5912 69.7268 51.1461 69.6498C50.7011 69.5727 50.9958 67.6328 51.0115 67.2564C51.0273 66.88 50.5265 65.3209 50.9012 64.9667C51.2759 64.6126 52.4618 64.9667 52.4618 64.9667L52.862 66.0026Z" fill="#CF6F80"/>
<path opacity="0.1" d="M53.8114 55.2865L54.653 53.2117C54.653 53.2117 54.9877 54.793 54.9877 55.6377C54.9877 56.4824 55.4557 56.5654 55.4557 56.5654C55.4557 56.5654 55.9687 57.3064 55.6983 57.8459C55.4279 58.3853 55.3187 59.728 55.3187 59.728C55.3187 59.728 55.4072 62.2903 55.0059 62.6445C54.6045 62.9987 54.5208 63.8449 54.5208 63.8449C54.5208 63.8449 53.7835 65.4528 53.8066 65.8352C53.8296 66.2175 52.7807 68.8065 52.7807 68.8065C52.7807 68.8065 53.2936 65.5892 50.3045 64.1991C50.3045 64.1991 50.2815 63.1069 50.5046 62.8075C50.7277 62.5082 51.0757 62.3718 50.8575 60.8587C50.6392 59.3456 50.7944 57.5376 50.7944 57.1745C50.7944 56.8114 51.4638 54.547 51.4638 54.547L53.8114 55.2865Z" fill="black"/>
<path d="M54.1752 52.9153L54.9101 53.2117C54.9101 53.2117 55.246 54.793 55.246 55.6377C55.246 56.4825 55.714 56.5654 55.714 56.5654C55.714 56.5654 56.227 57.3064 55.9566 57.8459C55.6862 58.3853 55.5782 59.728 55.5782 59.728C55.5782 59.728 55.6667 62.2903 55.2654 62.6445C54.864 62.9987 54.7743 63.8449 54.7743 63.8449C54.7743 63.8449 54.0382 65.4528 54.0612 65.8352C54.0843 66.2175 53.0341 68.8065 53.0341 68.8065C53.0341 68.8065 53.5483 65.5892 50.558 64.1991C50.558 64.1991 50.5361 63.1069 50.7593 62.8075C50.9824 62.5082 51.3304 62.3718 51.1121 60.8587C50.8939 59.3456 51.0491 57.5376 51.0491 57.1745C51.0491 56.8115 51.7184 54.547 51.7184 54.547L54.1752 52.9153Z" fill="white"/>
<path opacity="0.1" d="M37.9442 106.692C37.9442 106.692 39.1156 105.792 39.8844 106.446C40.6532 107.099 37.9442 106.692 37.9442 106.692Z" fill="black"/>
<path opacity="0.1" d="M47.0463 103.91C47.0463 103.91 48.0831 103.747 48.9537 104.893C49.8244 106.038 47.0463 103.91 47.0463 103.91Z" fill="black"/>
<g opacity="0.1">
<path d="M48.5633 32.2403C48.4141 32.3974 48.2226 32.51 48.1231 32.719C48.0382 32.8983 48.0358 33.1191 47.9679 33.3118C47.9 33.5044 47.7023 33.6615 47.5653 33.54C47.5338 32.2062 46.9954 30.954 46.3345 29.8869C46.1497 29.5649 45.9251 29.28 45.6688 29.0422C45.4092 28.8037 45.0862 28.6922 44.7629 28.7295C44.3991 28.7903 44.079 29.0926 43.7116 29.1297C43.2265 29.18 42.7912 28.7695 42.3098 28.7488C42.1142 28.7512 41.9212 28.8046 41.7438 28.9056C41.5665 29.0065 41.4089 29.1527 41.2815 29.3342C41.0283 29.6991 40.8404 30.1246 40.7297 30.5835C40.5392 31.2798 40.4354 32.0072 40.4217 32.7412C40.4145 33.1547 40.3829 33.6704 40.0701 33.8245C40.0774 33.934 40.0774 34.0441 40.0701 34.1535C40.3854 34.0053 40.4169 33.4837 40.4242 33.0687C40.4377 32.3347 40.5415 31.6073 40.7322 30.911C40.8428 30.4517 41.0308 30.0257 41.2839 29.6602C41.4115 29.4792 41.5693 29.3335 41.7466 29.2328C41.9239 29.1321 42.1167 29.0788 42.3122 29.0763C42.7973 29.0971 43.2338 29.5061 43.714 29.4572C44.0778 29.4201 44.4004 29.1163 44.7654 29.057C45.0886 29.0198 45.4116 29.1313 45.6712 29.3697C45.9276 29.6075 46.1521 29.8924 46.3369 30.2145C46.9978 31.28 47.5362 32.5293 47.5677 33.866C47.7048 33.989 47.9024 33.829 47.9703 33.6393C48.0382 33.4496 48.0407 33.2273 48.1255 33.0465C48.225 32.8376 48.4166 32.7264 48.5657 32.5693C48.9441 32.1707 49.0386 31.4993 49.0241 30.8902C49.0241 30.871 49.0241 30.8517 49.0241 30.8339C49.0011 31.3615 48.8859 31.8995 48.5633 32.2403Z" fill="black"/>
<path d="M39.6117 32.1351C39.3328 31.7602 38.952 31.5097 38.6961 31.1125C38.4807 30.7609 38.3576 30.3377 38.3433 29.8988C38.3051 30.4473 38.4304 30.9941 38.6961 31.4386C38.952 31.8372 39.3328 32.0877 39.6117 32.4626C39.8795 32.8294 40.0402 33.2942 40.0688 33.7845C40.0874 33.4862 40.0565 33.1863 39.9779 32.9028C39.8994 32.6194 39.7748 32.3583 39.6117 32.1351Z" fill="black"/>
<path d="M49.2605 27.661C49.1889 28.0241 49.0616 28.3694 49.0034 28.7355C48.9689 28.9801 48.9563 29.2285 48.9658 29.4765C48.9699 29.3352 48.9824 29.1946 49.0034 29.0556C49.0616 28.6881 49.1889 28.3442 49.2605 27.9812C49.3022 27.7809 49.3157 27.5734 49.3005 27.3676C49.293 27.4665 49.2796 27.5645 49.2605 27.661Z" fill="black"/>
</g>
<path opacity="0.1" d="M16.0951 112.717C22.6208 112.717 27.9109 111.679 27.9109 110.398C27.9109 109.117 22.6208 108.079 16.0951 108.079C9.56942 108.079 4.2793 109.117 4.2793 110.398C4.2793 111.679 9.56942 112.717 16.0951 112.717Z" fill="#FFB163"/>
<path d="M16.4759 65.9686H15.7156V86.8896H16.4759V65.9686Z" fill="#535461"/>
<path d="M21.2537 86.8259L21.2064 87.7684L21.1385 89.1022L21.1106 89.6564L21.0439 90.9902L21.0148 91.5445L20.9469 92.8782L20.1806 108.005C20.1472 108.656 19.9123 109.266 19.5234 109.713C19.1346 110.16 18.6211 110.408 18.0876 110.409H14.1029C13.5694 110.408 13.0561 110.159 12.6675 109.713C12.2788 109.266 12.0441 108.655 12.0111 108.005L11.2484 92.8679L11.1805 91.5341L11.1526 90.9798L11.0847 89.6461L11.0568 89.0918L10.9889 87.758L10.9404 86.8155C10.9319 86.6341 10.9539 86.4525 11.005 86.2818C11.056 86.1112 11.1351 85.9551 11.2373 85.8231C11.3395 85.6911 11.4627 85.5861 11.5993 85.5144C11.7359 85.4427 11.883 85.4058 12.0317 85.4061H20.1818C20.3299 85.4077 20.4762 85.4463 20.6116 85.5197C20.747 85.593 20.8687 85.6995 20.9691 85.8325C21.0696 85.9655 21.1467 86.1223 21.1956 86.2932C21.2446 86.464 21.2643 86.6453 21.2537 86.8259Z" fill="#3F3D56"/>
<path d="M21.2064 87.7684L21.1385 89.0978H11.0519L10.984 87.7684H21.2064Z" fill="#9D9CB5"/>
<path d="M21.1106 89.652L21.0439 90.9828H11.1476L11.0797 89.652H21.1106Z" fill="#9D9CB5"/>
<path d="M21.0148 91.5386L20.9481 92.8679H11.2434L11.1755 91.5386H21.0148Z" fill="#9D9CB5"/>
<path d="M9.82353 73.8097C14.2508 77.725 16.0989 83.8486 16.0989 83.8486C16.0989 83.8486 10.7633 83.6248 6.3348 79.7094C1.90629 75.794 0.0618896 69.672 0.0618896 69.672C0.0618896 69.672 5.39502 69.8943 9.82353 73.8097Z" fill="#FFB163"/>
<path d="M0.0582275 69.672C0.0582275 69.672 5.5975 73.4288 7.374 76.5395C9.1505 79.6501 16.0988 83.8486 16.0988 83.8486" stroke="#535461" stroke-width="2" stroke-miterlimit="10"/>
<path d="M12.6816 65.9226C15.0911 68.0522 16.0988 71.3852 16.0988 71.3852C16.0988 71.3852 13.1946 71.2637 10.7839 69.1341C8.37319 67.0045 7.36792 63.67 7.36792 63.67C7.36792 63.67 10.2709 63.7916 12.6816 65.9226Z" fill="#FFB163"/>
<path d="M7.36792 63.67C7.36792 63.67 10.3825 65.7152 11.349 67.4076C12.3154 69.1 16.0988 71.3852 16.0988 71.3852" stroke="#535461" stroke-width="2" stroke-miterlimit="10"/>
<path d="M19.5973 71.2163C16.8289 74.9345 16.2432 79.7939 16.2432 79.7939C16.2432 79.7939 20.1466 78.6232 22.9126 74.9034C25.6786 71.1837 26.2667 66.3257 26.2667 66.3257C26.2667 66.3257 22.3657 67.498 19.5973 71.2163Z" fill="#FFB163"/>
<path d="M26.2692 66.3272C26.2692 66.3272 22.6628 70.1388 21.7461 72.7649C20.8293 75.391 16.2432 79.7939 16.2432 79.7939" stroke="#535461" stroke-width="2" stroke-miterlimit="10"/>
<path d="M121.223 69.9077C121.223 69.9077 119.22 57.7348 119.987 56.2202C119.987 56.2202 120.015 54.8123 119.969 53.0176C119.969 52.9495 119.969 52.8813 119.969 52.8116C120.104 52.9215 120.244 53.0205 120.389 53.108C121.096 53.5514 121.906 53.6793 122.681 53.4696L122.075 52.6442C121.929 52.4471 121.778 52.2337 121.746 51.9728C121.715 51.712 121.802 51.4793 121.877 51.2467C122.453 49.4683 122.484 47.232 121.374 45.8745C120.437 44.7334 120.209 43.2603 119.191 42.2185C118.448 41.4553 118.039 40.3364 117.654 39.2545C117.328 38.3402 116.999 37.4184 116.812 36.4492C116.667 35.6919 116.608 34.9079 116.408 34.1684C116.208 33.4289 115.834 32.7101 115.248 32.3797C115.039 32.2626 114.808 32.1959 114.617 32.0403C114.368 31.8343 114.217 31.4994 114.037 31.2059C113.119 29.724 110.045 30.5969 108.589 31.1985C108.194 31.3501 107.827 31.5981 107.513 31.9277L107.526 31.901C107.537 31.8788 107.55 31.8565 107.562 31.8343C107.403 31.9917 107.265 32.1793 107.155 32.39C106.943 32.8005 106.854 33.2792 106.677 33.7238C106.464 34.2499 105.276 35.7186 105.787 36.3099C105.823 36.3496 105.864 36.3816 105.908 36.4047C106.1 36.5022 106.311 36.528 106.515 36.4788L106.493 36.5425C106.318 37.0642 106.229 37.6225 106.23 38.186C106.23 40.6209 107.873 42.5949 109.901 42.5949C110.283 42.5954 110.662 42.5239 111.026 42.383C111.034 42.4393 111.041 42.4956 111.05 42.5519C111.05 42.5742 111.056 42.5964 111.058 42.6186L110.994 42.7283C110.991 42.7215 110.987 42.7151 110.983 42.709L109.079 45.9605C108.788 46.2109 107.112 47.6929 107.018 48.8044C106.918 50.0211 106.819 51.4453 106.819 51.4453L106.806 51.7505C106.722 51.8355 106.625 51.8974 106.52 51.9319C106.416 51.9665 106.306 51.9729 106.199 51.9506C105.605 51.8321 105.605 54.6182 105.605 54.6182C105.605 54.6182 105.21 55.0628 104.938 54.6774C104.667 54.2921 103.949 55.5977 103.949 55.5977L99.4498 55.8349L99.3468 55.8423L99.1042 54.9249C99.0781 54.8282 99.0218 54.7479 98.9476 54.7016C98.8734 54.6552 98.7871 54.6466 98.7077 54.6774C98.6889 54.685 98.6707 54.6944 98.6531 54.7056L98.6362 54.7175L98.6046 54.7441L98.5889 54.7619C98.5802 54.7716 98.5721 54.782 98.5646 54.793L98.5501 54.8138L98.5428 54.8227C98.5148 54.87 98.4962 54.9247 98.4887 54.9823C98.4811 55.04 98.4847 55.099 98.4991 55.1546L98.7077 55.9416C97.8395 56.155 96.9518 56.7567 97.6758 58.4135L94.0063 57.5851L95.1935 58.8033L101.322 60.349C101.241 60.5268 101.294 60.7847 101.548 61.1477C102.639 62.7142 104.628 63.1395 105.428 63.2492C105.639 63.827 105.903 64.3738 106.215 64.8793L106.146 66.4399C106.146 66.4399 104.12 78.3342 103.749 78.9374C103.936 78.678 104.107 78.4021 104.262 78.1119C103.673 80.5557 102.851 83.9005 102.635 84.4014C102.289 85.2017 101.967 88.4398 102.363 88.6472C102.484 88.711 102.831 88.6798 103.325 88.6339V88.9021L103.304 99.067C103.304 99.067 103.403 105.302 103.13 105.896C102.857 106.49 102.785 107.737 102.785 107.737C102.785 107.737 101.693 110.195 100.829 111.184C100.823 111.191 100.816 111.198 100.809 111.204L100.783 110.973C100.783 110.973 99.7433 112.577 97.4441 112.486C97.4441 112.486 96.0605 113.586 98.1123 113.645C100.164 113.704 102.785 113.556 102.785 113.556C102.785 113.556 104.614 110.148 106.147 110.592V113.175H106.616V110.551C106.834 110.376 107.02 110.148 107.164 109.883C107.308 109.617 107.406 109.318 107.452 109.005C107.492 108.682 107.463 108.352 107.367 108.047C107.27 107.742 107.111 107.473 106.904 107.267C106.811 107.164 106.736 107.039 106.685 106.899C106.633 106.759 106.606 106.608 106.604 106.455L106.587 106.472C106.587 106.421 106.576 106.367 106.572 106.312C106.437 104.979 106.268 102.227 106.864 100.19C107.68 97.3983 107.927 93.5096 107.333 91.1947C107.141 90.4548 106.984 89.7023 106.861 88.9407C106.847 88.8443 106.834 88.7525 106.821 88.6665C107.228 88.7337 107.63 88.8327 108.026 88.9629C109.402 89.4268 112.413 89.5127 114.984 89.4875C114.99 89.5735 114.997 89.6639 115.005 89.7543C115.051 90.3826 115.147 91.0041 115.292 91.6097C115.614 92.7953 115.762 98.0222 115.762 98.0222C115.762 98.0222 116.178 102.32 115.951 104.069C115.83 105.041 115.709 106.017 115.64 106.999V107.018C115.64 107.018 114.958 109.389 114.46 110.677C114.448 110.709 114.434 110.742 114.422 110.773C114.289 110.788 114.158 110.823 114.033 110.878C114.033 110.878 113.365 112.508 112.699 112.778C112.033 113.048 112.254 113.936 113.761 113.61C115.269 113.284 117.545 113.017 117.545 113.017L117.643 111.354L118.106 110.646L117.985 112.304L118.478 112.185L118.413 110.168L119.171 109.01C119.171 109.01 120.086 108.014 118.726 106.055V106.097C118.711 106.069 118.698 106.04 118.682 106.012V106.003C118.457 105.576 118.277 104.78 118.606 103.368C119.2 100.816 119.545 98.4994 119.545 98.4994C119.545 98.4994 120.872 92.2944 119.277 89.3586H119.348C119.184 88.9455 119.069 88.5065 119.005 88.0544C118.997 88.0011 118.989 87.9463 118.983 87.8899C120.163 87.807 121.321 87.5461 122.265 86.983C122.262 86.9771 121.693 72.2522 121.223 69.9077ZM106.243 59.6376V59.6672L106 59.6821L106.243 59.6376ZM105.411 59.7784C105.371 59.7892 105.334 59.811 105.302 59.8421C105.198 60.0224 105.132 60.2319 105.112 60.4512L104.733 60.3475C104.733 60.3475 104.468 60.2778 104.086 60.1993L103.905 59.977C104.402 59.9266 104.919 59.8525 105.411 59.7784Z" fill="url(#paint1_linear_73_9)"/>
<path d="M117.929 110.189L117.785 112.289L118.269 112.171L118.196 109.893L117.929 110.189Z" fill="#1D2366"/>
<path d="M106.891 100.218C106.307 102.249 106.472 104.989 106.603 106.32C106.652 106.812 106.697 107.111 106.697 107.111C106.697 107.111 105.825 109.539 105.752 109.63C105.679 109.722 103.186 111.582 103.186 111.582L101.443 112.826C101.443 112.826 99.6755 111.879 100.523 111.553C100.696 111.468 100.852 111.338 100.98 111.172C101.829 110.186 102.895 107.736 102.895 107.736C102.895 107.736 102.968 106.493 103.235 105.902C103.501 105.31 103.404 99.0966 103.404 99.0966L103.425 88.9673V87.6469L106.741 87.6765C106.762 88.1248 106.81 88.5706 106.885 89.0103C107.004 89.7693 107.158 90.5194 107.347 91.2569C107.931 93.5673 107.688 97.4368 106.891 100.218Z" fill="#FFB0B1"/>
<path opacity="0.1" d="M106.697 107.111C106.697 107.111 105.825 109.539 105.752 109.63C105.679 109.722 103.186 111.582 103.186 111.582L101.443 112.826C101.443 112.826 99.6755 111.879 100.523 111.553C100.696 111.468 100.852 111.338 100.98 111.172L101.055 111.819L101.636 111.79L106.608 106.323C106.652 106.812 106.697 107.111 106.697 107.111Z" fill="black"/>
<path d="M106.636 106.461L101.636 111.965L101.055 111.994L100.934 110.957C100.934 110.957 99.9179 112.554 97.66 112.465C97.66 112.465 96.3043 113.561 98.3136 113.62C100.323 113.679 102.889 113.531 102.889 113.531C102.889 113.531 104.681 110.122 106.181 110.567V113.141H106.642V110.543C106.856 110.367 107.039 110.14 107.179 109.875C107.32 109.61 107.415 109.313 107.459 109.002C107.499 108.682 107.471 108.354 107.377 108.051C107.284 107.748 107.128 107.479 106.924 107.271C106.834 107.167 106.761 107.042 106.712 106.902C106.662 106.763 106.636 106.613 106.636 106.461Z" fill="#1D2366"/>
<path d="M118.39 103.384C118.067 104.792 118.243 105.585 118.464 106.01V106.019C118.747 106.544 118.944 107.131 119.044 107.748L119.063 107.882L116.788 111.935L115.554 112.528C115.554 112.528 113.569 111.699 113.931 111.462C114.022 111.404 114.164 111.096 114.326 110.671C114.811 109.389 115.481 107.024 115.481 107.024V107.004C115.551 106.028 115.663 105.054 115.786 104.085C116.008 102.341 115.601 98.0592 115.601 98.0592C115.601 98.0592 115.455 92.8531 115.14 91.669C114.998 91.0669 114.903 90.4496 114.858 89.8254C114.792 89.0844 114.777 88.4738 114.777 88.4738C114.777 88.4738 116.085 86.2509 118.481 88.6517C118.672 88.8431 118.841 89.0666 118.982 89.3156C120.637 92.1936 119.304 98.5335 119.304 98.5335C119.304 98.5335 118.971 100.839 118.39 103.384Z" fill="#FFB0B1"/>
<path opacity="0.1" d="M119.066 107.882L116.792 111.935L115.557 112.528C115.557 112.528 113.572 111.699 113.935 111.462C114.026 111.404 114.167 111.096 114.33 110.671C115.17 110.662 115.606 111.64 115.606 111.64L116.67 111.433C116.67 111.433 118.075 108.06 118.39 107.854C118.705 107.648 118.438 106.314 118.438 106.314V105.974C118.447 105.986 118.454 106 118.464 106.011V106.02C118.747 106.546 118.944 107.133 119.043 107.75L119.066 107.882Z" fill="black"/>
<path d="M115.678 111.727C115.678 111.727 115.072 110.367 113.91 110.869C113.91 110.869 113.257 112.5 112.603 112.763C111.95 113.027 112.168 113.916 113.645 113.592C115.122 113.267 117.348 112.999 117.348 112.999L117.445 111.341L118.946 109.004C118.946 109.004 119.841 108.012 118.51 106.06V106.4C118.51 106.4 118.777 107.734 118.461 107.94C118.146 108.146 116.747 111.52 116.747 111.52L115.678 111.727Z" fill="#1D2366"/>
<path opacity="0.1" d="M106.745 87.6736C106.766 88.1218 106.814 88.5676 106.888 89.0073C105.523 88.7628 104.255 88.8843 103.425 88.9644V87.6439L106.745 87.6736Z" fill="black"/>
<path opacity="0.1" d="M119.116 89.6846C119.116 89.6846 117.176 89.8002 114.862 89.8239C114.797 89.0829 114.782 88.4724 114.782 88.4724C114.782 88.4724 116.09 86.2494 118.486 88.6502C118.677 88.8417 118.846 89.0652 118.987 89.3141C119.024 89.4405 119.067 89.5642 119.116 89.6846Z" fill="black"/>
<path d="M119.116 89.4178C119.116 89.4178 110.618 89.9202 108.028 89.0325C105.438 88.1448 102.871 88.914 102.484 88.708C102.097 88.502 102.411 85.2757 102.751 84.4769C103.09 83.6781 104.953 75.5999 104.953 75.5999L106.745 64.1798L108.633 63.544L108.766 63.4981L112.056 62.3896L114.467 61.576C114.467 61.576 119.26 84.4473 118.849 86.1338C118.7 86.7796 118.676 87.459 118.779 88.1181C118.842 88.5683 118.955 89.0057 119.116 89.4178Z" fill="#1D2366"/>
<path d="M100.498 56.3698C100.498 56.3698 98.7999 58.5928 100.085 59.8317C101.371 61.0706 102.216 59.9503 102.216 59.9503L100.498 56.3698Z" fill="#C7DAF5"/>
<path opacity="0.1" d="M100.498 56.3698C100.498 56.3698 98.7999 58.5928 100.085 59.8317C101.371 61.0706 102.216 59.9503 102.216 59.9503L100.498 56.3698Z" fill="black"/>
<path d="M114.214 41.7546C114.214 41.7546 114.015 41.9858 113.715 42.3267C113.288 42.8142 112.657 43.5271 112.096 44.1243C111.32 44.9498 110.68 45.5559 110.909 45.0387C111.138 44.5215 111.095 43.6204 110.981 42.7772C110.972 42.7209 110.965 42.6646 110.956 42.6097C110.862 41.9904 110.737 41.3787 110.582 40.778C110.582 40.778 111.836 38.7981 112.529 38.0171C112.788 37.7207 112.968 37.5992 112.979 37.8052C112.991 38.0823 113.161 38.6944 113.372 39.3435C113.378 39.3642 113.384 39.3835 113.391 39.4042C113.532 39.8488 113.691 40.3053 113.83 40.6995C114.044 41.3041 114.214 41.7546 114.214 41.7546Z" fill="#FFB0B1"/>
<path opacity="0.1" d="M113.391 39.4042C113.274 40.1787 112.988 40.9004 112.564 41.4937C112.14 42.087 111.593 42.5303 110.981 42.7772C110.884 42.1007 110.751 41.4328 110.582 40.778C110.582 40.778 112.943 37.0508 112.979 37.8051C112.988 38.0912 113.172 38.7254 113.391 39.4042Z" fill="black"/>
<path opacity="0.1" d="M110.746 43.773L111.051 43.2469C111.051 43.2469 111.254 44.7556 111.998 44.0902C112.743 43.4248 112.779 49.0978 112.779 49.0978L111.98 63.6997L106.205 63.2773L106.369 56.2216L107.023 52.6649L108.639 47.4943L109.601 45.7856L110.746 43.773Z" fill="black"/>
<path d="M112.779 49.1882L112.051 62.3911L111.975 63.7901L108.755 63.5544L108.634 63.5456L106.209 63.3677L106.373 56.3106L107.026 52.7538L108.643 47.5832L109.604 45.8745L110.749 43.8546L111.055 43.33C111.055 43.33 111.257 44.8386 112.002 44.1732L112.017 44.1599C112.745 43.5967 112.779 49.1882 112.779 49.1882Z" fill="#1D2366"/>
<path d="M107.108 51.5178C107.108 51.5178 106.818 52.2588 106.236 52.1388C105.654 52.0187 105.655 54.8063 105.655 54.8063C105.655 54.8063 105.268 55.2509 105.001 54.8656C104.735 54.4803 104.031 55.7829 104.031 55.7829L99.6245 56.0201C99.6245 56.0201 101.585 57.1152 101.201 60.4289C101.201 60.4289 107.858 59.9251 108.077 59.1559C108.295 58.3868 107.108 51.5178 107.108 51.5178Z" fill="white"/>
<path opacity="0.03" d="M107.108 51.5178C107.108 51.5178 106.818 52.2588 106.236 52.1388C105.654 52.0187 105.655 54.8063 105.655 54.8063C105.655 54.8063 105.268 55.2509 105.001 54.8656C104.735 54.4803 104.031 55.7829 104.031 55.7829L99.6245 56.0201C99.6245 56.0201 101.585 57.1152 101.201 60.4289C101.201 60.4289 107.858 59.9251 108.077 59.1559C108.295 58.3868 107.108 51.5178 107.108 51.5178Z" fill="black"/>
<path d="M94.301 57.7614L95.4627 58.9737L105.025 61.4293L103.84 59.9503L94.301 57.7614Z" fill="white"/>
<path d="M110.764 44.2399C110.605 44.5363 110.15 46.0538 109.771 47.3787C109.454 48.4828 109.19 49.4535 109.19 49.4535C109.19 49.4535 108.572 54.3647 108.257 55.2524C107.942 56.1401 108.113 59.602 108.113 59.602L106.938 68.1515C106.938 68.1515 106.406 72.5604 105.583 75.1939C104.772 77.7859 103.869 79.0011 103.841 79.0396C104.205 78.4379 106.187 66.591 106.187 66.591L106.842 51.6498C106.842 51.6498 106.938 50.23 107.035 49.0163C107.132 47.8026 109.096 46.1457 109.096 46.1457L110.99 42.8542C111.181 43.1655 111.054 43.7079 110.764 44.2399Z" fill="white"/>
<path d="M105.825 63.4418C105.825 63.4418 103.036 63.2936 101.685 61.3107C100.334 59.3278 104.807 60.5193 104.807 60.5193L105.97 60.8454L105.825 63.4418Z" fill="#FFB0B1"/>
<path opacity="0.1" d="M118.849 86.1353C118.7 86.7811 118.676 87.4605 118.779 88.1196C115.737 88.3834 112.482 87.3786 112.482 87.3786C111.876 88.0604 110.279 89.0651 110.279 89.0651L109.408 75.8756C108.851 74.0972 108.633 64.78 108.633 64.78C108.633 64.78 108.683 64.2925 108.754 63.5618C108.754 63.5441 108.754 63.5248 108.76 63.507C108.977 61.4663 109.408 57.6354 109.619 57.1182C109.91 56.4069 108.724 54.5144 108.724 54.5144L109.264 48.8903L109.329 48.2116C110.467 47.5906 111.338 45.6077 111.338 45.6077L112.008 44.1747C112.735 43.6041 112.773 49.1956 112.773 49.1956L112.045 62.3985L114.456 61.5849C114.456 61.5849 119.261 84.4488 118.849 86.1353Z" fill="black"/>
<path d="M121.972 87.0467C118.655 89.0592 112.627 87.1949 112.627 87.1949C112.021 87.8766 110.424 88.8814 110.424 88.8814L109.552 75.6918C108.997 73.9134 108.779 64.5963 108.779 64.5963C108.779 64.5963 109.479 57.6443 109.77 56.9345C109.855 56.727 109.814 56.4187 109.714 56.0868C109.219 54.5067 109.037 52.8061 109.182 51.1236L109.415 48.7065L109.479 48.0293C110.618 47.4068 111.49 45.424 111.49 45.424L112.096 44.1258L113.212 41.7338L113.741 40.6016L113.83 40.7009L114.515 41.4597C114.515 41.4597 114.807 41.7561 115.243 42.2007C116.193 43.1788 117.833 44.9008 118.68 45.9545C119.424 46.8822 119.659 50.4908 119.727 53.2073C119.772 54.996 119.746 56.398 119.746 56.398C118.995 57.9081 120.958 70.0321 120.958 70.0321C121.415 72.3751 121.972 87.0467 121.972 87.0467Z" fill="white"/>
<path opacity="0.03" d="M115.606 45.3943C115.606 45.3943 113.33 50.6894 113.594 52.7019C113.858 54.7145 114.61 56.9923 114.248 57.5243C114.123 57.7259 113.962 57.8895 113.777 58.0023C113.592 58.1152 113.388 58.1742 113.182 58.1749C112.818 58.2045 111.848 59.0329 111.848 59.1219C111.848 59.2108 110.952 59.2108 110.15 59.6257C109.348 60.0407 108.165 60.2763 108.165 60.2763C108.165 60.2763 105.861 60.1874 105.646 60.4541C105.432 60.7209 105.211 62.317 105.671 63.59C106.13 64.863 106.641 65.813 107.026 65.9864C107.412 66.1597 109.859 65.1579 111.844 64.9208C113.829 64.6837 115.984 62.7616 115.984 62.7616C115.984 62.7616 118.357 61.7242 118.773 59.9799C119.189 58.2356 118.265 48.6487 118.265 48.6487C118.265 48.6487 117.566 44.1806 115.606 45.3943Z" fill="black"/>
<path opacity="0.03" d="M115.315 44.9498C115.315 44.9498 113.039 50.2463 113.305 52.2574C113.572 54.2684 114.322 56.5477 113.958 57.0812C113.834 57.283 113.673 57.4468 113.488 57.5597C113.303 57.6726 113.1 57.7315 112.893 57.7318C112.529 57.7614 111.559 58.5898 111.559 58.6788C111.559 58.7677 110.663 58.7677 109.861 59.1812C109.06 59.5946 107.876 59.8317 107.876 59.8317C107.876 59.8317 105.572 59.7428 105.359 60.0096C105.146 60.2763 104.922 61.8739 105.383 63.1454C105.844 64.417 106.353 65.3684 106.739 65.5418C107.125 65.7152 109.572 64.7134 111.557 64.4777C113.542 64.2421 115.697 62.317 115.697 62.317C115.697 62.317 118.069 61.2796 118.48 59.5368C118.891 57.794 117.972 48.2042 117.972 48.2042C117.972 48.2042 117.275 43.7375 115.315 44.9498Z" fill="black"/>
<path d="M115.534 45.1276C115.534 45.1276 113.258 50.4241 113.525 52.4352C113.792 54.4462 114.541 56.7255 114.178 57.2575C114.054 57.4598 113.893 57.624 113.708 57.7372C113.523 57.8503 113.319 57.9094 113.113 57.9096C112.749 57.9392 111.779 58.7676 111.779 58.8551C111.779 58.9425 110.884 58.944 110.081 59.359C109.278 59.7739 108.096 60.0095 108.096 60.0095C108.096 60.0095 105.792 59.9206 105.577 60.1874C105.363 60.4541 105.142 62.0517 105.602 63.3232C106.061 64.5948 106.572 65.5462 106.957 65.7196C107.343 65.893 109.79 64.8912 111.775 64.654C113.76 64.4169 115.915 62.4948 115.915 62.4948C115.915 62.4948 118.288 61.4574 118.704 59.7131C119.12 57.9689 118.202 48.382 118.202 48.382C118.202 48.382 117.494 43.9212 115.534 45.1276Z" fill="white"/>
<path opacity="0.1" d="M115.484 59.3338C115.484 59.3338 113.665 58.8892 114.298 59.6302C114.931 60.3712 114.928 61.0203 115.703 60.9907C116.478 60.961 115.484 59.3338 115.484 59.3338Z" fill="black"/>
<path opacity="0.1" d="M118.558 75.2769C118.558 75.2769 117.736 75.9571 119.309 77.525C120.882 79.0929 118.558 75.2769 118.558 75.2769Z" fill="black"/>
<path opacity="0.1" d="M116.989 80.8683C116.989 80.9573 116.698 84.1287 117.787 84.9215C118.876 85.7144 116.989 80.8683 116.989 80.8683Z" fill="black"/>
<path d="M99.6997 56.0127C98.8217 56.0497 96.9252 56.3773 97.9086 58.6195C98.7781 60.6038 100.239 59.2775 101.061 58.2712C100.861 57.3331 100.373 56.5247 99.6997 56.0127Z" fill="#FFB0B1"/>
<path opacity="0.1" d="M115.243 42.2911C114.312 43.0691 113.531 43.7257 113.378 43.862C112.961 44.2399 112.166 46.4584 111.653 47.5906C111.244 48.5021 109.916 48.7362 109.415 48.794L109.48 48.1167C110.618 47.4943 111.49 45.5114 111.49 45.5114L113.741 40.6891L114.516 41.5501C114.516 41.5501 114.807 41.8465 115.243 42.2911Z" fill="black"/>
<path d="M115.243 42.2022C114.312 42.9802 113.531 43.6367 113.378 43.7745C112.961 44.151 112.166 46.3695 111.653 47.5017C111.244 48.4131 109.916 48.6473 109.415 48.7051L109.48 48.0278C110.618 47.4054 111.49 45.4225 111.49 45.4225L113.741 40.6002L114.516 41.4582C114.516 41.4582 114.807 41.7517 115.243 42.2022Z" fill="#DCE7FF"/>
<path d="M113.451 38.4261C113.451 39.3157 113.231 40.1845 112.818 40.9173C112.33 41.7837 111.605 42.4079 110.773 42.6765C109.941 42.9451 109.058 42.8405 108.284 42.3815C107.51 41.9225 106.896 41.1396 106.554 40.1749C106.212 39.2102 106.164 38.1275 106.419 37.1233C106.675 36.1192 107.216 35.26 107.945 34.7018C108.674 34.1437 109.543 33.9234 110.393 34.081C111.244 34.2386 112.02 34.7636 112.581 35.5608C113.142 36.3581 113.451 37.3746 113.451 38.4261Z" fill="#FFB0B1"/>
<path opacity="0.1" d="M119.727 53.2088C119.235 52.8386 118.834 52.3121 118.567 51.6853C118.364 51.1963 118.23 50.6316 117.884 50.2849C117.573 49.9736 117.157 49.8981 116.769 49.7588C115.493 49.2979 114.423 47.8752 114.383 46.2509C114.364 45.4862 114.559 44.723 114.471 43.9657C114.42 43.5371 114.281 43.1315 114.066 42.7876C113.959 42.6231 113.842 42.469 113.715 42.3267C113.545 42.131 113.367 41.9413 113.212 41.7339C113.114 41.6054 113.029 41.4637 112.957 41.3115C112.9 41.187 112.853 41.0553 112.818 40.9188C112.575 40.0118 112.796 38.9359 112.529 38.0186L112.515 37.9682C112.414 37.6421 112.209 37.3161 111.924 37.2909C111.639 37.2657 111.395 37.5547 111.124 37.6836C110.555 37.9534 109.942 37.4939 109.467 37.0256C108.993 36.5573 108.459 36.0223 107.856 36.1261C107.457 36.1957 107.142 36.5277 106.774 36.6996C106.691 36.7389 106.606 36.7691 106.518 36.79C106.829 35.8423 107.401 35.0565 108.134 34.5677C108.868 34.0788 109.717 33.9174 110.538 34.1112C111.358 34.3049 112.098 34.8418 112.629 35.6295C113.161 36.4172 113.451 37.4065 113.451 38.4276C113.451 38.7359 113.425 39.0434 113.372 39.3449C113.378 39.3657 113.384 39.3849 113.391 39.4057C113.532 39.8503 113.691 40.3067 113.83 40.7009L114.516 41.4597C114.516 41.4597 114.807 41.7561 115.243 42.2007C116.193 43.1788 117.833 44.9008 118.68 45.9545C119.424 46.8852 119.657 50.4923 119.727 53.2088Z" fill="black"/>
<path d="M106.732 33.992C106.905 33.5608 106.991 33.0777 107.198 32.6686C107.503 32.0758 108.034 31.6965 108.58 31.4667C110.005 30.8665 113.015 29.9951 113.915 31.4667C114.092 31.7631 114.239 32.0921 114.484 32.2967C114.671 32.4523 114.896 32.519 115.101 32.636C115.675 32.965 116.041 33.6823 116.236 34.4144C116.431 35.1465 116.49 35.9319 116.633 36.6863C116.816 37.654 117.137 38.5713 117.457 39.4827C117.834 40.5587 118.235 41.6746 118.962 42.4348C119.955 43.4722 120.175 44.9409 121.096 46.079C122.188 47.4306 122.153 49.6609 121.59 51.4319C121.516 51.6646 121.432 51.9076 121.461 52.1551C121.49 52.4026 121.641 52.6278 121.783 52.8249L122.379 53.6474C120.968 54.0639 119.371 53.1628 118.714 51.5816C118.511 51.0925 118.376 50.5294 118.03 50.1811C117.719 49.8699 117.302 49.7958 116.915 49.6565C115.64 49.1941 114.57 47.7699 114.53 46.1457C114.511 45.3825 114.706 44.6193 114.617 43.8635C114.568 43.432 114.428 43.0235 114.211 42.6779C113.878 42.1458 113.374 41.7887 113.103 41.1959C112.643 40.2045 112.992 38.9166 112.661 37.8526C112.56 37.5265 112.356 37.2005 112.071 37.1753C111.786 37.1501 111.542 37.4391 111.269 37.568C110.702 37.8378 110.088 37.3798 109.614 36.91C109.14 36.4403 108.605 35.9067 108.001 36.012C107.602 36.0801 107.288 36.4121 106.921 36.5855C106.649 36.7129 106.099 36.827 105.861 36.547C105.359 35.9823 106.522 34.5196 106.732 33.992Z" fill="#591D4B"/>
<path opacity="0.1" d="M119.051 51.0925C118.847 50.6035 118.714 50.0403 118.367 49.6935C118.056 49.3823 117.639 49.3067 117.251 49.1674C115.977 48.7065 114.907 47.2824 114.866 45.6581C114.847 44.8949 115.042 44.1302 114.954 43.3744C114.904 42.9457 114.764 42.5401 114.548 42.1962C114.214 41.6642 113.71 41.307 113.44 40.7143C112.98 39.7243 113.33 38.4365 112.997 37.3709C112.897 37.0464 112.692 36.7203 112.408 36.6937C112.124 36.667 111.878 36.9589 111.606 37.0879C111.039 37.3576 110.424 36.8982 109.951 36.4299C109.478 35.9616 108.941 35.4266 108.338 35.5303C107.939 35.6 107.624 35.9319 107.258 36.1038C106.986 36.2313 106.435 36.3469 106.197 36.0668C105.697 35.474 106.86 34.0143 107.069 33.4896C107.242 33.0569 107.328 32.5753 107.537 32.1662C107.548 32.144 107.56 32.1218 107.572 32.0995C107.416 32.2575 107.281 32.4446 107.173 32.6538C106.966 33.0628 106.88 33.543 106.706 33.9772C106.496 34.5018 105.333 35.966 105.834 36.5544C106.077 36.8359 106.623 36.7203 106.894 36.5929C107.258 36.4195 107.576 36.0875 107.975 36.0194C108.581 35.9141 109.114 36.4491 109.587 36.9174C110.06 37.3857 110.679 37.8452 111.244 37.5754C111.515 37.4465 111.753 37.156 112.044 37.1827C112.335 37.2094 112.529 37.5339 112.635 37.86C112.966 38.924 112.617 40.2119 113.076 41.2033C113.348 41.7857 113.851 42.1503 114.184 42.6853C114.401 43.0309 114.541 43.4394 114.591 43.8709C114.679 44.6267 114.484 45.3899 114.503 46.1531C114.543 47.7833 115.613 49.2015 116.889 49.6639C117.273 49.8032 117.693 49.8773 118.003 50.1885C118.351 50.5368 118.488 51.0999 118.687 51.589C119.344 53.1702 120.941 54.0713 122.353 53.6549L122.071 53.2666C120.848 53.2888 119.61 52.4382 119.051 51.0925Z" fill="black"/>
<path opacity="0.1" d="M110.691 44.3288C110.532 44.6252 110.077 46.1427 109.698 47.4676C109.342 47.2987 109.02 46.2213 109.02 46.2213L110.914 42.9283C111.108 43.2544 110.981 43.7953 110.691 44.3288Z" fill="black"/>
<path d="M110.764 44.2399C110.605 44.5363 110.15 46.0538 109.771 47.3787C109.415 47.2112 109.093 46.1323 109.093 46.1323L110.987 42.8409C111.181 43.1654 111.053 43.7078 110.764 44.2399Z" fill="#DCE7FF"/>
<path d="M99.7506 59.3797L98.7004 55.3324C98.688 55.285 98.6834 55.2351 98.6867 55.1855C98.6901 55.136 98.7015 55.0877 98.7202 55.0435C98.7389 54.9993 98.7646 54.96 98.7957 54.928C98.8269 54.8959 98.8629 54.8717 98.9017 54.8567C98.9799 54.8269 99.0645 54.836 99.1372 54.8821C99.2099 54.9282 99.2647 55.0075 99.2898 55.1027L100.34 59.1455L100.236 59.9918L99.7506 59.3797Z" fill="#BE8B87"/>
<path opacity="0.1" d="M98.7999 54.9768C98.8782 54.9465 98.9631 54.9554 99.0361 55.0015C99.109 55.0476 99.1641 55.1272 99.1891 55.2228L100.239 59.2656L100.16 59.8999L100.237 59.9977L100.341 59.1515L99.2849 55.1086C99.2599 55.0134 99.205 54.9341 99.1323 54.888C99.0597 54.8419 98.975 54.8328 98.8969 54.8626C98.8311 54.8887 98.7744 54.9409 98.7356 55.0108C98.7562 54.9973 98.7777 54.9859 98.7999 54.9768Z" fill="white"/>
<path d="M99.7506 59.3797L100.34 59.1515L100.254 59.8451L100.236 59.9977L100.063 59.7784L99.7506 59.3797Z" fill="#EFC8C4"/>
<path d="M100.063 59.7783C100.074 59.7625 100.087 59.7494 100.101 59.7398C100.11 59.7332 100.119 59.7297 100.13 59.7297C100.14 59.7297 100.15 59.7332 100.158 59.7398C100.166 59.752 100.173 59.7655 100.179 59.7798C100.187 59.7962 100.198 59.8101 100.211 59.8206C100.224 59.8312 100.238 59.838 100.254 59.8406L100.236 59.9888L100.063 59.7783Z" fill="#727A9C"/>
<path d="M98.6943 56.77C98.6943 56.77 100.801 56.7551 100.305 57.8503C99.8087 58.9455 99.0339 59.0774 99.0339 59.0774L98.6943 56.77Z" fill="#FFB0B1"/>
<path d="M85.5943 7.6203H85.5034C81.8849 7.6203 78.6848 9.96034 76.844 13.4133C75.0033 9.96034 71.8032 7.6203 68.1847 7.6203H68.0937C65.3782 7.65193 62.7825 8.99202 60.8709 11.3494C58.9593 13.7067 57.8861 16.8908 57.8846 20.2097C57.8846 24.331 59.3616 30.1789 62.2416 34.9909C67.7287 44.1598 76.844 52.1818 76.844 52.1818C76.844 52.1818 85.9593 44.1613 91.4453 34.9909C94.3265 30.1789 95.8022 24.331 95.8022 20.2097C95.8008 16.891 94.7278 13.7072 92.8164 11.3499C90.905 8.99258 88.3097 7.65231 85.5943 7.6203ZM84.2932 35.6963C83.8811 35.6944 83.4791 35.5402 83.14 35.254C82.8009 34.9679 82.5405 34.5631 82.393 34.0928H80.2297C80.0872 34.0917 79.9486 34.0363 79.8332 33.9343C79.7177 33.8322 79.6313 33.6887 79.5858 33.5237L78.9213 31.077L76.8186 40.0563C76.7776 40.2291 76.6919 40.3811 76.5743 40.4893C76.4566 40.5975 76.3134 40.6562 76.1662 40.6565H76.1237C75.9701 40.6474 75.8237 40.5741 75.7089 40.449C75.5941 40.3238 75.518 40.1543 75.4932 39.9688L73.3262 24.0406L71.7425 33.4659C71.7062 33.645 71.6219 33.804 71.503 33.9176C71.3841 34.0312 71.2374 34.0929 71.0865 34.0928H68.0392C67.9478 34.0975 67.8566 34.0796 67.7711 34.0401C67.6856 34.0007 67.6074 33.9405 67.5414 33.8632C67.4754 33.7858 67.4229 33.693 67.387 33.5902C67.3511 33.4874 67.3326 33.3769 67.3326 33.2651C67.3326 33.1534 67.3511 33.0428 67.387 32.94C67.4229 32.8372 67.4754 32.7444 67.5414 32.6671C67.6074 32.5898 67.6856 32.5295 67.7711 32.4901C67.8566 32.4506 67.9478 32.4327 68.0392 32.4374H70.5529L72.7963 19.7651C72.8331 19.5777 72.9221 19.4118 73.0479 19.2957C73.1737 19.1796 73.3287 19.1206 73.4862 19.1286C73.6437 19.1367 73.7941 19.2113 73.9115 19.3399C74.029 19.4684 74.1063 19.6428 74.1302 19.8332L76.3432 36.0816L78.2276 28.0478C78.2669 27.8786 78.3498 27.7295 78.4641 27.6226C78.5784 27.5158 78.718 27.457 78.8619 27.455H78.8752C79.0177 27.4551 79.1566 27.5101 79.272 27.6123C79.3874 27.7145 79.4734 27.8586 79.5179 28.0241L80.7196 32.4419H82.3663C82.4834 32.0072 82.6965 31.6204 82.9821 31.3244C83.2676 31.0283 83.6146 30.8344 83.9846 30.7641C84.3547 30.6938 84.7334 30.7498 85.079 30.926C85.4247 31.1021 85.7238 31.3916 85.9433 31.7623C86.1628 32.1331 86.2943 32.5708 86.3231 33.0271C86.352 33.4834 86.2771 33.9406 86.1068 34.3481C85.9365 34.7557 85.6773 35.0979 85.3579 35.3368C85.0385 35.5758 84.6713 35.7022 84.2968 35.7022L84.2932 35.6963Z" fill="#FFB163"/>
</g>
<defs>
<linearGradient id="paint0_linear_73_9" x1="43.2094" y1="114.834" x2="43.2094" y2="23.6419" gradientUnits="userSpaceOnUse">
<stop stop-color="#808080" stop-opacity="0.25"/>
<stop offset="0.54" stop-color="#808080" stop-opacity="0.12"/>
<stop offset="1" stop-color="#808080" stop-opacity="0.1"/>
</linearGradient>
<linearGradient id="paint1_linear_73_9" x1="108.34" y1="113.681" x2="108.34" y2="30.3938" gradientUnits="userSpaceOnUse">
<stop stop-color="#808080" stop-opacity="0.25"/>
<stop offset="0.54" stop-color="#808080" stop-opacity="0.12"/>
<stop offset="1" stop-color="#808080" stop-opacity="0.1"/>
</linearGradient>
<clipPath id="clip0_73_9">
<rect width="134" height="116" fill="white"/>
</clipPath>
</defs>
</svg>
