<svg width="134" height="113" viewBox="0 0 134 113" fill="none" xmlns="http://www.w3.org/2000/svg">
<g clip-path="url(#clip0_76_365)">
<path d="M59.5229 25.6947C54.0074 25.6993 48.5301 24.6977 43.3183 22.7315C36.3313 20.0998 30.6073 16.4699 26.3056 11.9426C18.1684 3.37871 11.4971 2.08809 7.33431 2.51306C2.82815 2.9733 0.205214 5.487 0.179259 5.51235L0 5.29465C0.0264783 5.26873 2.70349 2.69799 7.29184 2.22368C9.98255 1.94572 12.7963 2.43002 15.6553 3.6636C19.2205 5.2019 22.8666 7.9166 26.4921 11.7323C30.7655 16.2298 36.4562 19.8375 43.406 22.455C56.1642 27.2602 70.5433 26.0968 82.8562 19.263C86.9329 17.0002 90.9622 15.4557 94.8319 14.6724C99.7117 13.6843 104.34 13.9137 108.588 15.3535C117.923 18.5175 124.3 18.3497 128.005 17.6521C132.003 16.8993 133.817 15.3928 133.835 15.3777L134 15.6085C133.925 15.6721 132.115 17.1751 128.051 17.9403C124.316 18.6435 117.894 18.8139 108.508 15.6327C99.0045 12.4121 89.3791 15.9708 82.9781 19.5235C76.8922 22.9192 70.2469 24.9614 63.4292 25.5312C62.1224 25.6401 60.8203 25.6946 59.5229 25.6947Z" fill="#3F3D56"/>
<path d="M58.9809 29.3236C60.4834 29.3236 61.7015 27.9967 61.7015 26.3599C61.7015 24.7231 60.4834 23.3962 58.9809 23.3962C57.4784 23.3962 56.2604 24.7231 56.2604 26.3599C56.2604 27.9967 57.4784 29.3236 58.9809 29.3236Z" fill="#FFB163"/>
<path d="M101.129 17.4793C102.632 17.4793 103.85 16.1524 103.85 14.5156C103.85 12.8788 102.632 11.5519 101.129 11.5519C99.6268 11.5519 98.4088 12.8788 98.4088 14.5156C98.4088 16.1524 99.6268 17.4793 101.129 17.4793Z" fill="#FFB163"/>
<path d="M13.4768 5.92736C14.9793 5.92736 16.1973 4.60047 16.1973 2.96368C16.1973 1.32688 14.9793 0 13.4768 0C11.9743 0 10.7562 1.32688 10.7562 2.96368C10.7562 4.60047 11.9743 5.92736 13.4768 5.92736Z" fill="#FFB163"/>
<path d="M78.4905 70.8442V99.4793H82.6235V73.3656H99.1556V99.4793H103.289V42.2091H99.1556C97.786 42.2091 95.6838 49.9794 95.6838 57.7873C95.6838 63.6726 96.3148 68.7163 97.2119 70.8442H78.4905ZM99.1556 70.8442H99.1154C99.1289 70.8122 99.1422 70.7784 99.1556 70.7451V70.8442Z" fill="#3F3D56"/>
<path d="M93.8064 28.0358C90.4139 28.0358 87.6637 31.3606 87.6637 35.4621V40.673H89.1349L89.9866 38.7423L89.7736 40.673H99.2297L100.004 38.9178L99.8104 40.673H100.875V36.5815C100.875 31.8618 97.7103 28.0358 93.8064 28.0358Z" fill="#2F2E41"/>
<path d="M86.768 62.0811L82.9964 63.8273L69.8901 75.4342C69.4082 76.0794 69.1129 76.8658 69.0415 77.6939C68.9472 79.0293 64.9871 86.0139 66.4014 86.9384C67.8158 87.8628 72.9074 90.6362 73.1903 88.7873C73.4732 86.9384 74.9818 79.0293 74.9818 79.0293L87.6166 66.7033L86.768 62.0811Z" fill="#2F2E41"/>
<path d="M71.9645 87.2465L70.3616 92.3823C70.3616 92.3823 72.0588 94.3339 71.2102 95.9774V101.627H69.8901L69.513 98.648C69.513 98.648 68.0094 101.589 67.25 101.627C65.658 101.706 62.5055 102.323 62.4112 101.398C62.3169 100.474 64.7985 99.5724 64.7985 99.5724L67.4386 91.6633L68.5701 86.8357L71.9645 87.2465Z" fill="#2F2E41"/>
<path d="M96.574 60.7458C96.574 60.7458 97.4226 69.7848 94.9711 71.4283C92.5196 73.0717 81.6763 78.3102 81.6763 78.3102C81.6763 78.3102 86.2965 83.0352 85.3536 84.165C84.4107 85.2949 80.1676 88.3764 79.6019 87.7601C79.0362 87.1438 72.7188 79.7483 73.4731 77.3858C74.2274 75.0233 84.6935 67.3196 84.6935 67.3196L85.9193 62.492L86.2965 58.5888L90.2566 55.8154L96.574 60.7458Z" fill="#2F2E41"/>
<path d="M92.2541 39.7007C94.425 39.7007 96.1849 37.7836 96.1849 35.4187C96.1849 33.0537 94.425 31.1366 92.2541 31.1366C90.0832 31.1366 88.3234 33.0537 88.3234 35.4187C88.3234 37.7836 90.0832 39.7007 92.2541 39.7007Z" fill="#FFB9B9"/>
<path d="M95.3012 37.1725C95.3012 37.1725 95.1126 41.0757 98.0356 42.3083C100.959 43.5409 90.7753 51.5527 90.7753 51.5527V42.6164C90.7753 42.6164 92.0953 41.0757 90.7753 38.7132L95.3012 37.1725Z" fill="#FFB9B9"/>
<path d="M101.571 55.5073L100.817 59.5132L98.5541 73.2772C98.5541 73.2772 100.44 79.132 97.8941 79.0293C95.3483 78.9265 96.574 72.6609 96.574 72.6609L97.8941 61.2594V56.8426L101.571 55.5073Z" fill="#FFB9B9"/>
<path d="M85.3536 53.5557L84.505 57.1508L80.6391 67.3196C80.6391 67.3196 77.999 72.1473 80.1677 72.0446C82.3363 71.9419 82.3363 67.3196 82.3363 67.3196L86.7679 59.1024V54.4801L85.3536 53.5557Z" fill="#FFB9B9"/>
<path d="M84.6935 83.5487L87.8051 86.7329C87.8051 86.7329 89.9737 86.2194 90.8223 88.9927C91.6709 91.766 92.2367 93.5122 92.2367 93.5122L91.1052 94.2312L89.6909 92.0742C89.6909 92.0742 88.8423 95.9774 87.9937 96.2855C87.1451 96.5937 82.902 98.648 83.2792 96.2855L85.3536 92.9986C85.3536 92.9986 85.6364 89.3008 84.7878 88.9927C83.9392 88.6845 81.6763 85.6031 81.6763 85.6031L84.6935 83.5487Z" fill="#2F2E41"/>
<path d="M96.7235 63.93C96.7235 63.93 87.8603 60.4377 87.2945 60.7458C86.8734 60.9485 86.4249 61.0753 85.9664 61.1213L85.9745 59.7187C85.9745 59.7187 88.8974 58.5888 90.5004 59.3078C92.1033 60.0268 97.0063 63.211 97.0063 63.211L96.7235 63.93Z" fill="#3F3D56"/>
<path d="M91.3409 49.4984C91.3409 49.4984 93.8867 46.3142 94.641 44.3626C95.1183 43.1795 95.9943 42.2411 97.0882 41.7412C97.0882 41.7412 102.75 43.13 102.656 45.5952C102.561 48.0604 99.0727 51.8609 99.0727 51.8609C99.0727 51.8609 99.5441 65.5221 96.9983 65.3167C96.4492 64.6028 96.0616 63.7584 95.8668 62.8515C95.5839 61.4135 86.815 59.8727 86.815 59.8727C86.815 59.8727 86.0607 61.3108 85.9664 60.6945C85.8721 60.0782 86.7207 44.9789 86.7207 44.9789L91.2171 41.7412L91.3409 49.4984Z" fill="#D0CDE1"/>
<path d="M101.929 44.6029L101.993 44.6415C102.194 44.7647 102.362 44.9442 102.479 45.1614C102.595 45.3786 102.657 45.6258 102.657 45.8775L102.656 53.5004C102.657 53.7076 102.699 53.9122 102.779 54.0999C102.86 54.2876 102.977 54.454 103.122 54.5875C103.485 54.924 103.822 55.409 103.127 55.6614C101.996 56.0722 97.5641 58.1266 97.4698 57.4075C97.3755 56.6885 97.187 55.8668 97.4698 55.8668C97.6913 55.8668 99.0107 48.5012 100.071 45.352C100.136 45.1592 100.238 44.984 100.371 44.8386C100.504 44.6931 100.665 44.5809 100.841 44.5097C101.018 44.4385 101.207 44.4099 101.395 44.426C101.583 44.4421 101.765 44.5025 101.929 44.6029Z" fill="#D0CDE1"/>
<path d="M87.9936 44.6194L86.6736 45.0302L85.165 52.1177C85.165 52.1177 83.3735 52.5285 83.9392 53.2475C84.5049 53.9665 86.8622 55.8154 86.8622 55.8154L87.9936 44.6194Z" fill="#D0CDE1"/>
<path d="M95.5527 30.0815C95.2571 29.6491 94.874 29.2967 94.4332 29.0516C93.9923 28.8065 93.5056 28.6754 93.0108 28.6684H92.8901C90.5649 28.6684 88.6799 30.9605 88.6799 33.788L89.4591 33.788L89.5849 32.7447L89.7694 33.788H94.3903L94.7775 32.9053L94.6807 33.788H95.5898C96.014 36.083 95.4045 38.378 93.7612 40.673H95.3098L96.0841 38.9076L95.8905 40.673H98.8425L99.4233 36.6126C99.4233 33.5717 97.8014 30.9932 95.5527 30.0815Z" fill="#2F2E41"/>
<path d="M16.5822 77.4604C17.5741 75.1076 18.2717 69.5309 18.2717 63.0238C18.2717 54.3908 15.9474 45.7995 14.4331 45.7995H9.8634V109.121H14.4331V80.2481H32.7121V109.121H37.2818V77.4604H16.5822ZM14.4331 77.3507C14.4479 77.3876 14.4627 77.425 14.4776 77.4604H14.4331V77.3507Z" fill="#3F3D56"/>
<path d="M35.6293 65.9085C35.6293 65.9085 41.1328 68.3943 39.3878 69.8566C37.6428 71.3189 34.0185 68.1019 34.1528 67.6632C34.287 67.2245 33.6158 66.2009 33.6158 66.2009L35.6293 65.9085Z" fill="#9F616A"/>
<path d="M30.797 46.3141L32.542 48.0688L32.9447 53.1868L34.287 58.5972C34.287 58.5972 36.5689 63.7151 36.1662 64.7387C35.7635 65.7623 36.5689 66.0547 36.5689 66.0547L33.4816 67.3708C33.4816 67.3708 30.1259 63.2764 30.1259 62.399C30.1259 61.5217 30.797 46.3141 30.797 46.3141Z" fill="#575A88"/>
<path opacity="0.1" d="M30.797 46.3141L32.542 48.0688L32.9447 53.1868L34.287 58.5972C34.287 58.5972 36.5689 63.7151 36.1662 64.7387C35.7635 65.7623 36.5689 66.0547 36.5689 66.0547L33.4816 67.3708C33.4816 67.3708 30.1259 63.2764 30.1259 62.399C30.1259 61.5217 30.797 46.3141 30.797 46.3141Z" fill="black"/>
<path d="M47.3073 98.9557C47.3073 98.9557 46.6362 102.319 46.5019 102.611C46.3677 102.904 49.0523 103.927 49.0523 103.927L52.2739 101.442C52.2739 101.442 50.9316 98.2246 50.9316 97.6396L47.3073 98.9557Z" fill="#575A88"/>
<path d="M29.7232 66.2009L30.6628 67.3707C30.6628 67.3707 50.1262 70.0028 50.5289 74.0972C50.9316 78.1915 53.7504 97.4934 52.1397 98.0783C50.5289 98.6632 46.3678 100.857 46.3678 99.6868C46.3678 98.517 43.6831 82.4321 44.2201 79.5075C44.2201 79.5075 20.9982 76.2906 20.4613 72.6349C19.9243 68.9792 20.9982 67.3707 20.9982 67.3707L29.7232 66.2009Z" fill="#2F2E41"/>
<path opacity="0.1" d="M29.7232 66.2009L30.6628 67.3707C30.6628 67.3707 50.1262 70.0028 50.5289 74.0972C50.9316 78.1915 53.7504 97.4934 52.1397 98.0783C50.5289 98.6632 46.3678 100.857 46.3678 99.6868C46.3678 98.517 43.6831 82.4321 44.2201 79.5075C44.2201 79.5075 20.9982 76.2906 20.4613 72.6349C19.9243 68.9792 20.9982 67.3707 20.9982 67.3707L29.7232 66.2009Z" fill="black"/>
<path d="M47.0389 102.319C47.0389 102.319 46.502 101.003 46.2335 101.442C45.9651 101.88 45.0255 106.998 45.9651 106.998C46.9047 106.998 55.4954 109.338 56.7035 109.045C57.9116 108.753 60.1935 109.192 59.925 107.729C59.6566 106.267 58.3143 106.121 58.3143 106.121C58.3143 106.121 53.3477 102.904 53.0793 101.295C52.8108 99.6868 51.3343 100.564 51.3343 100.564V101.588C51.3343 101.588 48.5154 103.927 47.0389 102.319Z" fill="#2F2E41"/>
<path d="M21.535 35.2009C21.535 35.2009 22.4746 40.1726 20.4612 40.6113C18.4477 41.0499 23.0116 43.9745 23.0116 43.9745L25.9646 45.7292L28.1123 43.3896C28.1123 43.3896 26.166 39.0759 27.6425 35.8589C29.1191 32.6419 21.535 35.2009 21.535 35.2009Z" fill="#9F616A"/>
<path d="M28.1123 43.3896L25.9646 45.7292L23.0116 43.9745C23.0116 43.9745 18.4477 41.0499 20.4612 40.6113C21.7565 40.329 21.829 38.1707 21.7176 36.6675C21.6812 36.1754 21.6203 35.6858 21.535 35.2009C21.535 35.2009 29.1191 32.6419 27.6425 35.8589C27.4182 36.3557 27.2626 36.8859 27.1808 37.4323C26.7284 40.3232 28.1123 43.3896 28.1123 43.3896Z" fill="#9F616A"/>
<path d="M35.6293 103.196V106.559H40.73L41.1327 105.243L40.5958 101.734L35.6293 103.196Z" fill="#575A88"/>
<path d="M14.5551 69.1254C14.5551 69.1254 14.5551 77.7528 17.7766 78.0453C20.9981 78.3377 32.542 79.9462 32.542 79.9462C32.542 79.9462 33.2131 94.2764 34.4212 98.9557C35.6293 103.635 34.5554 103.927 35.6293 104.22C36.7031 104.512 41.2669 103.489 41.1327 102.465C40.9985 101.442 40.4616 75.5594 40.4616 75.5594C40.4616 75.5594 41.6696 70.0028 25.562 67.3707L14.5551 69.1254Z" fill="#2F2E41"/>
<path d="M36.0319 105.536C36.0319 105.536 35.2266 103.635 35.0923 104.22C34.9581 104.805 33.3473 109.923 34.9581 110.361C36.5689 110.8 41.6696 113.14 45.0254 112.993C48.3812 112.847 48.7838 112.701 48.7838 112.701C48.7838 112.701 49.7235 111.239 48.5154 110.361C47.3073 109.484 42.3408 104.366 42.0723 103.781C41.8039 103.196 39.7904 102.758 39.7904 103.781C39.7904 104.805 36.9716 106.852 36.0319 105.536Z" fill="#2F2E41"/>
<path opacity="0.1" d="M27.6425 35.8589C27.4182 36.3557 27.2626 36.8859 27.1808 37.4323C26.5123 37.8724 26.0653 37.7598 25.2264 37.7598C23.9821 37.7598 23.48 36.0271 22.676 35.1278C22.6129 34.2928 21.535 35.2009 21.535 35.2009C21.535 35.2009 29.1191 32.6419 27.6425 35.8589Z" fill="black"/>
<path d="M24.8908 37.6867C27.3372 37.6867 29.3204 35.5263 29.3204 32.8612C29.3204 30.1962 27.3372 28.0358 24.8908 28.0358C22.4444 28.0358 20.4612 30.1962 20.4612 32.8612C20.4612 35.5263 22.4444 37.6867 24.8908 37.6867Z" fill="#9F616A"/>
<path d="M32.542 48.0688C32.542 48.0688 31.8708 53.333 31.4681 55.2339C31.0654 57.1349 30.5285 65.9085 30.2601 67.0783C29.9916 68.2481 28.3808 68.5406 25.1593 68.1019C24.9571 68.0741 24.7537 68.0575 24.5499 68.0521C22.566 67.9834 20.2961 68.7921 18.1954 69.4267C16.9873 69.7922 15.8343 70.0993 14.8235 70.149C13.2933 70.2251 12.845 68.3768 12.8973 66.3764C12.947 64.5149 13.4316 62.5189 13.8839 61.8141C14.6987 60.5449 13.8974 49.1494 14.198 45.3914V45.39C14.2437 44.8167 14.3148 44.4219 14.4209 44.2669C15.2262 43.0971 20.4612 40.1726 21.0478 40.291C21.6331 40.4095 26.6358 43.8283 26.6358 43.8283C27.8439 43.8283 27.805 42.4011 27.805 42.4011C27.805 42.4011 28.6493 44.1207 30.2601 44.5594C31.8708 44.9981 32.542 48.0688 32.542 48.0688Z" fill="#575A88"/>
<path d="M23.5691 67.026C23.5691 67.026 32.2157 67.326 30.7009 68.445C29.1862 69.5641 22.4747 70.5877 22.3405 69.1255C22.2062 67.6632 23.5691 67.026 23.5691 67.026Z" fill="#9F616A"/>
<path opacity="0.1" d="M24.5499 68.0522C24.5781 68.6137 23.1915 69.8785 22.7432 70.734C22.4948 71.2077 20.5727 70.5833 18.1954 69.4267C16.3712 68.5347 14.6015 67.5159 12.8973 66.3764C12.947 64.5149 13.4316 62.5189 13.8839 61.8141C14.6987 60.5449 13.8974 49.1494 14.198 45.3914V45.39C14.2697 45.3503 14.3442 45.3171 14.4209 45.2905H16.0316C21.5351 48.0688 15.2262 60.0594 15.2262 60.0594C15.2262 60.0594 23.5485 67.517 24.3539 67.8094C24.4067 67.8203 24.4547 67.8501 24.4902 67.8941C24.5257 67.9381 24.5467 67.9937 24.5499 68.0522Z" fill="black"/>
<path d="M16.0317 44.4131H14.4209C14.4209 44.4131 12.9443 44.8518 11.7363 47.7764C10.5282 50.7009 6.09859 59.7669 9.99127 63.2764C13.884 66.7858 22.2063 70.8802 22.7432 69.8566C23.2801 68.833 25.1593 67.2245 24.3539 66.932C23.5486 66.6396 15.2263 59.182 15.2263 59.182C15.2263 59.182 21.5351 47.1915 16.0317 44.4131Z" fill="#575A88"/>
<path d="M24.2094 30.6159C24.2094 30.6159 24.4038 27.6844 26.8019 28.8797C29.2 30.075 29.0435 26.7803 28.3188 26.1981C27.5941 25.6159 27.6171 25.4719 24.9666 25.8614C22.316 26.2509 17.1702 26.9109 18.8341 32.7166C20.498 38.5222 22.0049 37.0287 22.0049 37.0287C22.0049 37.0287 20.6823 31.8044 22.0224 32.7997L23.3625 33.795L24.0696 33.6319L24.2094 30.6159Z" fill="#2F2E41"/>
<path d="M123.161 72.8276C123.161 70.1882 105.157 68.0486 82.9476 68.0486C60.7382 68.0486 42.7339 70.1882 42.7339 72.8276C42.7339 73.8505 45.4399 74.7983 50.0455 75.5756V108.272H52.2389V75.9128C59.6155 76.9487 70.6341 77.6066 82.9476 77.6066C95.3627 77.6066 106.462 76.9378 113.839 75.8871V108.272H116.032V75.5443C120.526 74.7729 123.161 73.8369 123.161 72.8276Z" fill="#3F3D56"/>
<path d="M87.9856 72.9274C92.5077 72.9274 96.1736 71.9453 96.1736 70.734C96.1736 69.5226 92.5077 68.5406 87.9856 68.5406C83.4634 68.5406 79.7975 69.5226 79.7975 70.734C79.7975 71.9453 83.4634 72.9274 87.9856 72.9274Z" fill="#F2F2F2"/>
<path d="M87.9856 72.5318C91.6923 72.5318 94.6971 71.7269 94.6971 70.734C94.6971 69.741 91.6923 68.9361 87.9856 68.9361C84.2789 68.9361 81.274 69.741 81.274 70.734C81.274 71.7269 84.2789 72.5318 87.9856 72.5318Z" fill="#D0CDE1"/>
<path d="M57.5152 74.6821C62.0374 74.6821 65.7033 73.7 65.7033 72.4887C65.7033 71.2773 62.0374 70.2953 57.5152 70.2953C52.9931 70.2953 49.3271 71.2773 49.3271 72.4887C49.3271 73.7 52.9931 74.6821 57.5152 74.6821Z" fill="#F2F2F2"/>
<path d="M57.5152 74.2865C61.2219 74.2865 64.2268 73.4816 64.2268 72.4887C64.2268 71.4957 61.2219 70.6908 57.5152 70.6908C53.8086 70.6908 50.8037 71.4957 50.8037 72.4887C50.8037 73.4816 53.8086 74.2865 57.5152 74.2865Z" fill="#D0CDE1"/>
<path d="M87.7951 70.5791C89.9509 70.5791 91.6986 70.2785 91.6986 69.9077C91.6986 69.5368 89.9509 69.2362 87.7951 69.2362C85.6392 69.2362 83.8916 69.5368 83.8916 69.9077C83.8916 70.2785 85.6392 70.5791 87.7951 70.5791Z" fill="#9F616A"/>
<path d="M85.7149 69.6559C86.3956 69.6559 86.9475 69.3302 86.9475 68.9285C86.9475 68.5268 86.3956 68.2011 85.7149 68.2011C85.0341 68.2011 84.4822 68.5268 84.4822 68.9285C84.4822 69.3302 85.0341 69.6559 85.7149 69.6559Z" fill="#FFB163"/>
<path d="M85.2527 69.6559C85.9335 69.6559 86.4854 69.3302 86.4854 68.9285C86.4854 68.5268 85.9335 68.2011 85.2527 68.2011C84.5719 68.2011 84.02 68.5268 84.02 68.9285C84.02 69.3302 84.5719 69.6559 85.2527 69.6559Z" fill="#FFB163"/>
<path d="M90.6456 69.8237C91.3264 69.8237 91.8783 69.4981 91.8783 69.0964C91.8783 68.6946 91.3264 68.369 90.6456 68.369C89.9649 68.369 89.413 68.6946 89.413 69.0964C89.413 69.4981 89.9649 69.8237 90.6456 69.8237Z" fill="#FFB163"/>
<path d="M87.8207 69.6559C88.5015 69.6559 89.0534 69.3302 89.0534 68.9285C89.0534 68.5268 88.5015 68.2011 87.8207 68.2011C87.1399 68.2011 86.588 68.5268 86.588 68.9285C86.588 69.3302 87.1399 69.6559 87.8207 69.6559Z" fill="#FFB163"/>
<path d="M89.9265 69.6559C90.6073 69.6559 91.1592 69.3302 91.1592 68.9285C91.1592 68.5268 90.6073 68.2011 89.9265 68.2011C89.2457 68.2011 88.6938 68.5268 88.6938 68.9285C88.6938 69.3302 89.2457 69.6559 89.9265 69.6559Z" fill="#FFB163"/>
<path d="M91.5188 68.4809C89.291 69.3045 86.7914 69.3045 84.02 68.4809V68.3676C84.0196 67.5114 84.3212 66.6877 84.8626 66.067C85.404 65.4463 86.1438 65.0761 86.9287 65.033C87.5894 64.9967 88.2513 64.9977 88.9119 65.0357C89.6181 65.0805 90.2818 65.4182 90.7666 65.9794C91.2514 66.5406 91.5206 67.2827 91.5188 68.0534V68.4809Z" fill="#3F3D56"/>
<path d="M90.425 71.5642C88.7786 71.7454 87.1196 71.7454 85.4732 71.5642C85.0827 71.5225 84.7203 71.3241 84.4565 71.0076C84.1927 70.6912 84.0463 70.2792 84.0457 69.8517H91.8526C91.852 70.2792 91.7056 70.6912 91.4417 71.0076C91.1779 71.3241 90.8156 71.5225 90.425 71.5642Z" fill="#3F3D56"/>
<path d="M86.7421 66.075C86.5631 66.1562 86.3711 66.1981 86.1772 66.1981C85.9832 66.1981 85.7912 66.1562 85.6122 66.075C85.7912 65.9937 85.9832 65.9519 86.1772 65.9519C86.3711 65.9519 86.5631 65.9937 86.7421 66.075Z" fill="#D0CDE1"/>
<path d="M87.8721 66.5785C87.6931 66.6598 87.5011 66.7016 87.3072 66.7016C87.1132 66.7016 86.9212 66.6598 86.7422 66.5785C86.9212 66.4973 87.1132 66.4554 87.3072 66.4554C87.5011 66.4554 87.6931 66.4973 87.8721 66.5785Z" fill="#D0CDE1"/>
<path d="M87.9748 65.6833C87.7958 65.7646 87.6038 65.8064 87.4098 65.8064C87.2159 65.8064 87.0239 65.7646 86.8448 65.6833C87.0239 65.602 87.2159 65.5602 87.4098 65.5602C87.6038 65.5602 87.7958 65.602 87.9748 65.6833Z" fill="#D0CDE1"/>
<path d="M90.0806 65.6833C89.9016 65.7646 89.7096 65.8064 89.5157 65.8064C89.3217 65.8064 89.1297 65.7646 88.9507 65.6833C89.1297 65.602 89.3217 65.5602 89.5157 65.5602C89.7096 65.5602 89.9016 65.602 90.0806 65.6833Z" fill="#D0CDE1"/>
<path d="M89.5157 66.1869C89.3367 66.2681 89.1447 66.31 88.9507 66.31C88.7568 66.31 88.5648 66.2681 88.3857 66.1869C88.5648 66.1056 88.7568 66.0638 88.9507 66.0638C89.1447 66.0638 89.3367 66.1056 89.5157 66.1869Z" fill="#D0CDE1"/>
<path d="M57.4589 72.3338C59.6147 72.3338 61.3624 72.0332 61.3624 71.6624C61.3624 71.2916 59.6147 70.991 57.4589 70.991C55.3031 70.991 53.5554 71.2916 53.5554 71.6624C53.5554 72.0332 55.3031 72.3338 57.4589 72.3338Z" fill="#9F616A"/>
<path d="M55.3788 71.4106C56.0596 71.4106 56.6115 71.0849 56.6115 70.6832C56.6115 70.2815 56.0596 69.9558 55.3788 69.9558C54.698 69.9558 54.1461 70.2815 54.1461 70.6832C54.1461 71.0849 54.698 71.4106 55.3788 71.4106Z" fill="#FFB163"/>
<path d="M54.9165 71.4106C55.5973 71.4106 56.1492 71.0849 56.1492 70.6832C56.1492 70.2815 55.5973 69.9558 54.9165 69.9558C54.2357 69.9558 53.6838 70.2815 53.6838 70.6832C53.6838 71.0849 54.2357 71.4106 54.9165 71.4106Z" fill="#FFB163"/>
<path d="M60.3095 71.5785C60.9902 71.5785 61.5421 71.2528 61.5421 70.8511C61.5421 70.4494 60.9902 70.1237 60.3095 70.1237C59.6287 70.1237 59.0768 70.4494 59.0768 70.8511C59.0768 71.2528 59.6287 71.5785 60.3095 71.5785Z" fill="#FFB163"/>
<path d="M57.4846 71.4106C58.1654 71.4106 58.7173 71.0849 58.7173 70.6832C58.7173 70.2815 58.1654 69.9558 57.4846 69.9558C56.8038 69.9558 56.252 70.2815 56.252 70.6832C56.252 71.0849 56.8038 71.4106 57.4846 71.4106Z" fill="#FFB163"/>
<path d="M59.5905 71.4106C60.2713 71.4106 60.8231 71.0849 60.8231 70.6832C60.8231 70.2815 60.2713 69.9558 59.5905 69.9558C58.9097 69.9558 58.3578 70.2815 58.3578 70.6832C58.3578 71.0849 58.9097 71.4106 59.5905 71.4106Z" fill="#FFB163"/>
<path d="M61.1826 70.2356C58.9548 71.0592 56.4552 71.0592 53.6838 70.2356V70.1223C53.6834 69.2661 53.9851 68.4424 54.5265 67.8217C55.0679 67.201 55.8076 66.8308 56.5925 66.7877C57.2532 66.7514 57.9151 66.7524 58.5757 66.7904C59.2819 66.8352 59.9456 67.1729 60.4304 67.7341C60.9152 68.2953 61.1844 69.0374 61.1826 69.8081V70.2356Z" fill="#3F3D56"/>
<path d="M60.089 73.3189C58.4426 73.5001 56.7836 73.5001 55.1372 73.3189C54.7466 73.2772 54.3843 73.0788 54.1205 72.7624C53.8566 72.4459 53.7102 72.0339 53.7096 71.6064H61.5166C61.5159 72.0339 61.3695 72.4459 61.1057 72.7624C60.8419 73.0788 60.4795 73.2772 60.089 73.3189Z" fill="#3F3D56"/>
<path d="M56.4061 67.8297C56.2271 67.911 56.035 67.9528 55.8411 67.9528C55.6472 67.9528 55.4551 67.911 55.2761 67.8297C55.4551 67.7484 55.6472 67.7066 55.8411 67.7066C56.035 67.7066 56.2271 67.7484 56.4061 67.8297Z" fill="#D0CDE1"/>
<path d="M57.536 68.3332C57.3569 68.4145 57.1649 68.4563 56.971 68.4563C56.7771 68.4563 56.585 68.4145 56.406 68.3332C56.585 68.252 56.7771 68.2101 56.971 68.2101C57.1649 68.2101 57.3569 68.252 57.536 68.3332Z" fill="#D0CDE1"/>
<path d="M57.6387 67.438C57.4597 67.5193 57.2677 67.5611 57.0738 67.5611C56.8798 67.5611 56.6878 67.5193 56.5088 67.438C56.6878 67.3568 56.8798 67.3149 57.0738 67.3149C57.2677 67.3149 57.4597 67.3568 57.6387 67.438Z" fill="#D0CDE1"/>
<path d="M59.7446 67.438C59.5656 67.5193 59.3735 67.5611 59.1796 67.5611C58.9857 67.5611 58.7936 67.5193 58.6146 67.438C58.7936 67.3568 58.9857 67.3149 59.1796 67.3149C59.3735 67.3149 59.5656 67.3568 59.7446 67.438Z" fill="#D0CDE1"/>
<path d="M59.1795 67.9416C59.0005 68.0228 58.8085 68.0647 58.6145 68.0647C58.4206 68.0647 58.2286 68.0228 58.0496 67.9416C58.2286 67.8603 58.4206 67.8185 58.6145 67.8185C58.8085 67.8185 59.0005 67.8603 59.1795 67.9416Z" fill="#D0CDE1"/>
<path d="M95.0296 70.1396L95.0485 70.5926L95.0725 71.18C95.0725 71.18 92.5958 71.3325 92.0968 71.9068C92.0852 71.9192 92.0746 71.9325 92.065 71.9467L91.0729 71.7101L91.0704 71.1777C91.0704 71.1777 91.0841 71.1694 91.1107 71.1538C91.1168 71.1504 91.1244 71.146 91.132 71.1416C92.346 70.494 93.6779 70.1516 95.0296 70.1396Z" fill="#FFB163"/>
<path opacity="0.1" d="M95.0296 70.1396L95.0485 70.5926C93.9502 70.6295 91.8716 71.3428 91.8716 71.3428L91.1107 71.1538C92.33 70.4977 93.6698 70.151 95.0296 70.1396Z" fill="black"/>
<path opacity="0.1" d="M91.132 71.1416L91.8716 71.3428L92.0968 71.9069C92.0852 71.9192 92.0746 71.9325 92.065 71.9467L91.0729 71.7102L91.0704 71.1778C91.0704 71.1778 91.0841 71.1695 91.1107 71.1538C91.1168 71.1504 91.1244 71.146 91.132 71.1416Z" fill="white"/>
<path d="M65.0963 72.0406L65.1151 72.4935L65.1392 73.081C65.1392 73.081 62.6624 73.2335 62.1635 73.8078C62.1519 73.8202 62.1412 73.8335 62.1316 73.8477L61.1396 73.6111L61.1371 73.0787C61.1371 73.0787 61.1508 73.0704 61.1774 73.0548C61.1835 73.0514 61.1911 73.047 61.1987 73.0426C62.4126 72.395 63.7446 72.0526 65.0963 72.0406Z" fill="#FFB163"/>
<path opacity="0.1" d="M65.0963 72.0406L65.1151 72.4935C64.0168 72.5305 61.9383 73.2437 61.9383 73.2437L61.1774 73.0548C62.3966 72.3987 63.7364 72.052 65.0963 72.0406Z" fill="black"/>
<path opacity="0.1" d="M61.1987 73.0425L61.9383 73.2437L62.1635 73.8078C62.1519 73.8201 62.1413 73.8335 62.1316 73.8477L61.1396 73.6111L61.1371 73.0787C61.1371 73.0787 61.1508 73.0704 61.1774 73.0548C61.1835 73.0513 61.1911 73.0469 61.1987 73.0425Z" fill="white"/>
<path d="M109.946 56.5727C109.735 56.3427 109.487 56.1563 109.215 56.0223V50.3405C109.215 50.2739 109.191 50.21 109.148 50.1629C109.104 50.1158 109.046 50.0893 108.985 50.0893H107.693C107.632 50.0893 107.574 50.1158 107.53 50.1629C107.487 50.21 107.463 50.2739 107.463 50.3405V55.9133C106.996 56.082 106.59 56.4065 106.302 56.8408C106.014 57.2751 105.859 57.7971 105.859 58.3328V70.5211C105.859 70.6677 105.886 70.813 105.937 70.9485C105.989 71.084 106.064 71.2071 106.159 71.3109C106.255 71.4146 106.368 71.4968 106.492 71.553C106.616 71.6091 106.75 71.638 106.884 71.638H109.65C109.921 71.638 110.18 71.5209 110.372 71.3124C110.563 71.1039 110.671 70.8211 110.671 70.5263V58.4765C110.671 58.1228 110.607 57.7726 110.483 57.4459C110.359 57.1191 110.176 56.8224 109.946 56.5727Z" fill="#3F3D56"/>
<path d="M110.671 60.1195H105.859V67.0435H110.671V60.1195Z" fill="#FFB163"/>
<path d="M109.319 50.4776H109.215V50.3405C109.215 50.2739 109.191 50.21 109.148 50.1629C109.104 50.1158 109.046 50.0893 108.985 50.0893H107.693C107.632 50.0893 107.574 50.1158 107.53 50.1629C107.487 50.21 107.463 50.2739 107.463 50.3405V50.4776H107.359V51.06H107.463V54.0367H109.215V51.06H109.319V50.4776Z" fill="#FFB163"/>
<path d="M71.4207 61.5043C71.2934 61.2083 71.1929 60.9989 71.1577 60.9268C68.9979 61.5074 67.5569 61.0168 67.3297 60.93C67.2185 61.1586 66.5248 62.62 66.2444 64.021C65.9911 65.2847 66.1381 66.1319 66.6814 66.5391L66.6975 66.5516L66.701 66.5541C67.3007 66.9846 67.8728 67.3658 68.4011 67.6872C68.4724 67.7303 68.5395 67.7704 68.6025 67.8075L68.6093 67.8115L68.614 67.8181C68.6866 67.9176 68.7541 68.0214 68.8163 68.1289C68.9331 68.3068 69.0039 68.5155 69.0215 68.7333V75.0099L68.9851 75.0108C67.6074 75.0414 66.7547 75.2958 66.7547 75.5139C66.7547 75.7533 67.7772 76.02 69.2444 76.02C70.7117 76.02 71.7342 75.7533 71.7342 75.5139C71.7342 75.299 70.8959 75.046 69.5416 75.012L69.5051 75.011L69.5391 69.2051C69.5399 68.812 69.6238 68.4243 69.7843 68.0723C69.8116 68.0131 69.841 67.9555 69.8716 67.9013C69.8962 67.8576 69.9222 67.815 69.949 67.7748L69.9539 67.7675L69.9613 67.7631C70.0291 67.7227 70.1012 67.679 70.1774 67.6319L70.1863 67.6266C70.6864 67.3189 71.2253 66.9581 71.788 66.554C72.2905 66.1932 72.4655 65.4638 72.308 64.3863C72.158 63.3589 71.7427 62.252 71.4207 61.5043Z" fill="#D0CDE1"/>
<path d="M71.5498 66.4225C70.9598 66.8461 70.4726 67.1638 70.1001 67.3928H70.0998C69.5563 67.3524 69.0105 67.3691 68.47 67.4426C68.0881 67.2104 67.5729 66.8774 66.9391 66.4225C66.9331 66.4181 66.9271 66.4137 66.9211 66.409V66.4086C66.3397 65.9729 66.3254 65.0503 66.5145 64.1069C66.9956 64.0487 67.7627 64.0741 68.7934 64.4752C70.0139 64.9502 71.2915 64.6816 72.0319 64.4374C72.1535 65.2698 72.0794 66.0421 71.5498 66.4225Z" fill="#FFB163"/>
<path d="M68.0417 63.7655C68.134 63.7655 68.2087 63.684 68.2087 63.5835C68.2087 63.483 68.134 63.4015 68.0417 63.4015C67.9494 63.4015 67.8746 63.483 67.8746 63.5835C67.8746 63.684 67.9494 63.7655 68.0417 63.7655Z" fill="#FFB163"/>
<path d="M67.5739 65.4397C67.6662 65.4397 67.741 65.3583 67.741 65.2578C67.741 65.1573 67.6662 65.0758 67.5739 65.0758C67.4817 65.0758 67.4069 65.1573 67.4069 65.2578C67.4069 65.3583 67.4817 65.4397 67.5739 65.4397Z" fill="white"/>
<path d="M68.4426 64.1295C68.498 64.1295 68.5429 64.0806 68.5429 64.0203C68.5429 63.96 68.498 63.9111 68.4426 63.9111C68.3873 63.9111 68.3424 63.96 68.3424 64.0203C68.3424 64.0806 68.3873 64.1295 68.4426 64.1295Z" fill="#FFB163"/>
<path d="M68.8435 66.2041C68.8989 66.2041 68.9438 66.1552 68.9438 66.0949C68.9438 66.0346 68.8989 65.9857 68.8435 65.9857C68.7882 65.9857 68.7433 66.0346 68.7433 66.0949C68.7433 66.1552 68.7882 66.2041 68.8435 66.2041Z" fill="white"/>
<path d="M68.142 66.3133C68.1973 66.3133 68.2422 66.2644 68.2422 66.2041C68.2422 66.1438 68.1973 66.0949 68.142 66.0949C68.0866 66.0949 68.0417 66.1438 68.0417 66.2041C68.0417 66.2644 68.0866 66.3133 68.142 66.3133Z" fill="white"/>
<path d="M70.1799 62.6736C70.2353 62.6736 70.2802 62.6247 70.2802 62.5644C70.2802 62.5041 70.2353 62.4552 70.1799 62.4552C70.1246 62.4552 70.0797 62.5041 70.0797 62.5644C70.0797 62.6247 70.1246 62.6736 70.1799 62.6736Z" fill="#FFB163"/>
<path d="M79.2569 55.5872C79.1295 55.2911 79.029 55.0817 78.9939 55.0096C76.8341 55.5903 75.3931 55.0996 75.1658 55.0128C75.0547 55.2415 74.3609 56.7028 74.0805 58.1038C73.8272 59.3676 73.9743 60.2147 74.5175 60.6219L74.5336 60.6344L74.5372 60.637C75.1369 61.0674 75.7089 61.4487 76.2373 61.77C76.3085 61.8132 76.3757 61.8533 76.4387 61.8903L76.4454 61.8943L76.4502 61.9009C76.5227 62.0004 76.5903 62.1042 76.6525 62.2118C76.7692 62.3896 76.8401 62.5983 76.8576 62.8161V69.0928L76.8212 69.0936C75.4436 69.1242 74.5909 69.3786 74.5909 69.5968C74.5909 69.8361 75.6134 70.1028 77.0806 70.1028C78.5479 70.1028 79.5704 69.8361 79.5704 69.5968C79.5704 69.3819 78.7321 69.1289 77.3778 69.0948L77.3412 69.0938L77.3753 63.2879C77.3761 62.8948 77.46 62.5072 77.6204 62.1551C77.6478 62.0959 77.6772 62.0383 77.7078 61.9841C77.7324 61.9405 77.7584 61.8979 77.7852 61.8577L77.7901 61.8503L77.7975 61.8459C77.8653 61.8055 77.9373 61.7618 78.0136 61.7147L78.0225 61.7094C78.5226 61.4017 79.0614 61.0409 79.6242 60.6368C80.1267 60.276 80.3016 59.5466 80.1442 58.4691C79.9942 57.4418 79.5789 56.3349 79.2569 55.5872Z" fill="#D0CDE1"/>
<path d="M79.386 60.5053C78.7959 60.9289 78.3088 61.2467 77.9363 61.4756H77.9359C77.3925 61.4352 76.8467 61.4519 76.3062 61.5255C75.9243 61.2933 75.4091 60.9602 74.7753 60.5053C74.7693 60.5009 74.7633 60.4965 74.7573 60.4918V60.4914C74.1759 60.0558 74.1615 59.1331 74.3506 58.1897C74.8318 58.1315 75.5989 58.157 76.6296 58.5581C77.8501 59.033 79.1277 58.7644 79.8681 58.5202C79.9897 59.3526 79.9155 60.1249 79.386 60.5053Z" fill="#FFB163"/>
<path d="M75.8779 57.8483C75.9701 57.8483 76.0449 57.7669 76.0449 57.6664C76.0449 57.5659 75.9701 57.4844 75.8779 57.4844C75.7856 57.4844 75.7108 57.5659 75.7108 57.6664C75.7108 57.7669 75.7856 57.8483 75.8779 57.8483Z" fill="#FFB163"/>
<path d="M75.4101 59.5226C75.5024 59.5226 75.5771 59.4411 75.5771 59.3406C75.5771 59.2401 75.5024 59.1586 75.4101 59.1586C75.3178 59.1586 75.243 59.2401 75.243 59.3406C75.243 59.4411 75.3178 59.5226 75.4101 59.5226Z" fill="white"/>
<path d="M76.2788 58.2123C76.3342 58.2123 76.3791 58.1634 76.3791 58.1031C76.3791 58.0428 76.3342 57.9939 76.2788 57.9939C76.2235 57.9939 76.1786 58.0428 76.1786 58.1031C76.1786 58.1634 76.2235 58.2123 76.2788 58.2123Z" fill="#FFB163"/>
<path d="M76.6797 60.2869C76.7351 60.2869 76.7799 60.238 76.7799 60.1777C76.7799 60.1174 76.7351 60.0685 76.6797 60.0685C76.6243 60.0685 76.5795 60.1174 76.5795 60.1777C76.5795 60.238 76.6243 60.2869 76.6797 60.2869Z" fill="white"/>
<path d="M75.978 60.3961C76.0334 60.3961 76.0783 60.3472 76.0783 60.2869C76.0783 60.2266 76.0334 60.1777 75.978 60.1777C75.9227 60.1777 75.8778 60.2266 75.8778 60.2869C75.8778 60.3472 75.9227 60.3961 75.978 60.3961Z" fill="white"/>
<path d="M78.0161 56.7564C78.0715 56.7564 78.1164 56.7076 78.1164 56.6472C78.1164 56.5869 78.0715 56.5381 78.0161 56.5381C77.9608 56.5381 77.9159 56.5869 77.9159 56.6472C77.9159 56.7076 77.9608 56.7564 78.0161 56.7564Z" fill="#FFB163"/>
</g>
<defs>
<clipPath id="clip0_76_365">
<rect width="134" height="113" fill="white"/>
</clipPath>
</defs>
</svg>
