<svg width="40" height="40" viewBox="0 0 40 40" fill="none" xmlns="http://www.w3.org/2000/svg">
<g filter="url(#filter0_d_62_11)">
<path d="M33.0806 31.5273C31.4839 31.5273 29.8286 30.707 28.1147 29.0664C25.6392 30.707 22.7095 31.5273 19.3257 31.5273C14.7261 31.5273 11.0347 30.0698 8.25146 27.1548C5.48291 24.2251 4.09863 20.5337 4.09863 16.0806C4.09863 11.6274 5.48291 7.94336 8.25146 5.02832C11.0347 2.11328 14.7261 0.655762 19.3257 0.655762C23.9253 0.655762 27.6094 2.11328 30.3779 5.02832C33.1611 7.94336 34.5527 11.6274 34.5527 16.0806C34.5527 20.2407 33.3296 23.749 30.8833 26.6055C31.8208 27.8945 32.9561 28.7881 34.2891 29.2861C34.9482 29.5205 35.2778 29.8647 35.2778 30.3188C35.2778 30.5532 35.1533 30.7729 34.9043 30.978C34.4502 31.3442 33.8423 31.5273 33.0806 31.5273ZM19.3257 29.0664C21.9331 29.0664 24.167 28.2021 26.0273 26.4736C25.0459 24.9502 24.123 23.6245 23.2588 22.4966C22.4092 21.354 20.959 20.6655 18.9082 20.4312C17.707 20.314 17.1064 19.9038 17.1064 19.2007C17.1064 18.395 17.8828 17.9922 19.4355 17.9922C23.2441 17.9922 26.2764 19.6621 28.5322 23.002C29.5723 20.9072 30.0923 18.6001 30.0923 16.0806C30.0923 12.9312 29.1841 9.98682 27.3677 7.24756C25.5659 4.49365 22.8853 3.1167 19.3257 3.1167C15.7661 3.1167 13.0781 4.49365 11.2617 7.24756C9.45996 9.98682 8.55908 12.9312 8.55908 16.0806C8.55908 19.23 9.45996 22.1816 11.2617 24.9355C13.0781 27.6895 15.7661 29.0664 19.3257 29.0664Z" fill="#FFBA5B"/>
</g>
<defs>
<filter id="filter0_d_62_11" x="0.0986328" y="0.655762" width="39.1792" height="38.8716" filterUnits="userSpaceOnUse" color-interpolation-filters="sRGB">
<feFlood flood-opacity="0" result="BackgroundImageFix"/>
<feColorMatrix in="SourceAlpha" type="matrix" values="0 0 0 0 0 0 0 0 0 0 0 0 0 0 0 0 0 0 127 0" result="hardAlpha"/>
<feOffset dy="4"/>
<feGaussianBlur stdDeviation="2"/>
<feComposite in2="hardAlpha" operator="out"/>
<feColorMatrix type="matrix" values="0 0 0 0 0 0 0 0 0 0 0 0 0 0 0 0 0 0 0.25 0"/>
<feBlend mode="normal" in2="BackgroundImageFix" result="effect1_dropShadow_62_11"/>
<feBlend mode="normal" in="SourceGraphic" in2="effect1_dropShadow_62_11" result="shape"/>
</filter>
</defs>
</svg>
