<svg width="134" height="113" viewBox="0 0 134 113" fill="none" xmlns="http://www.w3.org/2000/svg">
<g clip-path="url(#clip0_77_461)">
<path d="M22.0258 51.3795V19.6227C22.0258 19.1692 22.1478 18.7342 22.3651 18.4135C22.5823 18.0929 22.877 17.9127 23.1842 17.9127C23.4915 17.9127 23.7862 18.0929 24.0034 18.4135C24.2207 18.7342 24.3427 19.1692 24.3427 19.6227V51.3795C24.3427 51.833 24.2207 52.268 24.0034 52.5887C23.7862 52.9093 23.4915 53.0895 23.1842 53.0895C22.877 53.0895 22.5823 52.9093 22.3651 52.5887C22.1478 52.268 22.0258 51.833 22.0258 51.3795Z" fill="#F0F0F0"/>
<path d="M19.2537 51.3795V19.6227C19.2537 19.1692 19.3757 18.7342 19.593 18.4135C19.8102 18.0929 20.1049 17.9127 20.4122 17.9127C20.7194 17.9127 21.0141 18.0929 21.2313 18.4135C21.4486 18.7342 21.5706 19.1692 21.5706 19.6227V51.3795C21.5706 51.833 21.4486 52.268 21.2313 52.5887C21.0141 52.9093 20.7194 53.0895 20.4122 53.0895C20.1049 53.0895 19.8102 52.9093 19.593 52.5887C19.3757 52.268 19.2537 51.833 19.2537 51.3795Z" fill="#F0F0F0"/>
<path d="M16.4816 51.3795V19.6227C16.4816 19.1692 16.6036 18.7342 16.8209 18.4135C17.0381 18.0929 17.3328 17.9127 17.6401 17.9127C17.9473 17.9127 18.242 18.0929 18.4592 18.4135C18.6765 18.7342 18.7985 19.1692 18.7985 19.6227V51.3795C18.7985 51.833 18.6765 52.268 18.4592 52.5887C18.242 52.9093 17.9473 53.0895 17.6401 53.0895C17.3328 53.0895 17.0381 52.9093 16.8209 52.5887C16.6036 52.268 16.4816 51.833 16.4816 51.3795Z" fill="#F0F0F0"/>
<path d="M121.143 102.102C120.677 102.102 120.214 101.983 119.775 101.751L119.707 101.715L119.738 101.494C118.952 99.1485 119.227 95.9356 120.442 93.2938C121.547 90.8922 123.227 89.1462 124.71 87.6058C124.898 87.4104 125.121 87.3025 125.351 87.296C125.581 87.2895 125.807 87.3847 126 87.5694C126.193 87.754 126.344 88.0196 126.434 88.3321C126.524 88.6446 126.549 88.9897 126.505 89.323L125.975 93.3374C125.592 96.2335 125.137 98.9745 123.787 100.684C123.046 101.599 122.11 102.101 121.143 102.102Z" fill="#E6E6E6"/>
<path d="M124.615 109.039C124.102 109.034 123.597 108.84 123.147 108.475C122.698 108.11 122.317 107.584 122.039 106.946L122.001 106.858L122.093 106.739C122.33 104.829 123.445 103.127 124.943 102.395C126.304 101.73 127.807 101.839 129.132 101.935C129.307 101.947 129.476 102.036 129.616 102.19C129.757 102.345 129.864 102.557 129.923 102.801C129.982 103.044 129.99 103.308 129.947 103.559C129.904 103.81 129.812 104.037 129.682 104.21L128.191 106.196C127.108 107.639 126.027 108.942 124.724 109.035C124.688 109.038 124.651 109.039 124.615 109.039Z" fill="#E6E6E6"/>
<path d="M119.989 111.162C119.768 108.742 119.542 106.291 119.696 103.846C119.834 101.674 120.273 99.5523 121.167 97.8129C121.639 96.8944 122.217 96.1048 122.873 95.4797C123.044 95.3172 123.201 95.7252 123.031 95.887C121.893 96.9775 121.017 98.5713 120.53 100.44C119.985 102.53 119.898 104.808 119.992 107.028C120.049 108.371 120.169 109.704 120.29 111.036C120.3 111.096 120.294 111.159 120.274 111.213C120.254 111.267 120.22 111.307 120.181 111.327C120.161 111.335 120.14 111.336 120.12 111.332C120.099 111.328 120.079 111.319 120.062 111.303C120.044 111.288 120.028 111.268 120.015 111.243C120.003 111.219 119.994 111.191 119.989 111.162Z" fill="#F2F2F2"/>
<path d="M119.366 112.553C120.426 109.724 121.655 106.579 123.851 105.574C124.461 105.296 125.102 105.196 125.738 105.281C125.938 105.307 125.888 105.772 125.688 105.746C124.62 105.614 123.555 106.039 122.678 106.948C121.829 107.82 121.168 109.032 120.609 110.317C120.266 111.105 119.959 111.925 119.652 112.745C119.554 113.007 119.267 112.818 119.366 112.553Z" fill="#F2F2F2"/>
<path d="M118.89 112.511L119.96 112.548L113.508 61.6785L112.438 61.9761L114.123 75.1722H108.696L110.38 61.9761L109.311 61.6785L102.913 112.548L103.929 112.511L107.293 86.165H115.526L118.89 112.511ZM107.542 84.2107L108.446 77.1265H114.373L115.277 84.2107H107.542Z" fill="#CACACA"/>
<path d="M72.1719 52.1898V35.4844C72.1719 34.9884 72.6916 34.5848 73.3304 34.5848C73.9692 34.5848 74.4889 34.9884 74.4889 35.4844V52.1898C74.4889 52.6858 73.9692 53.0893 73.3304 53.0893C72.6916 53.0893 72.1719 52.6858 72.1719 52.1898Z" fill="#F0F0F0"/>
<path d="M69.3997 52.1898V35.4844C69.3997 34.9884 69.9193 34.5848 70.5581 34.5848C71.1969 34.5848 71.7166 34.9884 71.7166 35.4844V52.1898C71.7166 52.6858 71.1969 53.0893 70.5581 53.0893C69.9193 53.0893 69.3997 52.6858 69.3997 52.1898Z" fill="#F0F0F0"/>
<path d="M66.6276 52.1898V35.4844C66.6276 34.9884 67.1473 34.5848 67.7861 34.5848C68.4249 34.5848 68.9445 34.9884 68.9445 35.4844V52.1898C68.9445 52.6858 68.4249 53.0893 67.7861 53.0893C67.1473 53.0893 66.6276 52.6858 66.6276 52.1898Z" fill="#F0F0F0"/>
<path d="M89.9487 39.9046C89.9436 39.8539 89.9312 39.8053 89.9125 39.762C89.8938 39.7187 89.8691 39.6817 89.8401 39.6534L81.1063 31.1429C81.2379 31.0618 81.348 30.9195 81.4197 30.7376C81.507 30.513 81.5305 30.2465 81.4851 29.9964C81.4397 29.7463 81.3291 29.5329 81.1775 29.4028L80.4608 28.7921C80.3087 28.6633 80.1282 28.6286 79.9587 28.6956C79.7893 28.7626 79.6447 28.9259 79.5566 29.1497C79.5089 29.2728 79.4803 29.4098 79.4727 29.5511L73.1682 23.4077C72.9565 22.6508 72.6355 21.9712 72.2276 21.4162C71.8197 20.8611 71.3348 20.444 70.8065 20.1939V17.4852H68.4895V20.1939C67.7208 20.5567 67.0501 21.2707 66.5741 22.2328C66.0982 23.1949 65.8416 24.3553 65.8416 25.5466V26.2794H68.1585C68.1585 26.8625 68.3155 27.4217 68.5948 27.834C68.8741 28.2463 69.253 28.478 69.648 28.478C70.0431 28.478 70.4219 28.2463 70.7012 27.834C70.9806 27.4217 71.1375 26.8625 71.1375 26.2794H73.4545V25.5466C73.4543 25.1952 73.4318 24.8447 73.3875 24.4996L89.3364 40.0409L82.7113 51.9302C82.6599 51.9299 82.6087 51.9292 82.5569 51.9292C82.0283 51.9292 81.5161 51.9476 81.0281 51.9794C81.0576 51.8586 81.0704 51.7304 81.066 51.6023C81.0563 51.3437 80.9778 51.1013 80.8474 50.928C80.7171 50.7547 80.5456 50.6646 80.3704 50.6773L79.5441 50.7409C79.3689 50.7551 79.2047 50.871 79.0873 51.0634C78.9698 51.2558 78.9088 51.5089 78.9174 51.7675C78.9235 51.9203 78.9542 52.0687 79.0071 52.2004C77.5459 52.4296 76.599 52.7455 76.599 52.9063C76.599 53.1697 79.1415 52.9189 82.3239 52.9069C82.3385 52.968 82.3638 53.0222 82.3973 53.0641C82.4308 53.1059 82.4712 53.1339 82.5145 53.1451C82.5577 53.1563 82.6021 53.1503 82.6433 53.1278C82.6844 53.1052 82.7208 53.067 82.7486 53.0169L82.8099 52.9069C85.9829 52.92 88.5148 53.1692 88.5148 52.9063C88.5148 52.6584 86.2637 52.0419 83.347 51.9431L89.8951 40.192C89.9171 40.1523 89.9333 40.1062 89.9426 40.0567C89.9518 40.0072 89.9539 39.9554 89.9487 39.9046Z" fill="#CCCCCC"/>
<path d="M90.1876 112.634H69.7955C69.3834 112.633 68.9884 112.391 68.697 111.961C68.4056 111.531 68.2417 110.947 68.2412 110.339V60.9412C68.2408 60.3977 68.0943 59.8767 67.834 59.4924C67.5736 59.1081 67.2206 58.8919 66.8524 58.8913H19.1531C18.7849 58.8919 18.4319 59.1081 18.1715 59.4924C17.9111 59.8767 17.7647 60.3977 17.7642 60.9412V110.339C17.7638 110.947 17.5998 111.531 17.3084 111.961C17.017 112.391 16.622 112.633 16.2099 112.634H15.5121C15.1 112.633 14.7049 112.391 14.4135 111.961C14.1221 111.531 13.9582 110.947 13.9578 110.339V58.2806C13.9589 56.8234 14.3515 55.4263 15.0496 54.3959C15.7477 53.3654 16.6942 52.7858 17.6815 52.7842H88.0183C89.0055 52.7859 89.952 53.3655 90.6501 54.3959C91.3482 55.4263 91.7409 56.8234 91.742 58.2806V110.339C91.7415 110.947 91.5776 111.531 91.2862 111.961C90.9948 112.391 90.5997 112.633 90.1876 112.634Z" fill="#E4E4E4"/>
<path d="M91.6593 65.609H68.324V67.0747H91.6593V65.609Z" fill="white"/>
<path d="M91.6593 85.396H68.324V86.8617H91.6593V85.396Z" fill="white"/>
<path d="M49.0076 52.5429L48.337 52.1261L47.8769 47.1635H41.7501L41.2514 52.1058L40.6514 52.5487C40.6227 52.5699 40.5997 52.6047 40.5861 52.6476C40.5725 52.6905 40.5691 52.739 40.5764 52.7851C40.5838 52.8312 40.6015 52.8723 40.6267 52.9017C40.6519 52.9311 40.683 52.9471 40.7151 52.9471H48.9524C48.9852 52.9471 49.0171 52.9303 49.0426 52.8995C49.068 52.8688 49.0855 52.826 49.092 52.7784C49.0985 52.7308 49.0937 52.6813 49.0783 52.6384C49.0629 52.5955 49.0379 52.5618 49.0076 52.5429Z" fill="#E6E6E6"/>
<path d="M59.8953 47.8238H29.7988C29.6409 47.8232 29.4896 47.7303 29.378 47.5653C29.2665 47.4003 29.2039 47.1767 29.2039 46.9436V40.6793H60.4902V46.9436C60.4902 47.1767 60.4276 47.4003 60.316 47.5653C60.2045 47.7303 60.0532 47.8232 59.8953 47.8238Z" fill="#CCCCCC"/>
<path d="M60.5217 43.64H29.1764V16.8362C29.1766 16.5549 29.2524 16.2852 29.3872 16.0863C29.5219 15.8874 29.7046 15.7755 29.8952 15.7752H59.8029C59.9934 15.7755 60.1761 15.8874 60.3109 16.0863C60.4456 16.2852 60.5215 16.5549 60.5217 16.8362V43.64Z" fill="#3F3D56"/>
<path d="M58.6496 41.6945H31.0485C30.9016 41.6943 30.7608 41.6081 30.6569 41.4547C30.553 41.3014 30.4945 41.0935 30.4944 40.8766V18.5386C30.4945 18.3217 30.553 18.1138 30.6569 17.9604C30.7608 17.8071 30.9016 17.7208 31.0485 17.7206H58.6496C58.7965 17.7208 58.9373 17.8071 59.0412 17.9604C59.1451 18.1138 59.2035 18.3217 59.2037 18.5386V40.8766C59.2036 41.0935 59.1451 41.3014 59.0412 41.4547C58.9373 41.6081 58.7965 41.6943 58.6496 41.6945Z" fill="white"/>
<path d="M89.5908 20.285C89.8548 20.2288 90.124 20.2588 90.3793 20.3728C90.6346 20.4868 90.8699 20.682 91.0686 20.9448C91.2673 21.2075 91.4245 21.5314 91.5292 21.8935C91.6339 22.2557 91.6836 22.6473 91.6747 23.0408L97.7261 26.479L94.9844 29.3703L89.6582 25.6621C89.2113 25.5962 88.7963 25.2906 88.4919 24.8032C88.1875 24.3158 88.0147 23.6805 88.0064 23.0177C87.9981 22.3549 88.1548 21.7107 88.4468 21.207C88.7388 20.7033 89.1459 20.3753 89.5908 20.285Z" fill="#9E616A"/>
<path d="M112.568 18.5972L113.592 21.3446C113.345 23.0871 112.705 24.6549 111.778 25.7932C110.21 27.7444 102.015 35.0116 102.015 35.0116L91.6681 27.3447L93.4781 23.7945L101.601 27.8127C104.614 23.6127 108.251 20.5098 112.22 18.7513L112.568 18.5972Z" fill="#E4E4E4"/>
<path d="M110.665 64.0594C115.124 64.0594 118.739 62.3207 118.739 60.1758C118.739 58.0309 115.124 56.2922 110.665 56.2922C106.205 56.2922 102.59 58.0309 102.59 60.1758C102.59 62.3207 106.205 64.0594 110.665 64.0594Z" fill="#CACACA"/>
<path d="M92.5495 109.22L90.4053 108.346L91.671 95.7215L94.8357 97.013L92.5495 109.22Z" fill="#9E616A"/>
<path d="M92.5218 112.511L85.608 109.69L85.6322 109.561C85.8295 108.508 86.3022 107.613 86.9464 107.074C87.5905 106.535 88.3533 106.396 89.067 106.687L89.0672 106.687L93.2899 108.41L92.5218 112.511Z" fill="#2F2E41"/>
<path d="M86.3327 109.261L84.2976 107.935L86.7953 95.7178L89.7988 97.6752L86.3327 109.261Z" fill="#9E616A"/>
<path d="M85.9808 112.511L79.4189 108.235L79.4556 108.112C79.7547 107.112 80.3106 106.329 81.0011 105.934C81.6915 105.539 82.46 105.565 83.1374 106.007L83.1375 106.007L87.1452 108.619L85.9808 112.511Z" fill="#2F2E41"/>
<path d="M116.949 50.6807C116.949 50.6807 118.027 55.6136 111.409 61.8518L102.886 74.3882L94.0298 105.658L88.772 102.179L89.8032 98.1156L90.4951 95.3893L90.8492 93.9945L91.2287 92.4994L96.8575 70.3217L101.586 58.1018L101.723 51.4711L102.886 46.7971L111.324 42.3778L116.949 50.6807Z" fill="#2F2E41"/>
<path d="M112.646 50.925C112.646 50.925 113.724 55.8578 107.106 62.0961L98.583 74.6324L89.7268 105.902L84.469 102.423L85.5002 98.3599L86.1922 95.6336L86.5462 94.2388L86.9257 92.7436L92.5546 70.566L94.1377 66.4744C96.2263 61.0768 98.7641 56.0859 101.692 51.6183L103.244 49.2503L103.41 45.586L107.021 42.6221L112.646 50.925Z" fill="#2F2E41"/>
<path d="M107.547 26.7762L110.195 18.4706L114.816 17.5401C114.816 17.5401 118.424 24.3256 117.477 33.8604C117.122 37.436 116.832 40.9957 116.815 44.1203C116.81 44.9517 117.303 45.323 117.312 46.0746C117.32 46.8129 116.378 48.0157 116.65 48.5174C117.038 49.209 117.27 50.0636 117.312 50.9602C116.984 52.1123 107.058 45.8708 102.886 46.7971L107.547 26.7762Z" fill="#E4E4E4"/>
<path d="M114.11 13.3587C115.29 10.4299 114.638 6.6443 112.653 4.9033C110.669 3.16229 108.104 4.12519 106.925 7.05399C105.745 9.98279 106.398 13.7684 108.382 15.5094C110.366 17.2504 112.931 16.2875 114.11 13.3587Z" fill="#9E616A"/>
<path d="M113.19 7.99124C113.182 8.15357 113.171 8.36856 113.158 8.61179C113.145 9.27764 113.272 9.93306 113.522 10.4879C113.756 11.0716 113.477 14.5969 113.477 14.5969C120.323 7.55267 114.913 0.475633 112.797 1.10473C112.842 0.208914 111.116 0.563796 111.116 0.563796C110.458 -0.947786 109.017 1.05871 109.017 1.05871L109.295 0.368141C108.176 0.78824 107.07 5.89269 107.07 5.89269C107.45 8.09482 113.234 7.09542 113.19 7.99124Z" fill="#2F2E41"/>
<path d="M86.6306 30.0434C88.9833 25.4243 90.8431 20.3009 92.1456 14.8512C92.221 14.5252 92.2156 14.1703 92.1304 13.8496C92.0452 13.5289 91.8856 13.2633 91.6801 13.1L83.6294 6.73266C83.4992 6.62887 83.3546 6.57032 83.2067 6.56145C83.0588 6.55259 82.9115 6.59366 82.776 6.68153C82.638 6.77006 82.5154 6.90392 82.4177 7.0729C82.32 7.24188 82.2497 7.44153 82.2122 7.65666C81.2751 12.9082 79.5138 17.7604 77.0706 21.8207C76.97 21.9859 76.8963 22.1829 76.8551 22.3965C76.8138 22.6102 76.8062 22.8349 76.8327 23.0536C76.8582 23.2688 76.9167 23.4726 77.0036 23.6495C77.0905 23.8263 77.2036 23.9715 77.3343 24.0741L85.385 30.4414C85.5909 30.6035 85.8292 30.6525 86.0572 30.5796C86.2853 30.5067 86.4885 30.3167 86.6306 30.0434Z" fill="#CCCCCC"/>
<path d="M86.0813 29.4341C86.038 29.5139 85.9771 29.5689 85.9093 29.5895C85.8415 29.6102 85.7709 29.5953 85.7097 29.5474L77.6589 23.1799C77.6198 23.1499 77.586 23.1068 77.5601 23.0542C77.5341 23.0016 77.5168 22.9408 77.5094 22.8766C77.5011 22.8089 77.5034 22.7392 77.5163 22.673C77.5292 22.6069 77.5524 22.546 77.5839 22.4953C80.0991 18.3154 81.9124 13.3202 82.877 7.91394C82.8882 7.84714 82.9097 7.78506 82.9398 7.73256C82.9699 7.68006 83.0079 7.63857 83.0507 7.61132C83.091 7.5847 83.1349 7.57225 83.1791 7.57494C83.2232 7.57764 83.2663 7.5954 83.305 7.62684L91.3556 13.9941C91.4166 14.0427 91.4641 14.1213 91.4901 14.2162C91.516 14.3111 91.5186 14.4164 91.4975 14.5138C90.2184 19.866 88.3918 24.8977 86.0813 29.4341Z" fill="white"/>
<path d="M83.2647 13.6764L88.8175 18.4805C89.37 18.9585 89.8703 17.6921 89.3187 17.2149L83.7659 12.4108C83.2134 11.9328 82.7131 13.1991 83.2647 13.6764Z" fill="#FFB163"/>
<path d="M82.2716 16.3635L87.8245 21.1676C88.3769 21.6456 88.8773 20.3792 88.3257 19.902L82.7728 15.0979C82.2203 14.6199 81.72 15.8862 82.2716 16.3635Z" fill="#FFB163"/>
<path d="M81.1132 19.2949L86.666 24.099C87.2185 24.577 87.7188 23.3106 87.1672 22.8334L81.6144 18.0293C81.0619 17.5513 80.5616 18.8176 81.1132 19.2949Z" fill="#FFB163"/>
<path d="M79.9547 21.7377L85.5076 26.5418C86.0601 27.0198 86.5604 25.7534 86.0088 25.2762L80.4559 20.4721C79.9034 19.9941 79.4031 21.2605 79.9547 21.7377Z" fill="#FFB163"/>
<path d="M105.268 49.996L107.353 56.9155C107.403 57.0811 107.425 57.2626 107.416 57.4436C107.407 57.6246 107.367 57.7994 107.3 57.9521C107.222 58.1346 107.109 58.2788 106.975 58.3666C106.842 58.4543 106.693 58.4817 106.549 58.4453C106.5 58.4342 106.452 58.4153 106.405 58.3887C106.221 58.2837 106.073 58.0752 105.992 57.8088L103.908 50.8894C103.868 50.7575 103.846 50.6153 103.844 50.471C103.841 50.3267 103.858 50.183 103.893 50.0483C103.964 49.7762 104.105 49.5567 104.285 49.4383C104.466 49.3198 104.671 49.312 104.855 49.4166C105.04 49.5212 105.188 49.7296 105.268 49.996Z" fill="#FFB163"/>
<path d="M107.185 56.3574L107.603 57.754L107.816 59.7338C107.83 59.8642 107.815 59.9978 107.772 60.1138C107.73 60.2298 107.662 60.3218 107.581 60.3754C107.499 60.4291 107.407 60.4413 107.32 60.4103C107.234 60.3793 107.156 60.3068 107.1 60.204L106.236 58.6168L105.824 57.2508L107.185 56.3574Z" fill="#3F3D56"/>
<path d="M103.444 48.0709L103.743 50.8411C103.753 50.9318 103.777 51.018 103.812 51.0929C103.848 51.1679 103.896 51.2297 103.95 51.2735C104.005 51.3173 104.066 51.342 104.128 51.3456C104.19 51.3492 104.252 51.3317 104.309 51.2944L104.605 51.1L105.177 52.9972C105.194 53.0563 105.227 53.1025 105.268 53.1257C105.309 53.1489 105.355 53.1471 105.395 53.1208C105.435 53.0945 105.466 53.0458 105.482 52.9854C105.498 52.925 105.497 52.8579 105.479 52.7987L104.907 50.9014L105.204 50.707C105.302 50.6425 105.379 50.5232 105.417 50.3752C105.456 50.2272 105.453 50.0626 105.41 49.9174C105.396 49.8693 105.377 49.8243 105.354 49.7833L104.161 47.6005C104.105 47.4978 104.027 47.4253 103.94 47.3944C103.853 47.3634 103.762 47.3757 103.68 47.4294C103.598 47.483 103.531 47.575 103.488 47.691C103.446 47.807 103.43 47.9405 103.444 48.0709Z" fill="#3F3D56"/>
<path d="M104.309 53.071C104.356 52.6834 104.46 52.3157 104.614 51.9938C104.767 51.672 104.967 51.4038 105.198 51.2081C105.43 51.0124 105.688 50.894 105.953 50.8613C106.219 50.8286 106.487 50.8822 106.737 51.0186L110.852 43.6221L111.849 48.3733L107.788 54.6687C107.605 55.274 107.278 55.7593 106.869 56.0324C106.459 56.3056 105.997 56.3477 105.568 56.1507C105.139 55.9538 104.774 55.5315 104.542 54.9639C104.31 54.3963 104.227 53.7228 104.309 53.071Z" fill="#9E616A"/>
<path d="M109.49 52.5904L107.677 48.7259L112.824 38.5967L110.173 30.2104L110.366 20.2351L112.557 19.6377L112.584 19.6578C113.649 20.5628 114.473 21.9785 114.917 23.6696C115.464 25.6865 116.684 33.2578 117.363 37.5914C117.496 38.4311 117.482 39.3073 117.321 40.1364C117.159 40.9655 116.857 41.72 116.443 42.3278L109.49 52.5904Z" fill="#E4E4E4"/>
<path d="M58.4563 33.9177C58.4412 34.1054 58.4362 34.2945 58.4413 34.4834L49.1613 44.4487L46.6119 42.7833L44.4062 48.1339L48.7254 51.7296C49.0743 52.02 49.4777 52.1356 49.8749 52.0589C50.2721 51.9822 50.6418 51.7174 50.9283 51.3043L60.2683 37.8386C60.7464 38.0179 61.2501 37.9781 61.7125 37.7245C62.1749 37.4709 62.574 37.0156 62.8568 36.419C63.1396 35.8224 63.2926 35.1129 63.2955 34.3848C63.2984 33.6568 63.1511 32.9446 62.8732 32.3432C62.5952 31.7417 62.1997 31.2794 61.7394 31.0177C61.2791 30.7561 60.7757 30.7075 60.2963 30.8784C59.8168 31.0493 59.3839 31.4317 59.0552 31.9746C58.7266 32.5175 58.5177 33.1953 58.4563 33.9177Z" fill="#FFB6B6"/>
<path d="M48.8612 44.813L46.155 51.4692C46.078 51.6586 45.9742 51.8212 45.8508 51.9461C45.7274 52.071 45.5872 52.1551 45.4397 52.1928C45.2923 52.2304 45.141 52.2208 44.9964 52.1644C44.8517 52.108 44.7169 52.0063 44.6013 51.8661L40.5494 46.9542C39.8953 46.3671 39.4256 45.4212 39.2433 44.3238C39.0609 43.2263 39.1808 42.067 39.5767 41.0998C39.9725 40.1326 40.612 39.4366 41.3549 39.1643C42.0979 38.8919 42.8837 39.0655 43.5401 39.6469L48.3676 42.6025C48.5058 42.6872 48.63 42.8149 48.7318 42.9768C48.8335 43.1387 48.9104 43.3311 48.9573 43.5409C49.0041 43.7507 49.0198 43.9729 49.0032 44.1924C48.9866 44.4119 48.9382 44.6236 48.8612 44.813Z" fill="#FFB163"/>
<path d="M37.2659 102.668H42.5706V89.6929H37.2659V102.668Z" fill="#CACACA"/>
<path d="M42.3047 96.5587L41.6239 98.0396L54.355 110.791L55.0359 109.31L42.3047 96.5587Z" fill="#CACACA"/>
<path d="M37.5318 96.5586L24.8007 109.31L25.4815 110.791L38.2126 98.0396L37.5318 96.5586Z" fill="#CACACA"/>
<path d="M54.6955 112.511C55.6162 112.511 56.3627 111.41 56.3627 110.051C56.3627 108.692 55.6162 107.59 54.6955 107.59C53.7747 107.59 53.0283 108.692 53.0283 110.051C53.0283 111.41 53.7747 112.511 54.6955 112.511Z" fill="#CACACA"/>
<path d="M39.8425 112.511C40.7632 112.511 41.5096 111.41 41.5096 110.051C41.5096 108.692 40.7632 107.59 39.8425 107.59C38.9217 107.59 38.1753 108.692 38.1753 110.051C38.1753 111.41 38.9217 112.511 39.8425 112.511Z" fill="#CACACA"/>
<path d="M25.141 112.511C26.0618 112.511 26.8082 111.41 26.8082 110.051C26.8082 108.692 26.0618 107.59 25.141 107.59C24.2203 107.59 23.4739 108.692 23.4739 110.051C23.4739 111.41 24.2203 112.511 25.141 112.511Z" fill="#CACACA"/>
<path d="M40.4487 97.2991H39.2362V110.051H40.4487V97.2991Z" fill="#CACACA"/>
<path d="M38.7815 95.5094H41.0549V78.2836H38.7815V95.5094Z" fill="#CACACA"/>
<path d="M33.4011 80.9682V76.9414C33.4017 76.2 33.6015 75.4892 33.9566 74.965C34.3118 74.4407 34.7934 74.1458 35.2956 74.145H45.4502C45.9525 74.1458 46.434 74.4407 46.7892 74.965C47.1444 75.4892 47.3441 76.2 47.3447 76.9414V80.9682C47.3441 81.7096 47.1444 82.4204 46.7892 82.9446C46.434 83.4688 45.9525 83.7637 45.4502 83.7646H35.2956C34.7934 83.7637 34.3118 83.4688 33.9566 82.9446C33.6015 82.4204 33.4017 81.7096 33.4011 80.9682Z" fill="#3F3D56"/>
<path d="M51.7415 108.493L54.5497 108.493L55.886 97.7419L51.7412 97.7422L51.7415 108.493Z" fill="#FFB8B8"/>
<path d="M51.0253 112.511L60.0806 112.511V112.342C60.0806 111.659 59.9894 110.982 59.8123 110.351C59.6352 109.72 59.3756 109.146 59.0483 108.663C58.721 108.18 58.3325 107.797 57.9049 107.536C57.4773 107.274 57.019 107.14 56.5561 107.14H56.5558L51.0251 107.14L51.0253 112.511Z" fill="#2F2E41"/>
<path d="M55.9419 101.826L61.5406 83.2949C62.008 81.733 62.0597 79.9685 61.6854 78.3528C61.311 76.7372 60.5381 75.389 59.5205 74.5768L47.3768 64.9648L41.8353 64.2691L36.7237 63.5833L36.6868 63.6754C36.6397 63.793 35.5406 66.595 36.2835 69.6675C36.847 71.998 38.3128 73.8183 40.6402 75.078C46.0724 78.0181 52.3477 80.5308 54.7936 81.4745C54.9017 81.5153 55.0027 81.5895 55.09 81.692C55.1773 81.7946 55.2489 81.9232 55.3001 82.0695C55.3514 82.2142 55.3819 82.3729 55.3897 82.5358C55.3974 82.6986 55.3822 82.8621 55.345 83.0159L50.1437 100.265C50.0893 100.484 50.0698 100.718 50.0865 100.95C50.1032 101.181 50.1557 101.404 50.24 101.601C50.3244 101.798 50.4382 101.964 50.5728 102.086C50.7074 102.207 50.8591 102.282 51.0163 102.303L54.9028 102.721C54.9358 102.726 54.9686 102.728 55.0013 102.728C55.2004 102.728 55.3951 102.643 55.5621 102.483C55.729 102.323 55.8609 102.095 55.9419 101.826Z" fill="#2F2E41"/>
<path d="M49.909 108.493L52.7172 108.493L54.0534 97.7419L49.9087 97.7422L49.909 108.493Z" fill="#FFB8B8"/>
<path d="M49.1928 112.511L58.2481 112.511V112.342C58.2481 111.659 58.1569 110.982 57.9798 110.351C57.8027 109.72 57.5431 109.146 57.2158 108.663C56.8885 108.18 56.5 107.797 56.0724 107.536C55.6448 107.274 55.1865 107.14 54.7236 107.14H54.7233L49.1926 107.14L49.1928 112.511Z" fill="#2F2E41"/>
<path d="M53.8803 102.841L59.479 84.3092C59.9464 82.7473 59.9981 80.9828 59.6238 79.3672C59.2494 77.7516 58.4765 76.4034 57.4589 75.5912L45.3151 65.9792L39.7737 65.2835L35.77 64.7709L35.7705 64.6898C35.7234 64.8074 34.6244 67.6094 35.3673 70.6818C35.9308 73.0124 36.2512 74.8327 38.5786 76.0924C44.0108 79.0324 50.2861 81.5452 52.732 82.4889C52.8401 82.5297 52.9411 82.6038 53.0284 82.7064C53.1157 82.8089 53.1873 82.9376 53.2385 83.0839C53.2898 83.2285 53.3203 83.3873 53.328 83.5501C53.3358 83.713 53.3206 83.8765 53.2834 84.0303L48.0821 101.279C48.0277 101.498 48.0082 101.732 48.0249 101.964C48.0416 102.196 48.0941 102.419 48.1784 102.616C48.2628 102.813 48.3766 102.978 48.5112 103.1C48.6457 103.222 48.7975 103.296 48.9547 103.318L52.8412 103.736C52.8742 103.74 52.907 103.742 52.9397 103.742C53.1388 103.742 53.3335 103.657 53.5005 103.497C53.6674 103.337 53.7993 103.109 53.8803 102.841Z" fill="#2F2E41"/>
<path d="M50.3684 23.021C51.0873 18.5589 49.2195 14.0815 46.1966 13.0204C43.1736 11.9593 40.1402 14.7162 39.4213 19.1783C38.7024 23.6403 40.5702 28.1177 43.5932 29.1788C46.6161 30.2399 49.6495 27.483 50.3684 23.021Z" fill="#FFB8B8"/>
<path d="M64.2883 53.0061C66.641 48.387 68.5008 43.2636 69.8033 37.8138C69.8787 37.4879 69.8734 37.1329 69.7881 36.8122C69.7029 36.4916 69.5433 36.2259 69.3378 36.0626L61.2871 29.6953C61.1569 29.5915 61.0123 29.533 60.8644 29.5241C60.7165 29.5152 60.5692 29.5563 60.4337 29.6442C60.2957 29.7327 60.1731 29.8666 60.0754 30.0355C59.9777 30.2045 59.9074 30.4042 59.8699 30.6193C58.9329 35.8708 57.1715 40.723 54.7283 44.7833C54.6277 44.9486 54.554 45.1455 54.5128 45.3592C54.4716 45.5729 54.4639 45.7976 54.4905 46.0163C54.5159 46.2315 54.5744 46.4353 54.6613 46.6121C54.7482 46.7889 54.8613 46.9342 54.992 47.0367L63.0427 53.4041C63.2487 53.5662 63.4869 53.6151 63.715 53.5422C63.9431 53.4694 64.1462 53.2794 64.2883 53.0061Z" fill="#CCCCCC"/>
<path d="M63.739 52.3967C63.6957 52.4765 63.6349 52.5315 63.567 52.5522C63.4992 52.5729 63.4286 52.5579 63.3674 52.51L55.3167 46.1426C55.2776 46.1125 55.2437 46.0695 55.2178 46.0168C55.1918 45.9642 55.1745 45.9035 55.1672 45.8393C55.1588 45.7716 55.1611 45.7019 55.174 45.6357C55.187 45.5695 55.2101 45.5087 55.2416 45.4579C57.7568 41.278 59.5701 36.2828 60.5347 30.8766C60.5459 30.8098 60.5674 30.7477 60.5975 30.6952C60.6276 30.6427 60.6656 30.6012 60.7084 30.574C60.7487 30.5474 60.7926 30.5349 60.8368 30.5376C60.8809 30.5403 60.924 30.558 60.9627 30.5895L69.0133 36.9567C69.0743 37.0054 69.1219 37.0839 69.1478 37.1788C69.1737 37.2737 69.1763 37.379 69.1552 37.4765C67.8761 42.8286 66.0495 47.8603 63.739 52.3967Z" fill="white"/>
<path d="M60.9224 36.639L66.4752 41.4431C67.0277 41.9211 67.528 40.6548 66.9764 40.1775L61.4236 35.3734C60.8711 34.8954 60.3708 36.1618 60.9224 36.639Z" fill="#CCCCCC"/>
<path d="M59.9293 39.3261L65.4822 44.1302C66.0347 44.6082 66.535 43.3419 65.9834 42.8646L60.4305 38.0605C59.8781 37.5825 59.3777 38.8489 59.9293 39.3261Z" fill="#CCCCCC"/>
<path d="M59.1492 42.0028L64.1992 46.4279C64.7017 46.8682 65.2391 45.9579 64.7374 45.5183L59.6874 41.0932C59.1849 40.6529 58.6476 41.5632 59.1492 42.0028Z" fill="#CCCCCC"/>
<path d="M57.6125 44.7003L63.1653 49.5045C63.7178 49.9824 64.2181 48.7161 63.6665 48.2389L58.1136 43.4347C57.5612 42.9568 57.0609 44.2231 57.6125 44.7003Z" fill="#CCCCCC"/>
<path d="M48.1388 65.6376L37.0051 65.5393L37.0021 65.4224C36.7898 57.1769 37.4725 49.7076 39.0892 42.5881C39.1121 42.3216 39.1368 42.0368 39.161 41.7572C39.4372 38.572 39.6565 36.043 41.7085 35.1012C41.5376 34.7656 41.4368 34.3636 41.4186 33.9447C41.4057 33.6662 41.4304 33.3867 41.4913 33.1225C41.5523 32.8583 41.6482 32.6147 41.7736 32.4057C41.8935 32.2039 42.0395 32.0394 42.2029 31.9217C42.3664 31.804 42.5441 31.7354 42.7256 31.7201L46.6886 31.5209C46.8968 31.5188 47.0995 31.6202 47.2639 31.8088C47.5656 32.1397 47.7777 32.6182 47.8621 33.1588C47.9465 33.6994 47.8978 34.2667 47.7246 34.7591C47.678 34.8963 47.6601 34.9588 47.6533 34.986C47.7942 36.0755 48.2122 37.3696 48.6545 38.7392C49.2879 40.7001 50.0058 42.9225 50.1903 45.3003C50.29 46.584 50.2486 47.8832 50.0677 49.1475C49.9851 49.8288 49.966 50.5235 50.0111 51.2124C50.0473 52.2339 50.0815 53.1984 49.6903 54.1312C49.5906 54.3841 49.4765 54.6536 49.3426 54.9523L48.7923 56.8939L48.1388 65.6376Z" fill="#FFB163"/>
<path d="M31.4309 77.1766V43.597C31.4317 42.5028 31.7266 41.4537 32.2508 40.68C32.775 39.9063 33.4857 39.4711 34.227 39.4698H35.0004C35.7417 39.4711 36.4524 39.9063 36.9766 40.68C37.5008 41.4537 37.7956 42.5028 37.7965 43.597V77.1766C37.7956 78.2708 37.5008 79.3199 36.9766 80.0936C36.4524 80.8673 35.7417 81.3025 35.0004 81.3038H34.227C33.4857 81.3025 32.775 80.8673 32.2508 80.0936C31.7266 79.3199 31.4317 78.2708 31.4309 77.1766Z" fill="#3F3D56"/>
<path d="M61.2875 46.9485C61.2076 47.0962 61.1357 47.2529 61.0724 47.4173L49.6269 48.6508L48.0572 45.25L44.2704 48.076L46.653 54.4951C46.8454 55.0137 47.1467 55.4261 47.5115 55.6705C47.8763 55.9148 48.2849 55.9779 48.6761 55.8503L61.4244 51.6904C61.7663 52.2152 62.2083 52.5739 62.6918 52.7188C63.1752 52.8637 63.677 52.7879 64.1305 52.5015C64.584 52.2151 64.9677 51.7317 65.2306 51.1156C65.4934 50.4995 65.623 49.7799 65.602 49.0525C65.581 48.3251 65.4104 47.6243 65.113 47.0434C64.8157 46.4625 64.4055 46.0291 63.9371 45.8007C63.4688 45.5723 62.9644 45.5598 62.4911 45.7648C62.0178 45.9698 61.598 46.3827 61.2875 46.9485Z" fill="#FFB6B6"/>
<path d="M49.2418 48.7264L44.5629 52.2713C44.4298 52.3721 44.2835 52.4295 44.134 52.4393C43.9845 52.4492 43.8354 52.4114 43.6967 52.3286C43.558 52.2457 43.433 52.1196 43.3303 51.959C43.2275 51.7984 43.1495 51.607 43.1014 51.3979L41.4165 44.069C41.071 43.0629 41.0095 41.8958 41.2455 40.823C41.4814 39.7501 41.9956 38.8589 42.6756 38.3441C40.6015 39.9155 44.9212 35.4519 46.5698 40.1928L49.613 46.4644C49.7001 46.644 49.76 46.8492 49.7885 47.066C49.817 47.2829 49.8135 47.5062 49.7783 47.7209C49.7431 47.9355 49.6769 48.1365 49.5843 48.31C49.4917 48.4835 49.3749 48.6255 49.2418 48.7264Z" fill="#FFB163"/>
<path d="M42.3533 29.1768C42.0147 29.1768 41.641 28.9359 41.2198 28.4478C39.9801 27.011 39.0941 25.0137 38.6975 22.7621C38.3009 20.5105 38.4158 18.1291 39.0244 15.9831C39.3307 14.9032 39.9035 13.4353 40.8932 12.5751C41.6047 11.957 42.4404 11.7337 43.168 11.5729C43.7978 11.4336 44.4355 11.3227 45.0634 11.2437C45.8137 11.149 46.6804 11.085 47.4708 11.5283C48.0499 11.8532 48.5429 12.4269 49.0196 12.9818C49.1857 13.175 49.3575 13.3752 49.5296 13.5603C49.9466 14.0404 50.4275 14.3852 50.9409 14.572C51.0493 14.6052 51.1515 14.6723 51.2408 14.7688C51.3301 14.8653 51.4043 14.989 51.4584 15.1315C51.5135 15.2763 51.547 15.4369 51.5566 15.6025C51.5661 15.768 51.5514 15.9347 51.5136 16.0912C51.4392 16.3989 51.3721 16.6763 51.5079 16.9769C51.5582 17.0828 51.6253 17.1689 51.7034 17.2276C51.7815 17.2863 51.8681 17.3159 51.9557 17.3138C52.002 17.3127 52.0477 17.3286 52.0887 17.3602C52.1297 17.3918 52.1647 17.438 52.1905 17.4946C52.2167 17.5507 52.2332 17.6155 52.2385 17.6832C52.2439 17.7509 52.2379 17.8195 52.2212 17.883L52.1994 17.9658C52.2577 17.9738 52.3137 18.0026 52.3627 18.0497C52.4118 18.0967 52.4523 18.1607 52.4809 18.236C52.5234 18.3433 52.5398 18.4688 52.5274 18.5917C52.5151 18.7147 52.4747 18.8277 52.4129 18.9121C51.9108 19.6175 51.2849 20.1011 50.606 20.3079C50.1415 20.4424 49.6636 20.4408 49.1994 20.3032L49.1248 20.2817L49.1339 20.1595C47.2565 19.1712 45.5618 20.8485 44.5957 22.766L44.4561 22.636C44.4801 22.5646 44.4941 22.4867 44.4971 22.4071C44.5002 22.3274 44.4923 22.2477 44.4739 22.1727C44.4544 22.0827 44.4232 21.9993 44.3818 21.9272C44.3405 21.855 44.2899 21.7956 44.233 21.7524C44.118 21.6823 43.9914 21.6641 43.8694 21.7001C43.7473 21.7361 43.6352 21.8246 43.5472 21.9545C43.4575 22.0931 43.3884 22.2579 43.3443 22.4381C43.3001 22.6184 43.2819 22.8102 43.2907 23.0015C43.3161 23.4068 43.386 23.8033 43.4978 24.1754C43.5432 24.3534 43.5902 24.5376 43.6284 24.7232C43.8423 25.7775 43.7852 26.9112 43.4683 27.9074C43.3221 28.3619 43.0576 28.9413 42.6283 29.121C42.5388 29.1583 42.4463 29.1771 42.3533 29.1768Z" fill="#2F2E41"/>
<path d="M134.802 103.582H1.19649C1.14432 103.582 1.09435 103.551 1.05752 103.496C1.02068 103.442 1 103.368 1 103.291C1 103.214 1.02068 103.14 1.05752 103.085C1.09435 103.031 1.14432 103 1.19649 103H134.802C134.855 103 134.905 103.031 134.942 103.085C134.979 103.14 134.999 103.214 134.999 103.291C134.999 103.368 134.979 103.442 134.942 103.497C134.905 103.551 134.855 103.582 134.802 103.582Z" fill="#CACACA"/>
</g>
<defs>
<clipPath id="clip0_77_461">
<rect width="134" height="113" fill="white"/>
</clipPath>
</defs>
</svg>
